<?xml version="1.0" encoding="utf-8"?>
<!-- Generator: Adobe Illustrator 16.0.4, SVG Export Plug-In . SVG Version: 6.00 Build 0)  -->
<!DOCTYPE svg PUBLIC "-//W3C//DTD SVG 1.1//EN" "http://www.w3.org/Graphics/SVG/1.1/DTD/svg11.dtd">
<svg version="1.1" id="Capa_1" xmlns="http://www.w3.org/2000/svg" xmlns:xlink="http://www.w3.org/1999/xlink" x="0px" y="0px"
	 width="400px" height="482px" viewBox="0 0 400 482" enable-background="new 0 0 400 482" xml:space="preserve">
<g>
	<path d="M0,448c0,8,2.833,15.667,8.5,23S21,482,29,482h340c7.333,0,14.333-3.667,21-11s10-15,10-23V103H0V448z M123,197.5
		c21.333-20.333,47-30.5,77-30.5s55.5,10.167,76.5,30.5s31.5,45,31.5,74s-10.5,53.833-31.5,74.5S230,377,200,377
		s-55.667-10.333-77-31s-32-45.5-32-74.5S101.667,217.833,123,197.5z"/>
	<path d="M390.5,7.5C384.167,2.5,377,0,369,0H29C21,0,14.167,2.5,8.5,7.5S0,18.667,0,26v56h400V26
		C400,18.667,396.833,12.5,390.5,7.5z M134,62H21V21h113V62z M346,52.5c-4.667,4.333-10.167,6.5-16.5,6.5s-11.833-2.167-16.5-6.5
		c-4.667-4.334-7-9.667-7-16c0-6.337,2.333-11.67,7-16c4.667-4.333,10.167-6.5,16.5-6.5s11.833,2.167,16.5,6.5s7,9.667,7,16
		S350.667,48.167,346,52.5z"/>
</g>
</svg>
