<?xml version="1.0" encoding="utf-8"?>
<!-- Generator: Adobe Illustrator 16.0.4, SVG Export Plug-In . SVG Version: 6.00 Build 0)  -->
<!DOCTYPE svg PUBLIC "-//W3C//DTD SVG 1.1//EN" "http://www.w3.org/Graphics/SVG/1.1/DTD/svg11.dtd">
<svg version="1.1" id="Capa_1" xmlns="http://www.w3.org/2000/svg" xmlns:xlink="http://www.w3.org/1999/xlink" x="0px" y="0px"
	 width="512px" height="348px" viewBox="0 0 512 348" enable-background="new 0 0 512 348" xml:space="preserve">
<g>
	<path d="M482,30c-20-20-44-30-72-30H102C74,0,50,10,30,30S0,74,0,102v143c0,28.667,10,53,30,73s44,30,72,30h308c28,0,52-10,72-30
		s30-44.333,30-73V102C512,74,502,50,482,30z M205,256h-41v-21h-60l-14,21H36L155,92h50V256z M330.5,233
		c-13.667,15.333-31.834,23-54.5,23h-10h-51V92h53h1c22.667,0,42,8,58,24s24,35.667,24,59C351,198.334,344.167,217.667,330.5,233z
		 M366,256h-9h-5c19.333-21.333,29-47.333,29-78c0-36-12-64.667-36-86h5h10h5c21.333,32,32,60.667,32,86
		c0,30.667-8.667,56.667-26,78H366z M408,256h-9h-5c18.667-21.333,28-47.333,28-78c0-36-12-64.667-36-86h5h10h6
		c21.333,32,32,60.667,32,86c0,30.667-8.667,56.667-26,78H408z M455,256h-5h-9h-6c19.333-21.333,29-47.333,29-78
		c0-36-12-64.667-36-86h5h10h5c21.333,32,32,60.667,32,86C480,208.667,471.667,234.667,455,256z"/>
	<path d="M264,133h-8v92h8c12,0,22.333-4.667,31-14s13-20.167,13-32.5s-4.333-23-13-32S276,133,264,133z"/>
	<polygon points="164,204 164,144 126,204 	"/>
</g>
</svg>
