<?xml version="1.0" encoding="utf-8"?>
<!-- Generator: Adobe Illustrator 16.0.4, SVG Export Plug-In . SVG Version: 6.00 Build 0)  -->
<!DOCTYPE svg PUBLIC "-//W3C//DTD SVG 1.1//EN" "http://www.w3.org/Graphics/SVG/1.1/DTD/svg11.dtd">
<svg version="1.1" id="Capa_1" xmlns="http://www.w3.org/2000/svg" xmlns:xlink="http://www.w3.org/1999/xlink" x="0px" y="0px"
	 width="375px" height="492px" viewBox="0 0 375 492" enable-background="new 0 0 375 492" xml:space="preserve">
<path d="M18,213h36v230h54V246h53v197h54V246h53v197h54V213h35c5.337,0,9.67-1.5,13-4.5c3.333-3,5-6.833,5-11.5
	c0-5.335-2.333-9.669-7-13v-1h-1L197,95V69c10,4.668,25.167,5.335,45.5,2c20.333-3.333,37.833-2.333,52.5,3V17
	c-14-5.333-31.5-6.333-52.5-3s-36.167,2.667-45.5-2V8c0-5.333-3-8-9-8s-9,2.667-9,8v87L9,183H8v1c-5.333,3.333-8,7.667-8,13
	c0,4.667,1.833,8.5,5.5,11.5S13.333,213,18,213z"/>
<polygon points="36,459 0,492 375,492 340,459 "/>
</svg>
