<?xml version="1.0" encoding="utf-8"?>
<!-- Generator: Adobe Illustrator 16.0.4, SVG Export Plug-In . SVG Version: 6.00 Build 0)  -->
<!DOCTYPE svg PUBLIC "-//W3C//DTD SVG 1.1//EN" "http://www.w3.org/Graphics/SVG/1.1/DTD/svg11.dtd">
<svg version="1.1" id="Capa_1" xmlns="http://www.w3.org/2000/svg" xmlns:xlink="http://www.w3.org/1999/xlink" x="0px" y="0px"
	 width="492px" height="489.333px" viewBox="0 0 492 489.333" enable-background="new 0 0 492 489.333" xml:space="preserve">
<path d="M482,362c2.667,0.666,5,0.332,7-1c2-1.334,3-3.334,3-6v-36c0-6.668-3-12-9-16L296,192c-6-3.334-9-8.668-9-16V51
	c0-6.667-1.333-13-4-19c-7.333-18.667-17.667-29-31-31c-2-0.667-4-1-6-1s-4.333,0.333-7,1c-0.667,0-1.5,0.167-2.5,0.5
	S234.333,2.333,233,3c-4.667,1.333-9,4.333-13,9s-7,9-9,13l-3,7c-2,6-3,12.333-3,19v125c0,7.333-3,12.667-9,16L9,303
	c-6,4-9,9.332-9,16v36c0,2.666,1,4.666,3,6c2,1.332,4.333,1.666,7,1l185-60c2.667-1.334,5-1.168,7,0.5c2,1.666,3,3.832,3,6.5v97
	c0,7.334-2.667,13-8,17l-25,18c-5.333,4-8,9.666-8,17v24c0,2.666,1,4.666,3,6s4.333,1.666,7,1l62-18c6.667-2,13.333-2,20,0l62,18
	c2.667,0.666,5,0.334,7-1s3-3.334,3-6v-24c0-7.334-2.667-13-8-17l-25-18c-5.333-4-8-9.666-8-17v-97c0-3.334,1-5.668,3-7
	c2-1.334,4.333-1.334,7,0L482,362z"/>
</svg>
