<?xml version="1.0" encoding="utf-8"?>
<!-- Generator: Adobe Illustrator 16.0.4, SVG Export Plug-In . SVG Version: 6.00 Build 0)  -->
<!DOCTYPE svg PUBLIC "-//W3C//DTD SVG 1.1//EN" "http://www.w3.org/Graphics/SVG/1.1/DTD/svg11.dtd">
<svg version="1.1" id="Capa_1" xmlns="http://www.w3.org/2000/svg" xmlns:xlink="http://www.w3.org/1999/xlink" x="0px" y="0px"
	 width="333px" height="512.5px" viewBox="0 0 333 512.5" enable-background="new 0 0 333 512.5" xml:space="preserve">
<g>
	<path d="M127,109c11.333,0,21-4.167,29-12.5s12-18.333,12-30s-4-21.667-12-30S138.333,24,127,24s-21,4.167-29,12.5
		s-12,18.333-12,30s4,21.667,12,30S115.667,109,127,109z"/>
	<path d="M152,146c2.667-5.333,2.667-10.5,0-15.5s-7-7.5-13-7.5H16c-6.667,0-11.333,2.5-14,7.5s-2.667,10.167,0,15.5s7.333,8,14,8
		h123C145,154,149.333,151.333,152,146z"/>
	<path d="M287,9l-8-9L163,119l-2,2l0.5,0.5c0.333,0.333,0.5,0.833,0.5,1.5c2,2.667,3,6,3,10v5c0,3.333-0.667,6.333-2,9
		c0,0.667-0.167,1.167-0.5,1.5L162,149l-0.5,0.5c-0.333,0.333-0.5,0.833-0.5,1.5c-5.333,8.667-13.333,13-24,13H67v154v10L45,484
		c-1.333,6,0,11.833,4,17.5s9.167,9.167,15.5,10.5s13.167-0.167,20.5-4.5S96.667,498,98,492l20-175h11l34,176
		c1.333,6,5.667,11,13,15s14,5.333,20,4c6.667-1.333,11.5-4.833,14.5-10.5s3.833-11.5,2.5-17.5l-33-167V178l95,93l10-8
		c32-38.667,48-81,48-127C333,87.333,317.667,45,287,9z M179,123c7.333-9.333,16.667-19.833,28-31.5s24-24.167,38-37.5
		s23.333-22.333,28-27c23.333,28,36.333,60,39,96H179z M268,249c-2-2-15.167-14.5-39.5-37.5S188,171.667,180,161v-7h132
		C308.667,186,294,217.667,268,249z"/>
</g>
</svg>
