<?xml version="1.0" encoding="utf-8"?>
<!-- Generator: Adobe Illustrator 16.0.4, SVG Export Plug-In . SVG Version: 6.00 Build 0)  -->
<!DOCTYPE svg PUBLIC "-//W3C//DTD SVG 1.1//EN" "http://www.w3.org/Graphics/SVG/1.1/DTD/svg11.dtd">
<svg version="1.1" id="Capa_1" xmlns="http://www.w3.org/2000/svg" xmlns:xlink="http://www.w3.org/1999/xlink" x="0px" y="0px"
	 width="472px" height="490px" viewBox="0 0 472 490" enable-background="new 0 0 472 490" xml:space="preserve">
<g>
	<path d="M404,304c-10,0-19.333,2-28,6c-9.333,4-18.667,6-28,6s-18.667-2-28-6s-18.833-6-28.5-6s-19.167,2-28.5,6s-18.667,6-28,6
		c-9.334,0-18.667-2-28-6c-8.667-4-18-6-28-6s-19.667,2-29,6c-8.667,4-17.833,6-27.5,6s-18.833-2-27.5-6c-9.333-4-19-6-29-6
		c-9.333,0-18.667,2-28,6s-18.333,6-27,6v44c8.667,0,17.667-2.333,27-7c9.333-4,18.833-6,28.5-6s19.167,2,28.5,6
		c6.667,3.333,14.333,5.333,23,6l-35,36c-12.667-8.667-24.333-7.333-35,4L9,440c-6,5.333-9,12.167-9,20.5s2.833,15.333,8.5,21
		s12.333,8.5,20,8.5s14.5-3,20.5-9l39-41c10-10,11.667-21.333,5-34l48-49c5.333-2,8.333-3.333,9-4c9.333-4,19-6,29-6s19.333,2,28,6
		c9.333,4.667,18.667,7,28,7c9.334,0,18.668-2.333,28-7c9.333-4,19-6,29-6s19.333,2,28,6c9.335,4.667,18.668,7,28,7
		c9.335,0,18.668-2.333,28-7c9.333-4,18.833-6,28.5-6s19.167,2,28.5,6c9.335,4.667,18.668,7,28,7v-44c-9.333,0-18.667-2-28-6
		S414,304,404,304z"/>
	<path d="M451,234H256l61-60l7,3c4.667,2,9.5,1.833,14.5-0.5s8.167-5.833,9.5-10.5c2.667-7.333,1.333-14-4-20l47-48
		c12,6.667,23,5,33-5l39-41c6-6,9-13,9-21s-2.833-14.833-8.5-20.5S451,2,443,2s-14.667,2.667-20,8l-39,41
		c-10.667,11.333-12,23.667-4,37l-49,51l-98-38l-8-4c-11.333-3.322-21.833-2.155-31.5,3.5c-9.667,5.668-16.167,13.835-19.5,24.5
		l-30,105v3v1H11v55c6.667,0,13.667-1.667,21-5c10.667-5.333,22-8,34-8s23.667,2.667,35,8c6.667,3.333,13.833,5,21.5,5
		s14.834-1.667,21.5-5c11.333-5.333,23-8,35-8s23.667,2.667,35,8c6.667,3.333,13.667,5,21,5c7.335,0,14.669-1.667,22-5
		c10.667-5.333,22.167-8,34.5-8s23.833,2.667,34.5,8c7.335,3.333,14.668,5,22,5c7.335,0,14.668-1.667,22-5c10.667-5.333,22-8,34-8
		c8,0,14.333-1.667,19-5c8-3.333,18.667-9.333,32-18c4-2,7-4.5,9-7.5s2-5.667,0-8S457.667,234,451,234z M227,234l25-84l50,19l-63,65
		H227z"/>
	<path d="M277,47c0,0.672-0.017,1.338-0.048,2H277V47z"/>
	<path d="M240,49h-1l-5,10c-3.333,7.333-9.333,11-18,11h-13c8,11.333,19.333,17,34,17c10.667,0,20-4,28-12
		c7.496-7.496,11.479-16.163,11.952-26H241H240z"/>
	<path d="M189,60h27c4,0,7-2.333,9-7l5-9c1.333-3.333,5-5,11-5h39c-2.667-10.667-8.167-19.833-16.5-27.5S245.667,0,235,0
		c-13.333,0-24.5,4.667-33.5,14S188,34.667,188,48C188,56,188.333,60,189,60z"/>
</g>
</svg>
