<?xml version="1.0" encoding="utf-8"?>
<!-- Generator: Adobe Illustrator 16.0.4, SVG Export Plug-In . SVG Version: 6.00 Build 0)  -->
<!DOCTYPE svg PUBLIC "-//W3C//DTD SVG 1.1//EN" "http://www.w3.org/Graphics/SVG/1.1/DTD/svg11.dtd">
<svg version="1.1" id="Capa_1" xmlns="http://www.w3.org/2000/svg" xmlns:xlink="http://www.w3.org/1999/xlink" x="0px" y="0px"
	 width="492px" height="492px" viewBox="0 0 492 492" enable-background="new 0 0 492 492" xml:space="preserve">
<path d="M447,0h-29L318,109c9.333,4.667,19,11.667,29,21c12,11.333,21.667,27.667,29,49L492,63V0H447z"/>
<polygon points="0,492 93,492 232,341 149,286 0,442 0,445 "/>
<path d="M236,144h10c26,0,47,9.833,63,29.5s24.333,39.5,25,59.5c-0.667,9.333-4,14-10,14c-4.667,0-8-2.5-10-7.5s-4-12-6-21
	s-5-16.5-9-22.5c-4-6.667-10.833-13.667-20.5-21S259,164,249,164h-9c-8,0-17,2.667-27,8s-18.667,13.667-26,25
	c-4,6-7.167,12.5-9.5,19.5s-3.5,12.667-3.5,17s-0.833,7.833-2.5,10.5s-4.167,4-7.5,4c-6.667,0-10-4.667-10-14
	c0-25.334,9.167-46.667,27.5-64S218,144,236,144z"/>
<path d="M244,451c9.334,0,17.168-4.167,23.5-12.5c6.333-8.333,9.5-16.833,9.5-25.5v-30c0-17.333,5.5-34,16.5-50l33-48
	c11-16,16.5-32.333,16.5-49c0-28-10.333-52-31-72s-43.667-30-69-30c-32,0-58.333,13.333-79,40c-6.667,8.667-11.833,18.167-15.5,28.5
	s-5.667,18.667-6,25S141,239.333,139,244s-5.333,7-10,7c-8.667,0-13-5.667-13-17c-0.667-32,11.167-61,35.5-87s55.5-39,93.5-39
	c33.333,0,62.833,12.167,88.5,36.5S372,200,372,238c0,16-3.333,31-10,45s-14.167,25.333-22.5,34s-15.833,19.333-22.5,32
	s-10,26-10,40v28c0,14.667-6,28.333-18,41s-27.667,19-47,19c-2-0.667-3.667-1-5-1c-9.333-2.667-13-8.333-11-17c2-5.333,7.667-8,17-8
	H244z"/>
</svg>
