<?xml version="1.0" encoding="utf-8"?>
<!-- Generator: Adobe Illustrator 16.0.4, SVG Export Plug-In . SVG Version: 6.00 Build 0)  -->
<!DOCTYPE svg PUBLIC "-//W3C//DTD SVG 1.1//EN" "http://www.w3.org/Graphics/SVG/1.1/DTD/svg11.dtd">
<svg version="1.1" id="Capa_1" xmlns="http://www.w3.org/2000/svg" xmlns:xlink="http://www.w3.org/1999/xlink" x="0px" y="0px"
	 width="412px" height="440px" viewBox="0 0 412 440" enable-background="new 0 0 412 440" xml:space="preserve">
<path d="M353,82h-56V51c0-13.334-4.667-25.167-14-35.5S262.667,0,250,0h-85c-12.667,0-24.5,5.333-35.5,16S113,38.334,113,51v31H58
	L0,440h412L353,82z M266,82H144V51c0-5.336,2.333-10.17,7-14.5c4.667-4.333,9.334-6.5,14-6.5h85c4.667,0,8.5,2.167,11.5,6.5
	S266,45.667,266,51V82z"/>
</svg>
