<?xml version="1.0" encoding="utf-8"?>
<!-- Generator: Adobe Illustrator 16.0.4, SVG Export Plug-In . SVG Version: 6.00 Build 0)  -->
<!DOCTYPE svg PUBLIC "-//W3C//DTD SVG 1.1//EN" "http://www.w3.org/Graphics/SVG/1.1/DTD/svg11.dtd">
<svg version="1.1" id="Capa_1" xmlns="http://www.w3.org/2000/svg" xmlns:xlink="http://www.w3.org/1999/xlink" x="0px" y="0px"
	 width="512px" height="400px" viewBox="0 0 512 400" enable-background="new 0 0 512 400" xml:space="preserve">
<g>
	<path d="M25,262.5c12.667,11,27.333,16.5,44,16.5s31.167-5.5,43.5-16.5S132,237.667,134,221H3C5,237.667,12.333,251.5,25,262.5z"/>
	<path d="M350,344H159c-2.667,0-5,1-7,3s-3,4.5-3,7.5s1,5.5,3,7.5s4.333,3,7,3h191c6.667,0,10-3.5,10-10.5S356.667,344,350,344z"/>
	<rect x="150" y="370" width="209" height="30"/>
	<path d="M399.5,262.5c12.333,11,26.833,16.5,43.5,16.5s31.333-5.5,44-16.5s20-24.833,22-41.5H378
		C380,237.667,387.167,251.5,399.5,262.5z"/>
	<path d="M505,201l-53-74h28c4,0,7.167-1.333,9.5-4s3.5-5.667,3.5-9s-1.167-6.333-3.5-9s-5.5-4-9.5-4H328c-4.667-12-12-22.5-22-31.5
		S284.333,55,271,53V28V13c0-3.333-1.333-6.333-4-9s-5.667-4-9-4h-1h-2c-3.334,0-6.168,1.333-8.5,4c-2.333,2.667-3.5,5.667-3.5,9v15
		v25c-13.333,2-25.167,7.5-35.5,16.5S189.667,89,185,101H33c-3.333,0-6.333,1.333-9,4s-4,5.667-4,9s1.333,6.333,4,9s5.667,4,9,4h27
		L7,201H0v13h137v-13h-7l-53-74h104h9h11c0-2.667,0.333-5.667,1-9c0.667-1.333,1-2.333,1-3c2-10,6.667-18.667,14-26s16-12.333,26-15
		v98v43h-1c-0.667,25.333-6.667,49-18,71s-26.333,39.667-45,53h74h4h7h71c-19.333-13.333-34.667-31-46-53s-17.333-45.667-18-71v-43
		V74c9.334,2.667,17.668,7.667,25,15c7.333,7.333,12,16,14,26c0.667,0.667,1,1.667,1,3c0.667,3.333,1,6.333,1,9h11h10h102l-53,74h-7
		v14h137v-14H505z M63,201H20l43-59V201z M117,201H74v-59L117,201z M438,201h-43l43-59V201z M449,201v-59l43,59H449z"/>
	<path d="M68.5,96c3.667,0,6.667-1.167,9-3.5s3.5-5.333,3.5-9s-1.167-6.667-3.5-9s-5.333-3.5-9-3.5s-6.667,1.167-9,3.5
		s-3.5,5.333-3.5,9s1.167,6.667,3.5,9S64.833,96,68.5,96z"/>
	<path d="M443.5,96c3.667,0,6.667-1.333,9-4s3.5-5.667,3.5-9s-1.167-6.333-3.5-9s-5.333-4-9-4s-6.667,1.333-9,4s-3.5,5.667-3.5,9
		s1.167,6.333,3.5,9S439.833,96,443.5,96z"/>
</g>
</svg>
