<?xml version="1.0" encoding="utf-8"?>
<!-- Generator: Adobe Illustrator 16.0.4, SVG Export Plug-In . SVG Version: 6.00 Build 0)  -->
<!DOCTYPE svg PUBLIC "-//W3C//DTD SVG 1.1//EN" "http://www.w3.org/Graphics/SVG/1.1/DTD/svg11.dtd">
<svg version="1.1" id="Capa_1" xmlns="http://www.w3.org/2000/svg" xmlns:xlink="http://www.w3.org/1999/xlink" x="0px" y="0px"
	 width="276.5px" height="512px" viewBox="0 0 276.5 512" enable-background="new 0 0 276.5 512" xml:space="preserve">
<path d="M178,139c9.667,0,18-3.667,25-11s10.5-16.333,10.5-27S210,81.167,203,73.5S187.667,62,178,62s-18,3.833-25,11.5
	c-7,7.668-10.5,16.835-10.5,27.5c0,10.667,3.5,19.667,10.5,27S168.333,139,178,139z"/>
<path d="M275.5,476l-50-169V174c0-5.336-1.667-9.669-5-13c-3.333-3.333-6.667-5.333-10-6l-5-1h-54h-14c-5.333,3.333-10,6.667-14,10
	l-33,15l-41-45c-3.333-4.667-7.5-7.333-12.5-8s-9.5,0.833-13.5,4.5c-4,3.669-6.167,8.336-6.5,14c-0.333,5.669,1.167,10.836,4.5,15.5
	l52,57c4,4,8.667,6,14,6c1.333,0,1.667-0.333,1-1s-0.667-1.333,0-2l35-15v102l-53,169c-2,7.333-0.5,14.333,4.5,21
	s11.167,11.333,18.5,14c7.333,2,14.5,1,21.5-3s11.5-10,13.5-18l47-151l47,152c2,7.333,6.333,13,13,17s13.5,5,20.5,3
	s12.5-6.5,16.5-13.5S277.5,483.333,275.5,476z"/>
<path d="M12.5,179c2,2.667,4,2.667,6,0l1-1c2-2,2-4.333,0-7l-10-11c-2.667-2.667-5-2.667-7,0h-1c-2,2.667-2,5,0,7L12.5,179z"/>
<path d="M109.5,50l-60,71l7,8l67-63l45-45c2-2.667,3-5.667,3-9c0-3.341-1.167-6.174-3.5-8.5c-2.333-2.333-4.833-3.5-7.5-3.5
	c-3.333,0-6,1-8,3L109.5,50z"/>
</svg>
