<?xml version="1.0" encoding="utf-8"?>
<!-- Generator: Adobe Illustrator 16.0.4, SVG Export Plug-In . SVG Version: 6.00 Build 0)  -->
<!DOCTYPE svg PUBLIC "-//W3C//DTD SVG 1.1//EN" "http://www.w3.org/Graphics/SVG/1.1/DTD/svg11.dtd">
<svg version="1.1" id="Capa_1" xmlns="http://www.w3.org/2000/svg" xmlns:xlink="http://www.w3.org/1999/xlink" x="0px" y="0px"
	 width="512px" height="317px" viewBox="0 0 512 317" enable-background="new 0 0 512 317" xml:space="preserve">
<path d="M484.5,157.5C466.167,139.167,444.333,130,419,130c-12.667,0-25,2.333-37,7l-31-54l24-40c4-6.667,2.333-12-5-16
	c-4-2.667-6.333-4-7-4s-1.167-0.333-1.5-1l-0.5-1h-47c-2.667,0-5.167,1.667-7.5,5s-3.5,6.667-3.5,10s1.167,6.833,3.5,10.5
	s4.833,5.5,7.5,5.5h30l-13,20H195l27-51h11c7.333,0,11-3.5,11-10.5S240.333,0,233,0h-58c-8,0-12,3.5-12,10.5S167,21,175,21h20
	l-65,114c-10-4-22.333-6-37-6c-25.333,0-47.167,9.167-65.5,27.5S0,196.833,0,222.5s9.167,47.667,27.5,66s40.333,27.5,66,27.5
	s47.5-9.167,65.5-27.5s27-40.167,27-65.5c0-30.667-12-55.334-36-74l25-43l71,123l1,1c0,0.667,0.333,1,1,1v1c0.667,0,1,0.333,1,1h1
	c0.667,0,1,0.333,1,1h1h0.5h0.5h1c0.669,0.667,1.335,1,2,1v1h71c2.667,21.333,12.833,40.167,30.5,56.5S395.667,317,419,317
	c25.334,0,47.168-9.167,65.5-27.5c18.333-18.333,27.5-40.333,27.5-66S502.833,175.833,484.5,157.5z M163,223
	c0,19.333-6.833,35.833-20.5,49.5S112.333,293,93,293s-35.833-6.833-49.5-20.5S23,242.333,23,223s6.833-35.833,20.5-49.5
	S73.667,153,93,153c8.667,0,17,1.667,25,5l-35,59c-4,6.667-2.667,12,4,16c2,1.333,4,2,6,2c4.667,0,8-2,10-6l35-60
	C154.667,183,163,201,163,223z M374,173l25,42h-49C352.667,199,360.667,185,374,173z M195,93h122l-61,104L195,93z M276,215l61-106
	l25,43c-20.667,16.667-32.334,37.667-35,63H276z M468.5,273c-13.667,14-30.167,21-49.5,21c-16.667,0-31.667-5.667-45-17
	s-21.333-25-24-41h69v-1h1h1c0.667-0.667,1.333-1,2-1h1c0-0.667,0.167-1,0.5-1s0.833-0.333,1.5-1l1-1l0.5-0.5l1-1l0.5-0.5
	c0-0.667,0.167-1,0.5-1s0.5-0.333,0.5-1v-1v-1.5c0-0.333,0.167-0.667,0.5-1s0.333-0.667,0-1L430,222v-1v-1v-1c0-0.667-0.333-1-1-1
	v-1l-35-59c8-3.333,16.333-5,25-5c19.333,0,35.833,6.833,49.5,20.5S489,203.667,489,223S482.167,259,468.5,273z"/>
</svg>
