<?xml version="1.0" encoding="utf-8"?>
<!-- Generator: Adobe Illustrator 16.0.4, SVG Export Plug-In . SVG Version: 6.00 Build 0)  -->
<!DOCTYPE svg PUBLIC "-//W3C//DTD SVG 1.1//EN" "http://www.w3.org/Graphics/SVG/1.1/DTD/svg11.dtd">
<svg version="1.1" id="Capa_1" xmlns="http://www.w3.org/2000/svg" xmlns:xlink="http://www.w3.org/1999/xlink" x="0px" y="0px"
	 width="492px" height="492px" viewBox="0 0 492 492" enable-background="new 0 0 492 492" xml:space="preserve">
<rect x="113" width="92" height="72"/>
<path d="M305,295c-4.669,0-8.836-1.833-12.5-5.5c-3.667-3.667-5.5-7.834-5.5-12.5V92h145l60,255v15v113c0,4.667-1.667,8.667-5,12
	s-7,5-11,5H338c-6.667,0-10-5.667-10-17V297h-21L305,295z"/>
<path d="M187,296c4.667,0,8.834-1.833,12.5-5.5c3.667-3.667,5.5-7.834,5.5-12.5V92H60L0,347v16v113c0,4,1.667,7.667,5,11s7,5,11,5
	h137c7.333,0,11-5.333,11-16V297h21L187,296z"/>
<rect x="226" y="92" width="40" height="174"/>
<rect x="287" width="102" height="72"/>
</svg>
