<?xml version="1.0" encoding="utf-8"?>
<!-- Generator: Adobe Illustrator 16.0.4, SVG Export Plug-In . SVG Version: 6.00 Build 0)  -->
<!DOCTYPE svg PUBLIC "-//W3C//DTD SVG 1.1//EN" "http://www.w3.org/Graphics/SVG/1.1/DTD/svg11.dtd">
<svg version="1.1" id="Capa_1" xmlns="http://www.w3.org/2000/svg" xmlns:xlink="http://www.w3.org/1999/xlink" x="0px" y="0px"
	 width="408px" height="512px" viewBox="0 0 408 512" enable-background="new 0 0 408 512" xml:space="preserve">
<path d="M364.5,47.5C335.5,15.833,291,0,231,0H0v512h112V348h119c30.667,0,57.833-5.5,81.5-16.5s42.167-25.833,55.5-44.5
	s23.333-38.334,30-59c6.667-20.667,10-42,10-64C408,118,393.5,79.167,364.5,47.5z M273,230c-17.333,10.667-41.667,16-73,16h-88V92
	h88c31.334,0,55.667,5.333,73,16s26,31,26,61S290.333,219.333,273,230z"/>
</svg>
