<?xml version="1.0" encoding="utf-8"?>
<!-- Generator: Adobe Illustrator 16.0.4, SVG Export Plug-In . SVG Version: 6.00 Build 0)  -->
<!DOCTYPE svg PUBLIC "-//W3C//DTD SVG 1.1//EN" "http://www.w3.org/Graphics/SVG/1.1/DTD/svg11.dtd">
<svg version="1.1" id="Capa_1" xmlns="http://www.w3.org/2000/svg" xmlns:xlink="http://www.w3.org/1999/xlink" x="0px" y="0px"
	 width="450px" height="512px" viewBox="0 0 450 512" enable-background="new 0 0 450 512" xml:space="preserve">
<path d="M112,164c16,5.333,28.667,14.167,38,26.5s14,27.167,14,44.5v264c0,2,0.5,4.167,1.5,6.5s1.5,4,1.5,5s-1.333,1.5-4,1.5H12
	c-8,0-12-4.333-12-13V235c0-17.333,4.667-32.5,14-45.5S35.667,168,51,164V41h61V164z"/>
<rect x="51" width="61" height="20"/>
<path d="M330,49c-5.333-0.667-8-3.667-8-9c0-3.333,1.667-6,5-8c-3.333-2-5-5.333-5-10c0-2.667,1-5.333,3-8s4-4,6-4h48
	c2.667,0,5,1.333,7,4c2,2.67,3,5.337,3,8c0,4-1.667,7-5,9c3.333,2,5,4.667,5,8c0,6-2.667,9.333-8,10l61,149c5.333,15.333,8,26,8,32
	v262c0,13.333-3.333,20-10,20H286c-6.667,0-10-5.667-10-17v-3V225c0-8,2-17,6-27L330,49z"/>
</svg>
