<?xml version="1.0" encoding="utf-8"?>
<!-- Generator: Adobe Illustrator 16.0.4, SVG Export Plug-In . SVG Version: 6.00 Build 0)  -->
<!DOCTYPE svg PUBLIC "-//W3C//DTD SVG 1.1//EN" "http://www.w3.org/Graphics/SVG/1.1/DTD/svg11.dtd">
<svg version="1.1" id="Capa_1" xmlns="http://www.w3.org/2000/svg" xmlns:xlink="http://www.w3.org/1999/xlink" x="0px" y="0px"
	 width="492px" height="328px" viewBox="0 0 492 328" enable-background="new 0 0 492 328" xml:space="preserve">
<g>
	<path d="M424,271c-10.667,0-20.667,2.333-30,7c-10,4-20,6-30,6s-20-2-30-6c-10-4.667-20.333-7-31-7s-20.667,2.333-30,7
		c-10,4-20.167,6-30.5,6s-20.167-2-29.5-6c-10-4.667-20.333-7-31-7s-21,2.333-31,7c-9.333,4-19.167,6-29.5,6s-20.167-2-29.5-6
		c-10-4.667-20.333-7-31-7s-21,2.333-31,7c-9.333,4-19.333,6-30,6v44c10.667,0,20.667-2,30-6c10-4.667,20.333-7,31-7s21,2.333,31,7
		c9.333,4,19.167,6,29.5,6s20.166-2,29.5-6c10-4.667,20.333-7,31-7s21,2.333,31,7c9.333,4,19.166,6,29.5,6c10.333,0,20.167-2,29.5-6
		c10-4.667,20.333-7,31-7s21,2.333,31,7c9.333,4,19.167,6,29.5,6s20.167-2,29.5-6c10-4.667,20.333-7,31-7c10,0,20,2.333,30,7
		c9.333,4,18.667,6,28,6v-44c-9.332,0-18.665-2-28-6C444,273.333,434,271,424,271z"/>
	<path d="M61,231c10.667,0,21,2,31,6c9.333,4,19.333,6,30,6c10,0,19.667-2,29-6c10-4.667,20.333-7,31-7s21,2.333,31,7
		c9.333,4,19.167,6,29.5,6c10.334,0,20.168-2,29.5-6c10-4.667,20.333-7,31-7s21,2.333,31,7c9.333,4,19.333,6,30,6l9-1
		c9.336-2,14.67-3,16-3v-1c32-12.667,62.667-39,92-79l11-15H1L0,245c9.333,0,19.333-2.333,30-7S51,231,61,231z"/>
	<path d="M385,24c-4-8-9.5-13.833-16.5-17.5S355,0.667,349,0h-8H0v123h427L385,24z M82,96c0,4.667-3,7-9,7H34
		c-8.667,0-13-2.333-13-7V38c0-4.667,4.333-7,13-7h39c6,0,9,2.333,9,7V96z M164,96c0,4.667-3,7-9,7h-39c-8.667,0-13-2.333-13-7V38
		c0-4.667,4.333-7,13-7h39c6,0,9,2.333,9,7V96z M246,96c0,4.667-3,7-9,7h-40c-8,0-12-2.333-12-7V38c0-4.667,4-7,12-7h40
		c6,0,9,2.333,9,7V96z M275,31h71h1c14,0,22.667,3.667,26,11l27,61h-93L275,31z"/>
</g>
</svg>
