<?xml version="1.0" encoding="utf-8"?>
<!-- Generator: Adobe Illustrator 16.0.4, SVG Export Plug-In . SVG Version: 6.00 Build 0)  -->
<!DOCTYPE svg PUBLIC "-//W3C//DTD SVG 1.1//EN" "http://www.w3.org/Graphics/SVG/1.1/DTD/svg11.dtd">
<svg version="1.1" id="Capa_1" xmlns="http://www.w3.org/2000/svg" xmlns:xlink="http://www.w3.org/1999/xlink" x="0px" y="0px"
	 width="492px" height="379px" viewBox="0 0 492 379" enable-background="new 0 0 492 379" xml:space="preserve">
<g>
	<path d="M88,69.5c5.333,9.667,15.167,19.667,29.5,30S150,118,172,124l297,83l22-81L194,43l54-38l-19-5l-54,39L77,12l-1,8
		c-0.667,5.333-0.167,12.5,1.5,21.5S82.667,59.833,88,69.5z"/>
	<path d="M338,218l128,36l4-17l-136-38C336,205,337.333,211.333,338,218z"/>
	<path d="M227,170L0,107v18l214,59C218,178.667,222.333,174,227,170z"/>
	<path d="M491,334l-226-62c0.667,0,1.5,0.167,2.5,0.5s1.833,0.5,2.5,0.5c14,0,26-5,36-15s15-22,15-36s-5-26-15-36s-22-15-36-15
		s-26,4.833-36,14.5c-10,9.666-15,21.833-15,36.5c0,21.333,9.667,36.667,29,46L0,199l1,180c10.667,0,20.667-2,30-6
		c10-4.667,20.333-7,31-7s21,2.333,31,7c10,4,20.167,6,30.5,6s20.5-2,30.5-6c10-4.667,20.333-7,31-7s21,2.333,31,7
		c10,4,20.167,6,30.5,6s20.5-2,30.5-6c10-4.667,20.333-7,31-7s21,2.333,31,7c9.333,4,19.333,6,30,6s20.667-2,30-6
		c10-4.667,20.333-7,31-7c10.666,0,21.332,2.333,32,7c9.333,4,19.333,6,30,6L491,334z M248,221.5c0-6.333,2.167-11.5,6.5-15.5
		s9.5-6,15.5-6s11.167,2,15.5,6s6.5,9.167,6.5,15.5s-2.167,11.667-6.5,16S276,244,270,244s-11.167-2.167-15.5-6.5
		S248,227.834,248,221.5z"/>
</g>
</svg>
