<?xml version="1.0" encoding="utf-8"?>
<!-- Generator: Adobe Illustrator 16.0.4, SVG Export Plug-In . SVG Version: 6.00 Build 0)  -->
<!DOCTYPE svg PUBLIC "-//W3C//DTD SVG 1.1//EN" "http://www.w3.org/Graphics/SVG/1.1/DTD/svg11.dtd">
<svg version="1.1" id="Capa_1" xmlns="http://www.w3.org/2000/svg" xmlns:xlink="http://www.w3.org/1999/xlink" x="0px" y="0px"
	 width="450px" height="492px" viewBox="0 0 450 492" enable-background="new 0 0 450 492" xml:space="preserve">
<path d="M450,492c-9.333,0-18.333-2-27-6c-9.333-4.667-19-7-29-7s-19.667,2.333-29,7c-8.668,4-17.835,6-27.5,6
	c-9.668,0-18.835-2-27.5-6c-9.333-4.667-18.833-7-28.5-7s-19.167,2.333-28.5,7c-9.333,4-18.667,6-28,6c-9.334,0-18.667-2-28-6
	c-8.667-4.667-18-7-28-7s-19.667,2.333-29,7c-8.667,4-17.833,6-27.5,6s-18.833-2-27.5-6c-9.333-4.667-19-7-29-7s-19.667,2.333-29,7
	c-8.667,4-17.667,6-27,6v-42c9.333,0,18.333-2,27-6c9.333-4.667,19-7,29-7s19.667,2.333,29,7c8.667,4,17.833,6,27.5,6
	s18.834-2,27.5-6c9.333-4.667,18.833-7,28.5-7s19.167,2.333,28.5,7c9.333,4,18.667,6,28,6c9.334,0,18.668-2,28-6
	c9.333-4.667,18.833-7,28.5-7s19.167,2.333,28.5,7c8.667,4,17.833,6,27.5,6s18.833-2,27.5-6c9.333-4.667,19-7,29-7
	s19.667,2.333,29,7c8.667,4,17.667,6,27,6V492z"/>
<polygon points="266,0 266,318 13,318 "/>
<path d="M297,73c0,6,5.5,15.167,16.5,27.5s24.167,26.333,39.5,42c15.334,15.667,30.667,32.334,46,50
	c15.335,17.667,27.668,37.667,37,60c9.333,22.334,13,44.167,11,65.5H297V73z"/>
<path d="M415,338h-70H71v64c4,0,8.333,1.333,13,4c8.667,3.333,17.833,5,27.5,5s19.167-1.667,28.5-5c9.333-4.667,19-7,29-7
	s19.333,2.333,28,7c9.333,3.333,18.667,5,28,5c9.334,0,18.668-1.667,28-5c9.333-4.667,18.833-7,28.5-7s19.167,2.333,28.5,7
	c8.667,3.333,18,5,28,5h5h1l1-0.5c0.667-0.333,1.333-0.5,2-0.5c4,0,6.333-0.333,7-1c6-1.333,11.667-3.667,17-7s9.333-6.333,12-9l4-4
	l39-51H415z"/>
</svg>
