<?xml version="1.0" encoding="utf-8"?>
<!-- Generator: Adobe Illustrator 16.0.4, SVG Export Plug-In . SVG Version: 6.00 Build 0)  -->
<!DOCTYPE svg PUBLIC "-//W3C//DTD SVG 1.1//EN" "http://www.w3.org/Graphics/SVG/1.1/DTD/svg11.dtd">
<svg version="1.1" id="Capa_1" xmlns="http://www.w3.org/2000/svg" xmlns:xlink="http://www.w3.org/1999/xlink" x="0px" y="0px"
	 width="348.932px" height="492px" viewBox="0 0 348.932 492" enable-background="new 0 0 348.932 492" xml:space="preserve">
<path d="M241.167,299c-12.667-32-25.334-63.333-38-94c0-2-0.333-4.833-1-8.5c-0.671-3.667-1.338-11.333-2-23
	c-0.667-11.667,0-22.5,2-32.5c1.333-4.667,2.5-10,3.5-16s2.333-17.167,4-33.5s1.167-27.5-1.5-33.5c-7.333-14.667-19-22.667-35-24
	c-2.667,0-5.833,0.5-9.5,1.5s-9,4.333-16,10s-11.5,13.167-13.5,22.5c-0.667,12,0.667,25,4,39c1.333,5.333,2.833,12.333,4.5,21
	s2.5,23.167,2.5,43.5s-3,37.167-9,50.5c-18.667,38.667-28.667,62.667-30,72c-0.667,4-1.333,9.333-2,16s-1.5,19.5-2.5,38.5
	s0.5,33.833,4.5,44.5c14.667,48,27,79.667,37,95c21.333,5.333,41.333,5.333,60,0c22-36,35-70,39-102c0.667,0,1.5-4.5,2.5-13.5
	s1.333-20.833,1-35.5S243.834,309.667,241.167,299z"/>
<path d="M344.167,265c-12.667-32-25.334-63.333-38-94c-0.667-2-1.167-4.833-1.5-8.5s-0.833-11.333-1.5-23
	c-0.655-11.667-0.321-22.5,1-32.5c1.333-4,2.5-9.167,3.5-15.5c1-6.334,2.5-17.667,4.5-34s1.333-27.5-2-33.5
	c-7.333-14.667-19-22.667-35-24c-2,0.674-4.833,1.34-8.5,2c-3.667,0.67-9,3.837-16,9.5c-7,5.667-11.5,13.167-13.5,22.5
	c-1.333,12-0.333,25,3,39c1.333,5.333,2.833,12.333,4.5,21s2.667,23.167,3,43.5s-2.5,37.167-8.5,50.5
	c-3.333,6.667-6.667,13.667-10,21l34,85v1l1,1c6,24.667,6.333,55,1,91c-2.668,19.333-9.335,41-20,65c0,1.333,0.333,2,1,2
	c21.333,6,41,6,59,0c22-36,35.333-70,40-102C350.5,318,350.167,289,344.167,265z"/>
<path d="M115.167,218c0.667-2.002,1.667-4.669,3-8c-2-4.667-4.833-11.5-8.5-20.5s-6.167-15.167-7.5-18.5
	c-0.667-2-1.167-4.833-1.5-8.5s-0.834-11.167-1.5-22.5s0-22.333,2-33c0.667-4,1.5-9.167,2.5-15.5c1-6.334,2.5-17.667,4.5-34
	c2-16.335,1.333-27.168-2-32.5C98.834,9.665,87.5,1.332,72.167,0c-2.667,0.674-5.833,1.34-9.5,2c-3.667,0.67-9,3.837-16,9.5
	c-7,5.667-11.5,13.167-13.5,22.5c-1.333,12.667-0.333,26,3,40c2,4.668,3.667,11.335,5,20c1.335,8.667,2.169,23.167,2.5,43.5
	c0.333,20.333-2.5,37.5-8.5,51.5c-18.667,38.667-28.667,62.333-30,71c-1.333,4.667-2.333,10.167-3,16.5s-1.333,19-2,38
	s0.667,33.833,4,44.5c14.667,48,27.333,80,38,96c21.333,5.333,41,5,59-1c0.667-0.667,1.334-1.667,2-3c-8-20.667-14.333-39.333-19-56
	c-7.333-29.333-7.333-63.667,0-103C86.167,282,96.5,257.333,115.167,218z"/>
</svg>
