<?xml version="1.0" encoding="utf-8"?>
<!-- Generator: Adobe Illustrator 16.0.4, SVG Export Plug-In . SVG Version: 6.00 Build 0)  -->
<!DOCTYPE svg PUBLIC "-//W3C//DTD SVG 1.1//EN" "http://www.w3.org/Graphics/SVG/1.1/DTD/svg11.dtd">
<svg version="1.1" id="Capa_1" xmlns="http://www.w3.org/2000/svg" xmlns:xlink="http://www.w3.org/1999/xlink" x="0px" y="0px"
	 width="438.096px" height="504px" viewBox="0 0 438.096 504" enable-background="new 0 0 438.096 504" xml:space="preserve">
<g>
	<path d="M68,446c9.333-4.667,14-11.667,14-21c0-16.667-10.667-25-32-25H0v102h51c10,0,18.5-2.667,25.5-8S87,481.333,87,472
		C87,458,80.667,449.333,68,446z M20,420h26c10,0,15,3.333,15,10c0,7.333-4.667,11-14,11H20V420z M49,482H20v-31h29
		c10.667,0,16,5.333,16,16C65,477,59.667,482,49,482z"/>
	<path d="M148,426c-13.333,0-21.667,5-25,15v-11h-21v72h21v-34c0-6.667,1.833-12.167,5.5-16.5s8.833-6.5,15.5-6.5h2.5h7.5v-18
		C154,426.333,152,426,148,426z"/>
	<path d="M227,495.5c-1.334-4.333-2-8.167-2-11.5v-37c0-14-10-21-30-21c-21.333,0-32.333,8.333-33,25h20c0.667-7.333,5-11,13-11
		c8.667,0,13,3,13,9c0,1.333-0.333,2.333-1,3l-2,2c-0.667,0.667-1.5,1.167-2.5,1.5s-2.333,0.667-4,1s-3,0.667-4,1s-2.667,0.5-5,0.5
		s-4.167,0.333-5.5,1c-16,2-24,9.333-24,22c0,14,8,21,24,21c10.667,0,18.667-2.667,24-8c0.667,5.333,1.333,8,2,8h20
		C229.332,502,228.332,499.833,227,495.5z M205,472c0,11.333-5,17-15,17c-7.333,0-11-3-11-9s3.667-9.667,11-11c10-2,15-3.333,15-4
		V472z"/>
	<rect x="248" y="401" width="20" height="16"/>
	<rect x="246" y="430" width="20" height="72"/>
	<rect x="287" y="400" width="20" height="102"/>
	<rect x="328" y="400" width="20" height="102"/>
	<path d="M429.5,441.5c-6.332-9-15.166-13.5-26.5-13.5c-10.668,0-19.5,3.5-26.5,10.5S366,454.333,366,465
		c0,11.333,3.332,20.667,10,28c6.666,7.333,15.666,11,27,11c14,0,25.332-7.333,34-22h-18l-2.5,2c-1.668,1.333-3.668,2.667-6,4
		c-2.334,1.333-4.5,2-6.5,2c-11.334,0-17.334-6.333-18-19h52C438.67,460.333,435.836,450.5,429.5,441.5z M386,461
		c0-10,5.332-15,16-15c8.666,0,14,5,16,15H386z"/>
	<path d="M107.5,359c9.667,0,18-3.5,25-10.5S143,333,143,323s-3.5-18.5-10.5-25.5s-15.333-10.5-25-10.5s-18,3.5-25,10.5
		S72,313,72,323s3.5,18.5,10.5,25.5S97.833,359,107.5,359z"/>
	<path d="M107.5,215c9.667,0,18-3.5,25-10.5s10.5-15.333,10.5-25s-3.5-18-10.5-25s-15.333-10.5-25-10.5s-18,3.5-25,10.5
		S72,169.833,72,179.5s3.5,18,10.5,25S97.833,215,107.5,215z"/>
	<path d="M107.5,72c9.667,0,18-3.5,25-10.5S143,46,143,36s-3.5-18.5-10.5-25.5S117.167,0,107.5,0s-18,3.5-25,10.5S72,26,72,36
		s3.5,18.5,10.5,25.5S97.833,72,107.5,72z"/>
	<path d="M322.5,287c-9.668,0-18,3.5-25,10.5S287,313,287,323s3.5,18.5,10.5,25.5s15.332,10.5,25,10.5c9.666,0,18-3.5,25-10.5
		S358,333,358,323s-3.5-18.5-10.5-25.5S332.166,287,322.5,287z"/>
	<path d="M322.5,144c-9.668,0-18,3.5-25,10.5s-10.5,15.333-10.5,25s3.5,18,10.5,25s15.332,10.5,25,10.5c9.666,0,18-3.5,25-10.5
		s10.5-15.333,10.5-25s-3.5-18-10.5-25S332.166,144,322.5,144z"/>
	<path d="M322.5,0c-9.668,0-18,3.5-25,10.5S287,26,287,36s3.5,18.5,10.5,25.5s15.332,10.5,25,10.5c9.666,0,18-3.5,25-10.5
		S358,46,358,36s-3.5-18.5-10.5-25.5S332.166,0,322.5,0z"/>
</g>
</svg>
