<?xml version="1.0" encoding="utf-8"?>
<!-- Generator: Adobe Illustrator 16.0.4, SVG Export Plug-In . SVG Version: 6.00 Build 0)  -->
<!DOCTYPE svg PUBLIC "-//W3C//DTD SVG 1.1//EN" "http://www.w3.org/Graphics/SVG/1.1/DTD/svg11.dtd">
<svg version="1.1" id="Capa_1" xmlns="http://www.w3.org/2000/svg" xmlns:xlink="http://www.w3.org/1999/xlink" x="0px" y="0px"
	 width="410px" height="492px" viewBox="0 0 410 492" enable-background="new 0 0 410 492" xml:space="preserve">
<path d="M398,12c-8-8-17.667-12-29-12H41C29.667,0,20,4,12,12S0,29.667,0,41v410c0,11.333,4,21,12,29s17.667,12,29,12h328
	c11.333,0,21-4,29-12s12-17.667,12-29V41C410,29.667,406,20,398,12z M123,410c0,5.333-2,10-6,14s-8.667,6-14,6H62c-6,0-11-2-15-6
	s-6-8.667-6-14v-10c0-6,2-11,6-15s9-6,15-6h41c5.333,0,10,2,14,6s6,9,6,15V410z M123,328c0,5.333-2,10-6,14s-8.667,6-14,6H62
	c-6,0-11-2-15-6s-6-8.667-6-14v-10c0-6,2-11,6-15s9-6,15-6h41c5.333,0,10,2,14,6s6,9,6,15V328z M123,246c0,5.333-2,10-6,14
	s-8.667,6-14,6H62c-6,0-11-2-15-6s-6-8.667-6-14v-10c0-6,2-11,6-15s9-6,15-6h41c5.333,0,10,2,14,6s6,9,6,15V246z M246,410
	c0,5.333-2,10-6,14s-9,6-15,6h-40c-6,0-11-2-15-6s-6-8.667-6-14v-10c0-6,2-11,6-15s9-6,15-6h40c6,0,11,2,15,6s6,9,6,15V410z
	 M246,328c0,5.333-2,10-6,14s-9,6-15,6h-40c-6,0-11-2-15-6s-6-8.667-6-14v-10c0-6,2-11,6-15s9-6,15-6h40c6,0,11,2,15,6s6,9,6,15V328
	z M246,246c0,5.333-2,10-6,14s-9,6-15,6h-40c-6,0-11-2-15-6s-6-8.667-6-14v-10c0-6,2-11,6-15s9-6,15-6h40c6,0,11,2,15,6s6,9,6,15
	V246z M369,410c0,5.333-2,10-6,14s-9,6-15,6h-41c-5.333,0-10-2-14-6s-6-8.667-6-14v-10c0-6,2-11,6-15s8.667-6,14-6h41c6,0,11,2,15,6
	s6,9,6,15V410z M369,328c0,5.333-2,10-6,14s-9,6-15,6h-41c-5.333,0-10-2-14-6s-6-8.667-6-14v-10c0-6,2-11,6-15s8.667-6,14-6h41
	c6,0,11,2,15,6s6,9,6,15V328z M369,246c0,5.333-2,10-6,14s-9,6-15,6h-41c-5.333,0-10-2-14-6s-6-8.667-6-14v-10c0-6,2-11,6-15
	s8.667-6,14-6h41c6,0,11,2,15,6s6,9,6,15V246z M369,154c0,5.333-2,10-6,14s-9,6-15,6H62c-6,0-11-2-15-6s-6-8.667-6-14V72
	c0-6,2-11,6-15s9-6,15-6h286c6,0,11,2,15,6s6,9,6,15V154z"/>
</svg>
