<?xml version="1.0" encoding="utf-8"?>
<!-- Generator: Adobe Illustrator 16.0.4, SVG Export Plug-In . SVG Version: 6.00 Build 0)  -->
<!DOCTYPE svg PUBLIC "-//W3C//DTD SVG 1.1//EN" "http://www.w3.org/Graphics/SVG/1.1/DTD/svg11.dtd">
<svg version="1.1" id="Capa_1" xmlns="http://www.w3.org/2000/svg" xmlns:xlink="http://www.w3.org/1999/xlink" x="0px" y="0px"
	 width="492px" height="492px" viewBox="0 0 492 492" enable-background="new 0 0 492 492" xml:space="preserve">
<g>
	<path d="M474,141c-12-12-26.667-18-44-18L380,21c-4.668-14-14.335-21-29-21h-85c-14.667,0-24.333,7-29,21l-52,102H62
		c-17.333,0-32,6-44,18S0,167.667,0,185v307h492V185C492,167.667,486,153,474,141z M114,237c-6,6-13.167,9-21.5,9S77,243,71,237
		s-9-13.167-9-21.5s3-15.5,9-21.5s13.167-9,21.5-9s15.5,3,21.5,9s9,13.167,9,21.5S120,231,114,237z M394,394
		c-24,24-52.833,36-86.5,36S245,418,221,394s-36-52.833-36-86.5s12-62.5,36-86.5s52.833-36,86.5-36s62.5,12,86.5,36
		s36,52.833,36,86.5S418,370,394,394z"/>
	<path d="M307.5,246c-17,0-31.5,6-43.5,18s-18,26.5-18,43.5s6,31.5,18,43.5s26.5,18,43.5,18s31.5-6,43.5-18s18-26.5,18-43.5
		s-6-31.5-18-43.5S324.5,246,307.5,246z"/>
</g>
</svg>
