<?xml version="1.0" encoding="utf-8"?>
<!-- Generator: Adobe Illustrator 16.0.4, SVG Export Plug-In . SVG Version: 6.00 Build 0)  -->
<!DOCTYPE svg PUBLIC "-//W3C//DTD SVG 1.1//EN" "http://www.w3.org/Graphics/SVG/1.1/DTD/svg11.dtd">
<svg version="1.1" id="Capa_1" xmlns="http://www.w3.org/2000/svg" xmlns:xlink="http://www.w3.org/1999/xlink" x="0px" y="0px"
	 width="492px" height="369px" viewBox="0 0 492 369" enable-background="new 0 0 492 369" xml:space="preserve">
<path d="M484,324c-5.333-5.333-12-8-20-8h-34L269,14c-5.333-9.333-13-14-23-14s-17.667,4.667-23,14L62,316H28
	c-8,0-14.667,2.667-20,8s-8,11.667-8,19s2.667,13.5,8,18.5s12,7.5,20,7.5h50h336h50c8,0,14.667-2.5,20-7.5s8-11.167,8-18.5
	C492,335.666,489.333,329.333,484,324z M155,316l91-184l91,184H155z"/>
</svg>
