<?xml version="1.0" encoding="utf-8"?>
<!-- Generator: Adobe Illustrator 16.0.4, SVG Export Plug-In . SVG Version: 6.00 Build 0)  -->
<!DOCTYPE svg PUBLIC "-//W3C//DTD SVG 1.1//EN" "http://www.w3.org/Graphics/SVG/1.1/DTD/svg11.dtd">
<svg version="1.1" id="Capa_1" xmlns="http://www.w3.org/2000/svg" xmlns:xlink="http://www.w3.org/1999/xlink" x="0px" y="0px"
	 width="492px" height="429px" viewBox="0 0 492 429" enable-background="new 0 0 492 429" xml:space="preserve">
<g>
	<path d="M246,49c0,0.337-0.015,0.667-0.022,1H246V49z"/>
	<path d="M210,50l-5,10c-4,6.667-10.667,10-20,10h-13c8.667,12.667,19.667,19,33,19c11.333,0,21-3.833,29-11.5
		c7.762-7.439,11.747-16.609,11.978-27.5H212H210z"/>
	<path d="M157,60h28c5.333,0,8.667-1.667,10-5l6-10c1.333-3.333,5-5,11-5h43c-3.333-10.667-9.5-20-18.5-28S217,0,205,0
		c-14,0-25.833,4.667-35.5,14S155,35,155,49C155,56.333,155.667,60,157,60z"/>
	<path d="M416.5,275c36.333-6.667,60.5-15.667,72.5-27c-6-18-19.5-28.667-40.5-32s-42.5,0-64.5,10c-6.667,3.333-16.667,6-30,8l-9-35
		c8.667-4.001,12.667-10.668,12-20c0-6-2.167-11-6.5-15s-9.5-5.667-15.5-5l-7-26c7.333-5.335,10-12.668,8-22
		c-1.333-5.336-4.5-9.669-9.5-13c-5-3.333-10.167-4.333-15.5-3c-62.667,0.667-104,3.667-124,9c-8.667,2-16.167,7.833-22.5,17.5
		S153.667,140,151,148l-3,13l-26,83H0v41h325C349.667,285,380.167,281.667,416.5,275z M240,140l73-3l6,22
		c-26.667,1.333-55.333,3-86,5L240,140z M220,207l110-5l9,35c-33.333,4.667-76.667,7-130,7L220,207z"/>
	<path d="M425,333c2,0,4.5-0.167,7.5-0.5s8.333-1.833,16-4.5s14.333-6,20-10s11-10.5,16-19.5S492,279,492,267
		c0-1.333-0.333-3.667-1-7c-17.333,12.667-44.667,21.833-82,27.5s-65.333,8.5-84,8.5H0v50c8,0,15.667-1.667,23-5
		c12-5.333,24.5-8,37.5-8s25.5,2.667,37.5,8c7.333,3.333,15.167,5,23.5,5s16.167-1.667,23.5-5c12-5.333,24.333-8,37-8
		c13.333,0,26,2.667,38,8c7.333,3.333,15,5,23,5s15.667-1.667,23-5c12-5.333,24.5-8,37.5-8s25.5,2.667,37.5,8c7.333,3.333,15,5,23,5
		h2h1l10,37c-4.667,0.667-9,1-13,1c-10,0-20-2-30-6c-9.333-4.667-19.5-7-30.5-7s-21.167,2.333-30.5,7c-9.333,4-19.333,6-30,6
		s-20.667-2-30-6c-10-4.667-20.333-7-31-7s-21,2.333-31,7c-9.334,4-19.167,6-29.5,6s-20.167-2-29.5-6c-10-4.667-20.333-7-31-7
		s-21,2.333-31,7c-9.333,4-19.333,6-30,6v45c10.667,0,20.667-2.333,30-7c10-4,20.333-6,31-6s21,2,31,6c9.333,4.667,19.167,7,29.5,7
		s20.167-2.333,29.5-7c10-4,20.333-6,31-6s21,2,31,6c9.333,4.667,19.333,7,30,7s20.667-2.333,30-7c10-4,20.333-6,31-6s20.667,2,30,6
		c10,4.667,20.167,7,30.5,7c10.335,0,20.168-2.333,29.5-7c10-4,20.333-6,31-6c9.333,0,19,2,29,6c9.335,4.667,18.668,7,28,7v-45
		c-9.333,0-18.667-2-28-6c-10-4.667-20-7-30-7c-10.667,0-20.667,2.333-30,7c-1.333,0-2,0.333-2,1l-9-36c2-0.667,3.667-1.333,5-2
		C400,335.667,412.333,333,425,333z"/>
</g>
</svg>
