<?xml version="1.0" encoding="utf-8"?>
<!-- Generator: Adobe Illustrator 16.0.4, SVG Export Plug-In . SVG Version: 6.00 Build 0)  -->
<!DOCTYPE svg PUBLIC "-//W3C//DTD SVG 1.1//EN" "http://www.w3.org/Graphics/SVG/1.1/DTD/svg11.dtd">
<svg version="1.1" id="Capa_1" xmlns="http://www.w3.org/2000/svg" xmlns:xlink="http://www.w3.org/1999/xlink" x="0px" y="0px"
	 width="492px" height="430px" viewBox="0 0 492 430" enable-background="new 0 0 492 430" xml:space="preserve">
<path d="M168.5,91c12.333,0,23-4.5,32-13.5s13.5-19.667,13.5-32s-4.5-23-13.5-32S180.833,0,168.5,0s-23,4.5-32,13.5
	S123,33.167,123,45.5s4.5,23,13.5,32S156.167,91,168.5,91z"/>
<path d="M0,340c10.667,0,20.667-2.333,30-7c10-4.667,20.5-7,31.5-7s21.5,2.333,31.5,7c9.333,4.667,19.333,7,30,7s20.667-2.333,30-7
	c10-4.667,20.667-7,32-7c10.667,0,21,2.333,31,7c9.333,4.667,19.333,7,30,7s20.667-2.333,30-7c10-4.667,20.5-7,31.5-7
	s21.5,2.333,31.5,7c9.333,4.667,19.333,7,30,7s20.667-2.333,30-7c10-4.667,20.333-7,31-7c9.333,0,18.333,1.667,27,5
	c14.667-16,22-34.667,22-56c0-22.667-8-42.167-24-58.5S419.333,192,396,192l-9,1c-3.333,12.667-9.167,22.5-17.5,29.5
	S353.333,233.667,346,235l-11,1H146l-16-9l38-64l42,24c8,4.667,14.833,6.5,20.5,5.5s10.167-3.167,13.5-6.5l4-5l42-69
	c6-9.333,6.833-17.833,2.5-25.5s-10.667-11.333-19-11S257.667,80.333,251,89l-29,48l-70-39c-16-7.339-29-9.672-39-7
	c-10,2.669-17.667,7.336-23,14l-7,11l-55,93c-2.667,6-4,11.333-4,16s0.5,7.833,1.5,9.5L27,237H0V340z"/>
<path d="M492,430c-10.667,0-20.667-2-30-6c-10-4.667-20.5-7-31.5-7s-21.5,2.333-31.5,7c-9.333,4-19.333,6-30,6s-20.667-2-30-6
	c-10-4.667-20.5-7-31.5-7s-21.5,2.333-31.5,7c-9.333,4-19.333,6-30,6s-20.667-2-30-6c-10-4.667-20.333-7-31-7
	c-11.333,0-22,2.333-32,7c-9.333,4-19.333,6-30,6s-20.667-2-30-6c-10-4.667-20.5-7-31.5-7S40,419.333,30,424c-9.333,4-19.333,6-30,6
	v-45c10.667,0,20.667-2.333,30-7c10-4.667,20.5-7,31.5-7s21.5,2.333,31.5,7s20.167,7,30.5,7s20.167-2.333,29.5-7
	c10-4.667,20.667-7,32-7c10.667,0,21,2.333,31,7c9.333,4.667,19.333,7,30,7s20.667-2.333,30-7c10-4.667,20.5-7,31.5-7
	s21.5,2.333,31.5,7c9.333,4.667,19.333,7,30,7s20.667-2.333,30-7c10-4.667,20.333-7,31-7s21.333,2.333,32,7
	c9.333,4.667,19.333,7,30,7V430z"/>
</svg>
