<?xml version="1.0" encoding="utf-8"?>
<!-- Generator: Adobe Illustrator 16.0.4, SVG Export Plug-In . SVG Version: 6.00 Build 0)  -->
<!DOCTYPE svg PUBLIC "-//W3C//DTD SVG 1.1//EN" "http://www.w3.org/Graphics/SVG/1.1/DTD/svg11.dtd">
<svg version="1.1" id="Capa_1" xmlns="http://www.w3.org/2000/svg" xmlns:xlink="http://www.w3.org/1999/xlink" x="0px" y="0px"
	 width="400px" height="509px" viewBox="0 0 400 509" enable-background="new 0 0 400 509" xml:space="preserve">
<g>
	<polygon points="359,113 359,111 357,113 	"/>
	<path d="M36,141.5C52.667,157.167,72.667,165,96,165c17.333,0,33.167-5.167,47.5-15.5S168.333,126,175,110h28l20-21l21,21h13l20-21
		l20,21h13l21-21l20,21h8v1l38-38l-38-35H165C145.667,12.667,122.667,0,96,0C72.667,0,52.667,8,36,24S11,59.667,11,83
		S19.333,125.833,36,141.5z M51,63.5c4.667-5,10.5-7.5,17.5-7.5s12.833,2.5,17.5,7.5s7,10.833,7,17.5s-2.333,12.5-7,17.5
		S75.5,106,68.5,106s-12.833-2.5-17.5-7.5S44,87.667,44,81S46.333,68.5,51,63.5z"/>
	<path d="M394,310c-4-4-9-6-15-6h-5l-63-114c-3.333-6-8.333-9-15-9H105c-7.334,0-12.667,3-16,9L27,304h-6c-6,0-11,2-15,6s-6,9-6,15
		v102c0,6,2,11,6,15s9,6,15,6h20v30c0,8.667,3,16,9,22s13.333,9,22,9h10c8.667,0,16-3,22-9s9-13.333,9-22v-30h174v30
		c0,8.667,3,16,9,22s13.333,9,22,9h10c8.667,0,16-3,22-9s9-13.333,9-22v-30h20c6,0,11-2,15-6s6-9,6-15V325C400,319,398,314,394,310z
		 M74.5,378.5c-5,5-11,7.5-18,7.5s-13-2.5-18-7.5s-7.5-11-7.5-18s2.5-13,7.5-18s11-7.5,18-7.5s13,2.5,18,7.5s7.5,11,7.5,18
		S79.5,373.5,74.5,378.5z M77,304l42-83c2.667-6,7.667-9,15-9h133c6.667,0,11.333,3,14,9l42,83H77z M361.5,378.5c-5,5-11,7.5-18,7.5
		s-13-2.5-18-7.5s-7.5-11-7.5-18s2.5-13,7.5-18s11-7.5,18-7.5s13,2.5,18,7.5s7.5,11,7.5,18S366.5,373.5,361.5,378.5z"/>
</g>
</svg>
