<svg width="492" xmlns="http://www.w3.org/2000/svg" height="471.5" viewBox="0 0 492 471.5" xmlns:xlink="http://www.w3.org/1999/xlink" enable-background="new 0 0 492 471.5">
<path d="m399,267.5c5.333,2.667 9.5,2.5 12.5-.5s1.5-5.833-4.5-8.5l-84-39c-5.333-2.667-11.333-3-18-1l-29,9c-6.669,2-11.835,3-15.5,3-3.667,0-5.5-3.333-5.5-10v-91c0-6 3.333-9 10-9h217c6.667,0 10-3.333 10-10v-31c0-6-3-10-9-12l-229-66c-6-2-12.333-2-19,0l-226,66c-6,2-9,6-9,12v31c0,6.667 3.333,10 10,10h214c6.667,0 10,3 10,9v91c0,6.667-3.333,10-10,10h-4c-6,0-11.333-2.333-16-7l-52-49c-4.667-4.667-10-7-16-7h-24c-6.667,0-11.5-2.167-14.5-6.5s-7.333-6.5-13-6.5-6.5,2.333-2.5,7v1c3.333,5.333 3.333,10.667 0,16l-26,40c-3.333,5.333-2.667,10.333 2,15l2,1c4.667,4.667 10,5.333 16,2l27-14c6-3.333 10.667-2.333 14,3l31,47c3.333,5.333 2.333,10-3,14l-13,12c-5.333,4-7.333,9-6,15l18,78c1.333,6.667 5.333,9 12,7l12-3c6.667-1.333 9.334-5 8-11l-13-53c-1.332-6.667 1.335-10.667 8-12l30-8c6.667-2 13-3 19-3h4c6.667,0 10,3.333 10,10v93c0,6.667-3.333,10-10,10h-214c-6.667,0-10,3-10,9v31c0,6.667 3.333,10 10,10h468c6.667,0 10-3.333 10-10v-31c0-6-3.333-9-10-9h-213c-6.667,0-10-3-10-9v-94c0-6.667 3.333-10 10-10h11c6.667,0 13,1 19,3l31,8c6,1.333 8.333,5.333 7,12l-12,53c-1.333,6 1,9.667 7,11l13,3c6,2 9.667-.333 11-7l18-78c1.322-6-.346-11-5-15-4.672-4-7.339-9.333-8-16l-1-27c0-2.667 .667-4.5 2-5.5s3.333-1.167 6-.5l35,18z"/>
</svg>
