<?xml version="1.0" encoding="utf-8"?>
<!-- Generator: Adobe Illustrator 16.0.4, SVG Export Plug-In . SVG Version: 6.00 Build 0)  -->
<!DOCTYPE svg PUBLIC "-//W3C//DTD SVG 1.1//EN" "http://www.w3.org/Graphics/SVG/1.1/DTD/svg11.dtd">
<svg version="1.1" id="Capa_1" xmlns="http://www.w3.org/2000/svg" xmlns:xlink="http://www.w3.org/1999/xlink" x="0px" y="0px"
	 width="472px" height="451px" viewBox="0 0 472 451" enable-background="new 0 0 472 451" xml:space="preserve">
<path d="M400,175h-3c-0.667-2-1.667-3.333-3-4L276,44c0.667-2.667,1-5.333,1-8c0-10-3.167-18.5-9.5-25.5S253.333,0,244,0h-37
	c-8.667,0-16.167,3.5-22.5,10.5S175,26,175,36v8L57,171c-0.667,0.667-1.667,2-3,4H0v71h21v154c0,14,5,26,15,36s22,15,36,15h328
	c14,0,26-5,36-15s15-22,15-36V246h21v-71H400z M113,390c0,5.333-2,10-6,14s-8.833,6-14.5,6S82,408,78,404s-6-8.667-6-14V267
	c0-6,2-11,6-15s8.833-6,14.5-6s10.5,2,14.5,6s6,9,6,15V390z M205,390c0,5.333-2,10-6,14s-8.833,6-14.5,6s-10.5-2-14.5-6
	s-6-8.667-6-14V267c0-6,2-11,6-15s8.833-6,14.5-6s10.5,2,14.5,6s6,9,6,15V390z M308,390c0,5.333-2,10-6,14s-8.833,6-14.5,6
	s-10.5-2-14.5-6s-6-8.667-6-14V267c0-6,2-11,6-15s8.833-6,14.5-6s10.5,2,14.5,6s6,9,6,15V390z M110,175l95-103h1.5h0.5h37h1.5h0.5
	l96,103H110z M400,390c0,5.333-2,10-6,14s-8.833,6-14.5,6s-10.5-2-14.5-6s-6-8.667-6-14V267c0-6,2-11,6-15s8.833-6,14.5-6
	s10.5,2,14.5,6s6,9,6,15V390z"/>
</svg>
