<?xml version="1.0" encoding="utf-8"?>
<!-- Generator: Adobe Illustrator 16.0.4, SVG Export Plug-In . SVG Version: 6.00 Build 0)  -->
<!DOCTYPE svg PUBLIC "-//W3C//DTD SVG 1.1//EN" "http://www.w3.org/Graphics/SVG/1.1/DTD/svg11.dtd">
<svg version="1.1" id="Capa_1" xmlns="http://www.w3.org/2000/svg" xmlns:xlink="http://www.w3.org/1999/xlink" x="0px" y="0px"
	 width="492px" height="369px" viewBox="0 0 492 369" enable-background="new 0 0 492 369" xml:space="preserve">
<g>
	<path d="M105,148v2c0,9.333,3.667,14,11,14h28v164h41V185h41v143h40V185h41v143h41V164h28c3.333,0,6.333-1.5,9-4.5s4-6.167,4-9.5
		c0-4.667-1.667-8.333-5-11v-1h1L256,71V52c6.667,3.333,17.333,3.833,32,1.5s28-1.5,40,2.5V13c-10.667-4-24-4.667-40-2
		s-26.667,2-32-2V7c0-4.667-3.333-7-10-7s-10,2.333-10,7v64l-129,67h1h2h3C107,139.333,104.333,142.667,105,148z"/>
	<polygon points="133,338 103,369 389,369 359,338 	"/>
	<path d="M359,175v153h9l4,6l27,25l10,10h83V175H359z M420,297h-31v-30h31V297z M420,236h-31v-31h31V236z M461,297h-20v-30h20V297z
		 M461,236h-20v-31h20V236z"/>
	<path d="M124,328h9V175H0v194h83l10-9l27-26L124,328z M51,297H31v-30h20V297z M51,236H31v-31h20V236z M103,297H72v-30h31V297z
		 M103,236H72v-31h31V236z"/>
</g>
</svg>
