<?xml version="1.0" encoding="utf-8"?>
<!-- Generator: Adobe Illustrator 16.0.4, SVG Export Plug-In . SVG Version: 6.00 Build 0)  -->
<!DOCTYPE svg PUBLIC "-//W3C//DTD SVG 1.1//EN" "http://www.w3.org/Graphics/SVG/1.1/DTD/svg11.dtd">
<svg version="1.1" id="Capa_1" xmlns="http://www.w3.org/2000/svg" xmlns:xlink="http://www.w3.org/1999/xlink" x="0px" y="0px"
	 width="328px" height="472px" viewBox="0 0 328 472" enable-background="new 0 0 328 472" xml:space="preserve">
<path d="M328,390V41c0-10.667-4-20.167-12-28.5S298.333,0,287,0H41C29.667,0,20,4.167,12,12.5S0,30.333,0,41v390
	c0,10.667,4,20.167,12,28.5S29.667,472,41,472h246c8.667,0,15.333-0.333,20-1s9.333-2.5,14-5.5s7-7.833,7-14.5v-10H51
	c-5.333,0-10-2-14-6s-6-9-6-15v-30H328z M51,82c0-2.667,1-5,3-7s4.667-3,8-3h204c3.333,0,6,1,8,3s3,4.333,3,7v21c0,2.667-1,5-3,7
	s-4.667,3-8,3H62c-3.333,0-6-1-8-3s-3-4.333-3-7V82z M51,164c0-2.667,1-5,3-7s4.667-3,8-3h204c3.333,0,6,1,8,3s3,4.333,3,7v21
	c0,2.667-1,5-3,7s-4.667,3-8,3H62c-3.333,0-6-1-8-3s-3-4.333-3-7V164z"/>
</svg>
