<?xml version="1.0" encoding="utf-8"?>
<!-- Generator: Adobe Illustrator 16.0.4, SVG Export Plug-In . SVG Version: 6.00 Build 0)  -->
<!DOCTYPE svg PUBLIC "-//W3C//DTD SVG 1.1//EN" "http://www.w3.org/Graphics/SVG/1.1/DTD/svg11.dtd">
<svg version="1.1" id="Capa_1" xmlns="http://www.w3.org/2000/svg" xmlns:xlink="http://www.w3.org/1999/xlink" x="0px" y="0px"
	 width="349px" height="492px" viewBox="0 0 349 492" enable-background="new 0 0 349 492" xml:space="preserve">
<path d="M102,205h28c3.333,0,6.333-2.167,9-6.5s4-8.833,4-13.5V98c0-4-3-6-9-6h-4h-28V205z"/>
<path d="M102,369h28c3.333,0,6.333,1.833,9,5.5s4,7.833,4,12.5v86c0,4.667-1.333,9-4,13s-5.667,6-9,6h-28V369z"/>
<path d="M66,287c0-24,1.5-42.667,4.5-56s5.833-21,8.5-23s6-3,10-3h3V92h-4c-4,0-9,1.333-15,4s-13.5,8.334-22.5,17
	c-9,8.667-17,19.667-24,33S13.333,178.833,8,204.5S0,259.333,0,292s2.667,61.833,8,87.5s11.5,45.333,18.5,59s15,24.667,24,33
	S67,485.333,73,488s11,4,15,4h4V369h-3c-4,0-7.333-1.167-10-3.5s-5.5-10-8.5-23S66,311,66,287z"/>
<path d="M166,117c4.667,6,7,13,7,21s-2.333,15-7,21l16,14c8-10,12-21.667,12-35s-4-25-12-35L166,117z"/>
<path d="M218,212c18.667-20.667,28-44.667,28-72s-9.333-51-28-71l-16,14c15.333,16,23,35,23,57s-7.667,41.333-23,58L218,212z"/>
<path d="M254,250c28.667-30,43-66,43-108c0-41.333-14-77-42-107l-16,14c24.667,26,37,57,37,93c0,36.667-12.333,68-37,94L254,250z"/>
<path d="M291,289c38.667-40,58-88,58-144S329.667,40.667,291,0l-15,15c34.667,36,52,79.333,52,130c0,50-17.667,93.333-53,130
	L291,289z"/>
</svg>
