<?xml version="1.0" encoding="utf-8"?>
<!-- Generator: Adobe Illustrator 16.0.4, SVG Export Plug-In . SVG Version: 6.00 Build 0)  -->
<!DOCTYPE svg PUBLIC "-//W3C//DTD SVG 1.1//EN" "http://www.w3.org/Graphics/SVG/1.1/DTD/svg11.dtd">
<svg version="1.1" id="Capa_1" xmlns="http://www.w3.org/2000/svg" xmlns:xlink="http://www.w3.org/1999/xlink" x="0px" y="0px"
	 width="492px" height="492px" viewBox="0 0 492 492" enable-background="new 0 0 492 492" xml:space="preserve">
<g>
	<path d="M420,72C372,24,314,0,246,0S120,24,72,72S0,178,0,246s24,126,72,174s106,72,174,72s126-24,174-72s72-106,72-174
		S468,120,420,72z M391,391c-40,40-88.333,60-145,60s-105-20-145-60s-60-88.333-60-145s20-105,60-145s88.333-60,145-60
		s105,20,145,60s60,88.333,60,145S431,351,391,391z"/>
	<path d="M264,106l-18-32c-48,82.667-72,136.667-72,162v20c0,25.333,24.333,80,73,164c47.333-82.667,71-136.333,71-161v-23
		c0-11.333-6-30.5-18-57.5S276,127.333,264,106z M275,275c-8,8-17.667,12-29,12s-21-4-29-12s-12-17.667-12-29s4-21,12-29
		s17.667-12,29-12s21,4,29,12s12,17.667,12,29S283,267,275,275z"/>
</g>
</svg>
