<?xml version="1.0" encoding="utf-8"?>
<!-- Generator: Adobe Illustrator 16.0.4, SVG Export Plug-In . SVG Version: 6.00 Build 0)  -->
<!DOCTYPE svg PUBLIC "-//W3C//DTD SVG 1.1//EN" "http://www.w3.org/Graphics/SVG/1.1/DTD/svg11.dtd">
<svg version="1.1" id="Capa_1" xmlns="http://www.w3.org/2000/svg" xmlns:xlink="http://www.w3.org/1999/xlink" x="0px" y="0px"
	 width="473px" height="412.5px" viewBox="0 0 473 412.5" enable-background="new 0 0 473 412.5" xml:space="preserve">
<path d="M134,187.25c-0.667-10-3.667-17.667-9-23c-5.333-6-12-9-20-9c-22.667,0-34,17.667-34,53c0,32.667,11.333,49,34,49
	c10,0,17.333-2.333,22-7s7.667-12.334,9-23h79c-6,54.667-42.667,82-110,82c-32.667,0-59.5-8.833-80.5-26.5S-7,239.917-7,207.25
	s10.333-58.167,31-76.5s47.667-27.5,81-27.5c29.333,0,54,6.667,74,20s31.333,34.667,34,64H134z"/>
<path d="M385,187.25c-0.667-10-3.667-17.667-9-23c-5.333-6-12-9-20-9c-22.667,0-34,17.667-34,53c0,32.667,11.333,49,34,49
	c10,0,17.333-2.333,22-7s7.333-12.334,8-23h80c-6.667,54.667-43.334,82-110,82c-32.667,0-59.5-8.833-80.5-26.5
	s-31.5-42.833-31.5-75.5s10.333-58.167,31-76.5s47.667-27.5,81-27.5c29.333,0,54,6.667,74,20s31.333,34.667,34,64H385z"/>
</svg>
