<?xml version="1.0" encoding="utf-8"?>
<!-- Generator: Adobe Illustrator 16.0.4, SVG Export Plug-In . SVG Version: 6.00 Build 0)  -->
<!DOCTYPE svg PUBLIC "-//W3C//DTD SVG 1.1//EN" "http://www.w3.org/Graphics/SVG/1.1/DTD/svg11.dtd">
<svg version="1.1" id="Capa_1" xmlns="http://www.w3.org/2000/svg" xmlns:xlink="http://www.w3.org/1999/xlink" x="0px" y="0px"
	 width="472px" height="410px" viewBox="0 0 472 410" enable-background="new 0 0 472 410" xml:space="preserve">
<g>
	<path d="M95.5,213c-26.333,0-48.833,9.667-67.5,29S0,284.5,0,311.5s9.333,50,28,69S69.167,409,95.5,409s48.833-9.5,67.5-28.5
		s28-42,28-69s-9.333-50.167-28-69.5S121.833,213,95.5,213z M150.5,367.5c-15,15.667-33.167,23.5-54.5,23.5s-39.667-7.833-55-23.5
		S18,333,18,311s7.667-40.833,23-56.5S74.667,231,96,231s39.5,7.833,54.5,23.5S173,289,173,311S165.5,351.833,150.5,367.5z"/>
	<path d="M444,243c-18.667-19.333-41.167-29-67.5-29s-48.833,9.667-67.5,29s-28,42.5-28,69.5s9.333,50,28,69s41.167,28.5,67.5,28.5
		s48.833-9.5,67.5-28.5s28-42,28-69S462.667,262.333,444,243z M431,368.5c-15.333,15.667-33.666,23.5-55,23.5
		c-21.333,0-39.5-7.833-54.5-23.5S299,334,299,312s7.5-40.833,22.5-56.5S354.667,232,376,232s39.667,7.833,55,23.5s23,34.5,23,56.5
		S446.333,352.833,431,368.5z"/>
	<path d="M281,74c10,0,18.5-3.667,25.5-11S317,47,317,37s-3.5-18.667-10.5-26S291,0,281,0s-18.5,3.667-25.5,11S245,27,245,37
		s3.5,18.667,10.5,26S271,74,281,74z"/>
	<path d="M349,164c6,0,10.333-2.5,13-7.5s2.667-10,0-15s-7-7.5-13-7.5h-58l-38-63l-3-4c-1.333-2-4-4.167-8-6.5s-8.333-3.5-13-3.5h-4
		c-2-0.667-5-0.167-9,1.5s-7.333,4.167-10,7.5l-76,78c-4.667,5.333-7,12-7,20c0,12,5,21,15,27l78,44v83c0,6,1.833,11,5.5,15
		s8.5,6,14.5,6s10.833-2,14.5-6s5.5-9,5.5-15V215l1-5c0-2.667-1.333-6.167-4-10.5s-6.667-7.833-12-10.5l-45-24l49-48l23,37
		c4,6.667,9,10,15,10H349z"/>
</g>
</svg>
