<?xml version="1.0" encoding="utf-8"?>
<!-- Generator: Adobe Illustrator 16.0.4, SVG Export Plug-In . SVG Version: 6.00 Build 0)  -->
<!DOCTYPE svg PUBLIC "-//W3C//DTD SVG 1.1//EN" "http://www.w3.org/Graphics/SVG/1.1/DTD/svg11.dtd">
<svg version="1.1" id="Capa_1" xmlns="http://www.w3.org/2000/svg" xmlns:xlink="http://www.w3.org/1999/xlink" x="0px" y="0px"
	 width="502px" height="410px" viewBox="0 0 502 410" enable-background="new 0 0 502 410" xml:space="preserve">
<path d="M410,369c0,11.333,4,21,12,29s17.667,12,29,12s21-4,29-12s12-17.667,12-29s-4-21-12-29s-17.667-12-29-12s-21,4-29,12
	S410,357.667,410,369z"/>
<path d="M113,369c0,11.333,4,21,12,29s17.667,12,29,12s21-4,29-12s12-17.667,12-29s-4-21-12-29s-17.667-12-29-12s-21,4-29,12
	S113,357.667,113,369z"/>
<path d="M481,277H161l7-11c3.333-5.333,4.333-10.667,3-16l-7-26l297-15c5.333-0.667,10-3,14-7s6-9,6-15V52c0-6-2-11-6-15
	s-8.667-6-14-6H114l-4-15c-2.667-10.667-9.333-16-20-16H20C14.667,0,10,2,6,6s-6,8.833-6,14.5S2,31,6,35s8.667,6,14,6h54l55,211
	l-22,35c-4,6.667-4,13.5,0,20.5s10,10.5,18,10.5h356c6,0,11-2,15-6s6-8.833,6-14.5s-2-10.5-6-14.5S487,277,481,277z"/>
</svg>
