<?xml version="1.0" encoding="utf-8"?>
<!-- Generator: Adobe Illustrator 16.0.4, SVG Export Plug-In . SVG Version: 6.00 Build 0)  -->
<!DOCTYPE svg PUBLIC "-//W3C//DTD SVG 1.1//EN" "http://www.w3.org/Graphics/SVG/1.1/DTD/svg11.dtd">
<svg version="1.1" id="Capa_1" xmlns="http://www.w3.org/2000/svg" xmlns:xlink="http://www.w3.org/1999/xlink" x="0px" y="0px"
	 width="440px" height="394px" viewBox="0 0 440 394" enable-background="new 0 0 440 394" xml:space="preserve">
<path d="M438,115L374,10c-6-6.667-9.667-10-11-10H87L4,111l-1,1v1c-0.667,0.667-1.333,1.667-2,3v1c-0.667,2-1,4-1,6
	c0,1.333,0.333,2.667,1,4v1l2,4l201,254v1l4,4h1c1.333,0.667,3,1.333,5,2l1,1h5h6l1-1l4-2h1c1.333-1.333,2.333-2.667,3-4l202-255
	c0.667-0.667,1.333-2,2-4c0.667-1.335,1-2.669,1-4v-1v-1v-2v-1C439.326,117,438.659,115.667,438,115z M329,41l-31,56l-41-56H329z
	 M264,113h-88l44-60L264,113z M183,41l-38,52l-19-52H183z M94,61l19,52H56L94,61z M57,144h68l46,143L57,144z M220,316l-55-172h110
	L220,316z M269,287l46-143h68L269,287z M332,113l29-52l28,52H332z"/>
</svg>
