<?xml version="1.0" encoding="utf-8"?>
<!-- Generator: Adobe Illustrator 16.0.4, SVG Export Plug-In . SVG Version: 6.00 Build 0)  -->
<!DOCTYPE svg PUBLIC "-//W3C//DTD SVG 1.1//EN" "http://www.w3.org/Graphics/SVG/1.1/DTD/svg11.dtd">
<svg version="1.1" id="Capa_1" xmlns="http://www.w3.org/2000/svg" xmlns:xlink="http://www.w3.org/1999/xlink" x="0px" y="0px"
	 width="430px" height="492px" viewBox="0 0 430 492" enable-background="new 0 0 430 492" xml:space="preserve">
<path d="M131,82c11.333,0,21-4,29-12s12-17.667,12-29s-4-21-12-29S142.333,0,131,0s-21,4-29,12S90,29.667,90,41s4,21,12,29
	S119.667,82,131,82z"/>
<path d="M160,458c-35.333,0-65.333-12.5-90-37.5S33,365,33,329c0-38.667,15-71,45-97l-3-40c-22.667,14.667-40.833,34.167-54.5,58.5
	S0,301,0,329c0,45.333,15.667,83.833,47,115.5S116,492,160,492c31.333,0,60.5-9.833,87.5-29.5s46.833-44.167,59.5-73.5l-24-33
	c-6,29.333-20.5,53.667-43.5,73S190,458,160,458z"/>
<path d="M410,379h-21l-82-113c-11.333-20-25-30-41-30h-92v-41h82c14.667,0,22-5.167,22-15.5s-7.333-15.5-22-15.5h-82v-41
	c-1.333-20.667-15-30.667-41-30c-20.667,0.667-31,10.667-31,30v143c2,20.667,15.667,31,41,31h123l72,92l20,31h52c5.333,0,10-2,14-6
	s6-8.833,6-14.5s-2-10.5-6-14.5S415.333,379,410,379z"/>
</svg>
