<?xml version="1.0" encoding="utf-8"?>
<!-- Generator: Adobe Illustrator 16.0.4, SVG Export Plug-In . SVG Version: 6.00 Build 0)  -->
<!DOCTYPE svg PUBLIC "-//W3C//DTD SVG 1.1//EN" "http://www.w3.org/Graphics/SVG/1.1/DTD/svg11.dtd">
<svg version="1.1" id="Capa_1" xmlns="http://www.w3.org/2000/svg" xmlns:xlink="http://www.w3.org/1999/xlink" x="0px" y="0px"
	 width="492px" height="409.667px" viewBox="0 0 492 409.667" enable-background="new 0 0 492 409.667" xml:space="preserve">
<polygon points="0,0 78,81 108,54 81,0 "/>
<path d="M352,227c7.333,2,14.5,1,21.5-3s11.5-9.666,13.5-17c2-7.333,1-14.5-3-21.5s-9.667-11.5-17-13.5l-11-3l-15,54L352,227z"/>
<path d="M343,165l-94-26c-7.333-2-12,0.667-14,8l-8,32c-2,7.333,0.333,12,7,14l94,27L343,165z"/>
<path d="M357,255c-7.333-7.332-16-12.332-26-15l-113-32L149,83c-4.667-7.333-10.667-12-18-14s-14.5-1-21.5,3S98,81.667,96,89
	s-1.333,14.667,2,22l87,154c4.667,8,13,14,25,18l158,45l74,75c2.667,2.666,5.667,4.666,9,6c5.337,1.334,10.67,0.666,16-2
	c5.335-2.666,8.669-7,10-13c2-8,0-15-6-21L357,255z"/>
<path d="M442,287l16,21l34-37l-28-16c1.326-10-0.841-19.166-6.5-27.5c-5.667-8.332-13.5-14.166-23.5-17.5
	c-10.668-2.666-20.835-1.166-30.5,4.5c-9.667,5.668-16,13.834-19,24.5c-3,10.668-1.833,21,3.5,31s13.333,16.668,24,20
	C422,292.667,432,291.667,442,287z"/>
</svg>
