<?xml version="1.0" encoding="utf-8"?>
<!-- Generator: Adobe Illustrator 16.0.4, SVG Export Plug-In . SVG Version: 6.00 Build 0)  -->
<!DOCTYPE svg PUBLIC "-//W3C//DTD SVG 1.1//EN" "http://www.w3.org/Graphics/SVG/1.1/DTD/svg11.dtd">
<svg version="1.1" id="Capa_1" xmlns="http://www.w3.org/2000/svg" xmlns:xlink="http://www.w3.org/1999/xlink" x="0px" y="0px"
	 width="512px" height="505.5px" viewBox="0 -239.5 512 505.5" enable-background="new 0 -239.5 512 505.5" xml:space="preserve">
<g>
	<path d="M440-119.75H72H0v72v122v72h72h368h72v-72v-122v-72H440z M492,77.25c-25.333,7.333-41.667,23.667-49,49H69
		c-7.333-25.333-23.667-41.667-49-49v-128c25.333-7.334,41.667-23.667,49-49h374c7.334,24.667,23.668,41,49,49V77.25z"/>
	<path d="M256-88.75c-25.333,0-47,10-65,30s-27,44-27,72s9,52,27,72s39.667,30,65,30s47-10,65-30s27-44,27-72s-9-52-27-72
		S281.333-88.75,256-88.75z M295,71.25c-6,5.333-15.667,9-29,11v13h-20v-13c-12.667-2-21.667-5-27-9c-9.333-7.333-14-17-14-29h25
		c0.667,0,1.167,0.667,1.5,2s0.833,3,1.5,5c0.668,2,1.334,3.333,2,4c1.333,1.334,5,2.667,11,4v-34c-12.667-3.333-21.333-6.667-26-10
		c-8.667-6-13-15-13-27s4.333-21.667,13-29c6-6,14.667-9.667,26-11v-17h20v18c7.333,1.333,15.333,5,24,11c4,2.667,6.833,5,8.5,7
		s3.333,5.167,5,9.5s2.833,9.833,3.5,16.5h-26c-0.667-8.668-4.667-14.668-12-18l-3-2v32l9,1c12,3.334,20,6.668,24,10
		c7.333,5.333,11,14,11,26C310,53.583,305,63.25,295,71.25z"/>
	<path d="M278,34.25c-4-2-8-3.333-12-4v30l2.5-0.5c1.667-0.333,2.833-0.5,3.5-0.5c7.333-2.667,11-7.667,11-15
		C283,40.25,281.333,36.917,278,34.25z"/>
	<path d="M232-13.75c0,4,2,7.333,6,10c1.333,0.667,4,1.667,8,3v-28c-3.333,0.667-6,1.667-8,3C234-23.083,232-19.083,232-13.75z"/>
</g>
</svg>
