<?xml version="1.0" encoding="utf-8"?>
<!-- Generator: Adobe Illustrator 16.0.4, SVG Export Plug-In . SVG Version: 6.00 Build 0)  -->
<!DOCTYPE svg PUBLIC "-//W3C//DTD SVG 1.1//EN" "http://www.w3.org/Graphics/SVG/1.1/DTD/svg11.dtd">
<svg version="1.1" id="Capa_1" xmlns="http://www.w3.org/2000/svg" xmlns:xlink="http://www.w3.org/1999/xlink" x="0px" y="0px"
	 width="492px" height="427.693px" viewBox="0 0 492 427.693" enable-background="new 0 0 492 427.693" xml:space="preserve">
<path d="M482,35C420.667,11.667,369.667,0,329,0c-17.333,0-37.333,2.5-60,7.5S227.667,17.667,213,23l-21,7
	c-6.667,2.679-13.333,4.346-20,5L10,52C3.333,53.333,0,57.333,0,64v85c0,6.667,3.333,10.667,10,12l162,26
	c6.667,1.333,13.333,3.333,20,6l110,28c7.333,1.334,12,5,14,11l65,188c2,6.666,6.333,9,13,7l69-23c6.667-2.666,8.667-7,6-13l-45-131
	c-2-6-3-9.332-3-10c-2-8-2.833-14.166-2.5-18.5c0.346-4.332,1.18-7.832,2.5-10.5l1-2.999c4.667-5.333,10.333-9,17-11l44-18
	c6-3.333,9-8.333,9-15V49C492,42.333,488.667,37.667,482,35z M376.5,137c-9,8.667-19.833,13-32.5,13s-23.667-4.333-33-13
	s-14-19.333-14-32s4.667-23.5,14-32.5S331.333,59,344,59s23.5,4.5,32.5,13.5S390,92.333,390,105
	C390,117.668,385.5,128.335,376.5,137z"/>
</svg>
