<?xml version="1.0" encoding="utf-8"?>
<!-- Generator: Adobe Illustrator 16.0.4, SVG Export Plug-In . SVG Version: 6.00 Build 0)  -->
<!DOCTYPE svg PUBLIC "-//W3C//DTD SVG 1.1//EN" "http://www.w3.org/Graphics/SVG/1.1/DTD/svg11.dtd">
<svg version="1.1" id="Capa_1" xmlns="http://www.w3.org/2000/svg" xmlns:xlink="http://www.w3.org/1999/xlink" x="0px" y="0px"
	 width="388.908px" height="512px" viewBox="0 0 388.908 512" enable-background="new 0 0 388.908 512" xml:space="preserve">
<path d="M307.908,262c-1.332-7.333-5.5-13-12.5-17s-13.5-4.333-19.5-1l-50,22v-88l87-135c3.334-5.333,4.334-10.833,3-16.5
	c-1.332-5.667-4.5-10-9.5-13s-10.332-4-16-3s-9.837,4.167-12.5,9.5l-72,115h-43.999c-2.667,0-5.333,0.667-8,2l-76,29l-39-59
	c-2.667-4.667-7-7.667-13-9s-11.5-0.333-16.5,3s-8,7.833-9,13.5s-0.167,11.167,2.5,16.5l49,73c6.667,10,15.667,12.667,27,8l55-22v97
	l-75,168c-3.333,6-3.667,12.167-1,18.5s7.333,11.333,14,15s13.5,4.667,20.5,3s11.833-5.833,14.5-12.5l61-139
	c4.668,1.333,10.334,2,17,2c5.333,0,10.333-0.667,14.999-2l69-32l15,60c1.334,6.667,5,11.667,11,15s12.334,4.167,19,2.5
	c6.668-1.667,11.834-5.333,15.5-11c3.668-5.667,4.5-11.833,2.5-18.5L307.908,262z"/>
<path d="M246.908,226v16c23.334-12,44.834-31,64.5-57c19.668-26,34.668-52.167,45-78.5c10.334-26.333,18.334-49.333,24-69
	c5.668-19.667,8.5-32.167,8.5-37.5h-14c-2.668,17.333-8.334,39.333-17,66s-23.166,56.834-43.5,90.5
	C294.076,190.167,271.576,213.334,246.908,226z"/>
<path d="M174.409,127c10.333,0,19.167-3.667,26.499-11c7.334-7.334,11-16.167,11-26.5c0-10.335-3.666-19.168-11-26.5
	c-7.333-7.333-16.166-11-26.499-11s-19.333,3.667-27,11s-11.5,16.167-11.5,26.5s3.833,19.167,11.5,26.5S164.076,127,174.409,127z"/>
<polygon points="205.908,512 225.908,512 225.908,342 205.908,358 "/>
</svg>
