<?xml version="1.0" encoding="utf-8"?>
<!-- Generator: Adobe Illustrator 16.0.4, SVG Export Plug-In . SVG Version: 6.00 Build 0)  -->
<!DOCTYPE svg PUBLIC "-//W3C//DTD SVG 1.1//EN" "http://www.w3.org/Graphics/SVG/1.1/DTD/svg11.dtd">
<svg version="1.1" id="Capa_1" xmlns="http://www.w3.org/2000/svg" xmlns:xlink="http://www.w3.org/1999/xlink" x="0px" y="0px"
	 width="430.039px" height="492px" viewBox="0 0 430.039 492" enable-background="new 0 0 430.039 492" xml:space="preserve">
<g>
	<path d="M411.039,231c-9.333-28-13.333-49.667-12-65c2.667-35.334,13-67.667,31-97l-69-69c-21.333,18.667-46,29-74,31
		c-26,2.667-50.333-2.333-73-15c-24,12-48.333,17-73,15c-26.667-2-50.333-11.333-71-28l-69,69c16.667,30,26,61.333,28,94
		c0.667,15.333-3.667,36.333-13,63c-5.333,14.667-9.333,27.333-12,38c-2,10.667-3.333,19.333-4,26c-0.667,28.667,7.333,54.333,24,77
		c12.667,16.667,33.667,35.333,63,56c32.667,16.667,57.667,27,75,31l7,3.5l7,3.5c1.333,0.667,2.833,1.333,4.5,2s3.5,1.5,5.5,2.5
		l5,2.5c11.333,6.667,19,13.667,23,21c4.667-8,12.333-15,23-21c8-4,14.333-7,19-9c6-2.667,9.667-4.333,11-5
		c3.333-1.333,8-3.333,14-6c8-3.333,15.333-6,22-8c16.667-6,29-11.667,37-17c28.667-20.667,49.667-39,63-55
		c17.335-22.667,25.668-48.667,25-78C427.369,279.667,421.702,259,411.039,231z M302.539,334.5c-24.333,23-52.333,34.5-84,34.5
		s-59.667-11.5-84-34.5s-36.5-50.167-36.5-81.5c0-10,1.833-20.667,5.5-32s7.5-20.5,11.5-27.5s9-15.167,15-24.5s9.667-15,11-17l28,44
		l49-73l50,73l28-44c1.333,2,4.833,7.667,10.5,17s10.5,17.5,14.5,24.5s8,16.167,12,27.5s6,22,6,32
		C339.039,284.333,326.872,311.5,302.539,334.5z"/>
	<path d="M231.039,249l-13-10c-3.333,2.667-7.833,6.5-13.5,11.5s-13,14-22,27s-13.5,24.167-13.5,33.5c0,7.333,4.833,14,14.5,20
		s21.333,9,35,9s25.333-3,35-9s14.5-12.667,14.5-20c0-10-4.167-21-12.5-33S239.039,256.333,231.039,249z"/>
</g>
</svg>
