<?xml version="1.0" encoding="utf-8"?>
<!-- Generator: Adobe Illustrator 16.0.4, SVG Export Plug-In . SVG Version: 6.00 Build 0)  -->
<!DOCTYPE svg PUBLIC "-//W3C//DTD SVG 1.1//EN" "http://www.w3.org/Graphics/SVG/1.1/DTD/svg11.dtd">
<svg version="1.1" id="Capa_1" xmlns="http://www.w3.org/2000/svg" xmlns:xlink="http://www.w3.org/1999/xlink" x="0px" y="0px"
	 width="492px" height="499.971px" viewBox="0 0 492 499.971" enable-background="new 0 0 492 499.971" xml:space="preserve">
<g>
	<path d="M483,252.515c0-4-2-6-6-6c-0.667,0-1.333,0.333-2,1l-72,37c-49.333-20-96.166-33.5-140.5-40.5c-44.333-7-80-9-107-6
		s-52,9-75,18s-37.667,15.833-44,20.5c-6.333,4.666-11.167,8.333-14.5,11c-0.667,0.667-1,1.667-1,3c0,0.666,0.333,1.333,1,2l46,23
		c1.333,1.333,2,3,2,5c0,2.667-1.333,4-4,4H16c-1.333,0-2,0.667-2,2c0,0.667,0.333,1,1,1c25.333,22,56,37.333,92,46
		s70.667,11.667,104,9c33.333-2.666,64.667-7.333,94-14s53-13.167,71-19.5s27-9.833,27-10.5l72,38h2c4,0,6-2,6-6
		c0-0.667-0.333-1.667-1-3l-42-56l42-56C482.667,254.182,483,253.182,483,252.515z M107,299.515c-3.333,3.333-7.333,5-12,5
		s-8.667-1.667-12-5s-5-7.666-5-13c0-5.333,1.667-9.666,5-13c3.333-3.333,7.333-5,12-5s8.667,1.667,12,5s5,7.667,5,13
		S110.333,296.182,107,299.515z"/>
	<path d="M483.5,125.515c-5.667-6-12.5-9-20.5-9H318v62h145c8,0,14.833-3,20.5-9s8.5-13.333,8.5-22S489.167,131.515,483.5,125.515z"
		/>
	<path d="M64,154.515l8,16l13-11l10,14l13-11l10,14l12-12l11,13l12-12l11,12l12-12l11,12l12-12l11,12l12-12l12,12l11-12l12,12l11-12
		l12,12l14-12l13,12v-61H0c8.667,15.333,25.333,30,50,44L64,154.515z"/>
</g>
</svg>
