<?xml version="1.0" encoding="utf-8"?>
<!-- Generator: Adobe Illustrator 16.0.4, SVG Export Plug-In . SVG Version: 6.00 Build 0)  -->
<!DOCTYPE svg PUBLIC "-//W3C//DTD SVG 1.1//EN" "http://www.w3.org/Graphics/SVG/1.1/DTD/svg11.dtd">
<svg version="1.1" id="Capa_1" xmlns="http://www.w3.org/2000/svg" xmlns:xlink="http://www.w3.org/1999/xlink" x="0px" y="0px"
	 width="492.072px" height="450.23px" viewBox="0 0 492.072 450.23" enable-background="new 0 0 492.072 450.23"
	 xml:space="preserve">
<g>
	<path d="M371.573,204.643c-38.333,6.333-69.167,13.333-92.502,21c-23.332,7.668-44.833,16.668-64.5,27
		c-19.666,10.334-32.333,17.668-38,22c-5.666,4.334-9.833,7.5-12.5,9.5l-3,4c0,2,1,3.668,3,5l85,40c3.334,1.334,5,3.666,5,7
		c0,6-2.666,9-8,9l-94-1c-2,0-3,1.334-3,4l2,2c83.333,66,197,98,341,96h0.001v-254C450.073,195.476,409.907,198.31,371.573,204.643z
		 M303.071,301.143c-4,4-8.668,6-14,6c-5.334,0-10-2-14-6s-6-8.666-6-14c0-5.332,2-10,6-14s8.669-6,14-6c5.332,0,10,2,14,6
		s6,8.668,6,14C309.071,292.477,307.071,297.143,303.071,301.143z"/>
	<path d="M207.071,140.143c6,0,11.333-2.167,16-6.5s7-9.833,7-16.5c-0.667-2-1-3.667-1-5c76.667-62.667,148.333-94.333,215-95
		c11.332,0,26,2,44,6l4,1v-19h-3c-17.331-4-32.668-5.667-46-5c-72,0.667-147.668,33-227,97l-9-3c-6.667,0-12.333,2.333-17,7
		s-7,10-7,16c0.667,3.333,1.334,5.667,2,7l-66,61l-55,51c-5.333,5.334-11.667,7.834-19,7.5c-7.333-0.332-13.333-3.166-18-8.5
		c-4.667-5.332-7-11.333-7-18c0-7.333,2.667-13.667,8-19c3.333-1.333,6-2.667,8-4l2,19l46-57l-50,17
		c-9.333,2.669-15.667,6.335-19,11c-9.333,8-14.333,18.333-15,31c-0.667,12.667,3.333,23.667,12,33
		c8.667,9.334,19.333,14.168,32,14.5c12.667,0.334,23.667-3.5,33-11.5l1-1l52-49c43.333-40.667,65.667-61.667,67-63L207.071,140.143
		z"/>
</g>
</svg>
