<?xml version="1.0" encoding="utf-8"?>
<!-- Generator: Adobe Illustrator 16.0.4, SVG Export Plug-In . SVG Version: 6.00 Build 0)  -->
<!DOCTYPE svg PUBLIC "-//W3C//DTD SVG 1.1//EN" "http://www.w3.org/Graphics/SVG/1.1/DTD/svg11.dtd">
<svg version="1.1" id="Capa_1" xmlns="http://www.w3.org/2000/svg" xmlns:xlink="http://www.w3.org/1999/xlink" x="0px" y="0px"
	 width="472px" height="491.801px" viewBox="0 0 472 491.801" enable-background="new 0 0 472 491.801" xml:space="preserve">
<path d="M236.5,66.8c9,0,16.833-3.167,23.5-9.5s10-14,10-23s-3.333-16.667-10-23s-14.5-9.5-23.5-9.5s-16.667,3.167-23,9.5
	s-9.5,14-9.5,23s3.167,16.667,9.5,23S227.5,66.8,236.5,66.8z"/>
<path d="M442,441.801c-9.333-4-19.167-6-29.5-6s-20.167,2-29.5,6s-19,6-29,6s-19.667-2-29-6c-10-4-20.167-6-30.5-6s-20.167,2-29.5,6
	s-19,6-29,6s-19.667-2-29-6c-9.334-4-19.167-6-29.5-6s-20.5,2-30.5,6c-9.333,4-19,6-29,6s-19.667-2-29-6s-19.167-6-29.5-6
	s-20.167,2-29.5,6c-10,4-20,6-30,6v44c10.667,0,20.667-2,30-6c9.333-4.667,19.167-7,29.5-7s20.167,2.333,29.5,7c9.333,4,19,6,29,6
	s19.667-2,29-6c10-4.667,20.167-7,30.5-7s20.167,2.333,29.5,7c9.333,4,19,6,29,6s19.667-2,29-6c9.334-4.667,19.168-7,29.5-7
	c10.333,0,20.5,2.333,30.5,7c8.667,4,18.167,6,28.5,6c10.335,0,20.168-2,29.5-6c9.335-4.667,19.168-7,29.5-7
	c10.333,0,20.167,2.333,29.5,7c9.333,4,19.333,6,30,6v-44C462,447.801,452,445.801,442,441.801z"/>
<path d="M445,0.8c-2.674-1.333-5.34-1-8,1l-120,121c0-0.667-1-0.833-3-0.5l-3,0.5h-46l-48-50c-2.667-2.667-5.333-4.333-8-5
	c-4.667-4-10.167-6-16.5-6s-11.5,2.333-15.5,7l-70,70c-2.667,2.667-4,6-4,10v46H0v20h103v118.001c0,7.333,2.5,13.667,7.5,19
	s11,8,18,8s13-2.667,18-8s7.5-11.667,7.5-19V214.8h72v154.001H0v31h246V214.8h31v-20H154v-9l66-65l27,27c4,4,8,6,12,6h52
	c11.333,0,17-3.333,17-10v-11c6-6,18.5-18.167,37.5-36.5s35.5-34.333,49.5-48s22.667-22.833,26-27.5v379.001h10V6.8
	C451,4.133,449,2.133,445,0.8z"/>
</svg>
