<?xml version="1.0" encoding="utf-8"?>
<!-- Generator: Adobe Illustrator 16.0.4, SVG Export Plug-In . SVG Version: 6.00 Build 0)  -->
<!DOCTYPE svg PUBLIC "-//W3C//DTD SVG 1.1//EN" "http://www.w3.org/Graphics/SVG/1.1/DTD/svg11.dtd">
<svg version="1.1" id="Capa_1" xmlns="http://www.w3.org/2000/svg" xmlns:xlink="http://www.w3.org/1999/xlink" x="0px" y="0px"
	 width="430.118px" height="390.617px" viewBox="0 0 430.118 390.617" enable-background="new 0 0 430.118 390.617"
	 xml:space="preserve">
<path d="M428.922,186.205c-4-24.667-19.332-40.333-46-47c-33.332-8-74.666,2-124,30c62-35.333,92.334-73,91-113
	c0-24.667-11-41.667-33-51c-24.666-10.667-47.334-4.667-68,18c-22.668,24.667-34,65-34,121c0-72-17.667-117.333-53-136
	c-22.667-12.667-43.667-10.667-63,6c-21.333,18-25.667,42-13,72s41,57.667,85,83c-61.333-35.334-109-42.668-143-22
	c-22,13.333-31,32-27,56c3.333,24.667,18.333,40.667,45,48c33.333,8.667,75-1.333,125-30c-62,36-92.333,74-91,114
	c1.333,24.667,13.333,41.667,36,51c25.333,10,48,3,68-21c11.333-14,19.333-32.667,24-56h13c9.334,46,29.666,72.333,61,79
	c23.334,5.333,42-1.667,56-21c18.668-25.333,16-54.333-8-87c-16-21.333-39.666-41-71-59c61.334,35.334,109,42.667,143,22
	C424.59,229.872,433.59,210.872,428.922,186.205z M234.422,214.705c-5.666,5.667-12.166,8.5-19.5,8.5c-7.334,0-13.668-2.833-19-8.5
	c-5.333-5.667-8-12.167-8-19.5s2.667-13.667,8-19s11.667-8,19-8c7.333,0,13.833,2.667,19.5,8c5.668,5.334,8.5,11.668,8.5,19
	C242.922,202.538,240.09,209.038,234.422,214.705z"/>
</svg>
