<?xml version="1.0" encoding="utf-8"?>
<!-- Generator: Adobe Illustrator 16.0.4, SVG Export Plug-In . SVG Version: 6.00 Build 0)  -->
<!DOCTYPE svg PUBLIC "-//W3C//DTD SVG 1.1//EN" "http://www.w3.org/Graphics/SVG/1.1/DTD/svg11.dtd">
<svg version="1.1" id="Capa_1" xmlns="http://www.w3.org/2000/svg" xmlns:xlink="http://www.w3.org/1999/xlink" x="0px" y="0px"
	 width="512.125px" height="327.545px" viewBox="0 0 512.125 327.545" enable-background="new 0 0 512.125 327.545"
	 xml:space="preserve">
<g>
	<path d="M512,15.5c-0.671-3-3.337-4.833-8-5.5C446.667,3.333,358.333,0,239,0C151.667,0,72,3.333,0,10l5,2.5c2,1,5.333,3.667,10,8
		s8.833,9.167,12.5,14.5S34,47.833,36,57.5c2,9.668,2.333,19.834,1,30.5h6.5c3,0,8.667,0.5,17,1.5S76.667,92.333,84,95
		s15.167,7.333,23.5,14s15.167,15,20.5,25l120-35l-8,78l-51,12c-4,1.334-7.667,3.334-11,6L66,300c-3.333,2.666-5,6.334-5,11
		s1.667,8.5,5,11.5s7.167,4.666,11.5,5s8.167-1.166,11.5-4.5l84-79l103-24h-1l17-4l16,17c2.667,2.668,6,4,10,4l55,1
		c3.333,0,6.333-1.332,9-4c2.667-2.666,4-5.666,4-9c0-6-3.333-10-10-12L335,73l171-50C510.667,21,512.667,18.5,512,15.5z M363,213
		h-22h-18l-29-33c-0.667-0.666-1.167-1-1.5-1H292c-6.667-8-15-10.666-25-8l-15,3l8-79l63-18L363,213z"/>
	<path d="M312,124.5c-6.667-2.333-13.167-2-19.5,1s-10.667,7.667-13,14s-1.833,12.667,1.5,19c3.336,6.334,8.169,10.668,14.5,13
		c6.335,2.334,12.668,2,19-1c6.336-3,10.669-7.833,13-14.5c2.333-6.667,2-13-1-19S318.667,126.833,312,124.5z"/>
</g>
</svg>
