<?xml version="1.0" encoding="utf-8"?>
<!-- Generator: Adobe Illustrator 16.0.4, SVG Export Plug-In . SVG Version: 6.00 Build 0)  -->
<!DOCTYPE svg PUBLIC "-//W3C//DTD SVG 1.1//EN" "http://www.w3.org/Graphics/SVG/1.1/DTD/svg11.dtd">
<svg version="1.1" id="Capa_1" xmlns="http://www.w3.org/2000/svg" xmlns:xlink="http://www.w3.org/1999/xlink" x="0px" y="0px"
	 width="409.391px" height="471.133px" viewBox="0 0 409.391 471.133" enable-background="new 0 0 409.391 471.133"
	 xml:space="preserve">
<path d="M204.695,204.5c14,0,26.5,4.333,37.5,13s18.5,19.667,22.5,33c0.668,3.334,2.334,11.167,5,23.5
	c2.668,12.334,4.834,21.167,6.5,26.5c1.668,5.333,5.334,11.833,11,19.5c5.668,7.667,13.168,13.833,22.5,18.5
	c16.674,5.333,28.5,12.5,35.5,21.5s10.5,22.833,10.5,41.5c0,16-5.832,30.833-17.5,44.5c-11.666,13.666-25.834,21.5-42.5,23.5
	c-34,4.666-64.332-0.667-91-16c-26.667,15.333-57,20.666-91,16c-16.667-2-30.833-9.834-42.5-23.5
	c-11.667-13.667-17.5-28.5-17.5-44.5c0-18,3.667-31.667,11-41s19.333-17,36-23c10-4.667,17.833-10.834,23.5-18.5
	c5.668-7.667,9.335-14.667,11-21c1.667-6.333,3.5-14.833,5.5-25.5s3.667-18.667,5-24c3.333-12.667,10.5-23.167,21.5-31.5
	S190.695,204.5,204.695,204.5z"/>
<path d="M392.695,181.5c-4.668-4-14.668-0.333-30,11c-15.334,11.333-27,22-35,32c-8.668,10-13,21.833-13,35.5s4.332,25.5,13,35.5
	c8.666,10,19.332,15,32,15c8.666,0,16.832-3,24.5-9c7.666-6,13.166-13.667,16.5-23c6.666-16,9.5-34,8.5-54
	S402.695,190.167,392.695,181.5z"/>
<path d="M16.695,181.5c-10,8.667-15.5,23-16.5,43s1.833,38,8.5,54c3.333,9.333,8.833,17,16.5,23s15.833,9,24.5,9
	c12.667,0,23.333-5,32-15s13-21.833,13-35.5s-4.333-25.5-13-35.5c-8-10-19.667-20.667-35-32
	C31.361,181.167,21.361,177.5,16.695,181.5z"/>
<path d="M259.693,0.5c35.334,6,59.002,28,71.002,66c10.666,34.667,7.666,64.333-9,89c-12,18.667-28.334,26-49,22
	c-12-2-22.002-7.833-30.002-17.5s-12.668-20.833-14-33.5c-1.334-10-2-21-2-33s0.5-26,1.5-42s4.166-29,9.5-39
	C243.031,2.5,250.361-1.5,259.693,0.5z"/>
<path d="M149.695,0.5c9.333-2,16.667,2,22,12s8.5,23,9.5,39s1.5,30,1.5,42s-0.667,23-2,33c-1.333,12.667-6,23.833-14,33.5
	s-18,15.5-30,17.5c-27.333,4.667-46.333-8.333-57-39c-11.333-32-8.667-63.333,8-94C101.695,19.833,122.362,5.167,149.695,0.5z"/>
</svg>
