<?xml version="1.0" encoding="utf-8"?>
<!-- Generator: Adobe Illustrator 16.0.4, SVG Export Plug-In . SVG Version: 6.00 Build 0)  -->
<!DOCTYPE svg PUBLIC "-//W3C//DTD SVG 1.1//EN" "http://www.w3.org/Graphics/SVG/1.1/DTD/svg11.dtd">
<svg version="1.1" id="Capa_1" xmlns="http://www.w3.org/2000/svg" xmlns:xlink="http://www.w3.org/1999/xlink" x="0px" y="0px"
	 width="430px" height="513px" viewBox="0 0 430 513" enable-background="new 0 0 430 513" xml:space="preserve">
<path d="M412,78c-3.333-14-9-24.667-17-32s-19.667-14-35-20c-15.333-6.667-37.333-12.667-66-18s-54.834-8-78.5-8
	c-23.667,0-49.833,2.667-78.5,8S86.333,19.333,71,26c-15.333,6-27,12.667-35,20S22.667,64,20,78L0,238v223h31v20
	c0,13.333,4.167,22.667,12.5,28s16.833,5.333,25.5,0s13-14.667,13-28v-20h256v20c0,13.333,5.167,22.667,15.5,28s20.5,5.333,30.5,0
	s15-14.667,15-28v-20h31V238L412,78z M109,38.5c2.667-5,7.334-7.5,14-7.5h205v30H123c-6.667,0-11.333-2.5-14-7.5
	S106.333,43.5,109,38.5z M36,234l17-122c1.333-6.667,7-10,17-10h293c10,0,15.667,3.333,17,10l17,124c0.667,2,1,3.333,1,4
	c0,4.667-1.667,8.5-5,11.5s-7.667,4.5-13,4.5H53c-5.333,0-9.667-1.667-13-5s-5-7.667-5-13C35,236.667,35.333,235.333,36,234z
	 M89,383.5c-6.667,6.333-14.5,9.5-23.5,9.5s-16.833-3.167-23.5-9.5s-10-14-10-23s3.333-16.667,10-23s14.5-9.5,23.5-9.5
	s16.833,3.167,23.5,9.5s10,14,10,23S95.667,377.167,89,383.5z M391,383.5c-6.667,6.333-14.5,9.5-23.5,9.5s-16.833-3.167-23.5-9.5
	s-10-14-10-23s3.333-16.667,10-23s14.5-9.5,23.5-9.5s16.833,3.167,23.5,9.5s10,14,10,23S397.667,377.167,391,383.5z"/>
</svg>
