<?xml version="1.0" encoding="utf-8"?>
<!-- Generator: Adobe Illustrator 16.0.4, SVG Export Plug-In . SVG Version: 6.00 Build 0)  -->
<!DOCTYPE svg PUBLIC "-//W3C//DTD SVG 1.1//EN" "http://www.w3.org/Graphics/SVG/1.1/DTD/svg11.dtd">
<svg version="1.1" id="Capa_1" xmlns="http://www.w3.org/2000/svg" xmlns:xlink="http://www.w3.org/1999/xlink" x="0px" y="0px"
	 width="471px" height="485px" viewBox="0 0 471 485" enable-background="new 0 0 471 485" xml:space="preserve">
<path d="M463,64l8-6l-20-23l-7,6c-12,10.667-20.5,18.667-25.5,24S408.333,77.333,403,86s-9.333,18-12,28c-6.673,24-9.339,55-8,93
	c0.667,32.667,4.333,57.333,11,74l3,8c14,34.667,21,65.333,21,92c0,48.667-19.667,73-59,73c-35.333,0-54.333-23.333-57-70
	c-0.667-13.333,3-37.667,11-73c7.336-30.667,11.669-54.333,13-71c3.331-28-0.336-47.667-11-59c-10-11.333-27.667-17-53-17h-6V22
	c0-6-2-11.167-6-15.5S241,0,235,0H24C18,0,12.5,2.167,7.5,6.5S0,16,0,22v450h256V195h6c16,0,26,2,30,6c4.667,5.333,6,17,4,35
	c-2,16-6.333,38.667-13,68c-8.669,38-12.336,65.333-11,82c1.334,31.333,9.668,55.667,25,73c15.333,17.333,36,26,62,26
	c28,0,49.833-9.167,65.5-27.5S448,413.667,448,381c0-30.667-7.667-65.333-23-104l-3-8c-4.668-12-7.335-31-8-57
	c13.333-0.667,22.333-1,27-1c11.333,0,18.333-6.333,21-19c0.667-4,0.833-6.833,0.5-8.5s-0.667-5.333-1-11S461,162,461,158v-5
	c0-21.333-1.5-36.833-4.5-46.5S448.667,89,442,83c2-2,5.5-5.167,10.5-9.5S461,66,463,64z M226,175H31V41h195V175z M412,181
	c0.667-21.333,3.333-41,8-59c0-1.339,0.333-3.672,1-7c0.667-3.339,1.333-5.672,2-7c5.333,4.667,8,19.667,8,45v5
	c0,2.667,0.333,6.667,1,12s1,9,1,11H412z"/>
</svg>
