<?xml version="1.0" encoding="utf-8"?>
<!-- Generator: Adobe Illustrator 16.0.4, SVG Export Plug-In . SVG Version: 6.00 Build 0)  -->
<!DOCTYPE svg PUBLIC "-//W3C//DTD SVG 1.1//EN" "http://www.w3.org/Graphics/SVG/1.1/DTD/svg11.dtd">
<svg version="1.1" id="Capa_1" xmlns="http://www.w3.org/2000/svg" xmlns:xlink="http://www.w3.org/1999/xlink" x="0px" y="0px"
	 width="492px" height="348px" viewBox="0 0 492 348" enable-background="new 0 0 492 348" xml:space="preserve">
<g>
	<path d="M484.5,7.5c-5-5-11.167-7.5-18.5-7.5H26C19.333,0,13.333,2.5,8,7.5S0,18.333,0,25s2.667,12.667,8,18s11.333,8,18,8h6v51
		h429V51h5c7.333,0,13.5-2.667,18.5-8s7.5-11.333,7.5-18S489.5,12.5,484.5,7.5z M255,73c-2.667,2.667-5.667,4-9,4s-6.333-1.333-9-4
		s-4-5.833-4-9.5s1.333-6.833,4-9.5s5.667-4,9-4s6.333,1.333,9,4c2.667,2.671,4,5.838,4,9.5C259,67.169,257.667,70.336,255,73z"/>
	<path d="M32,204h429v-81H32V204z M237,153c2.667-2.667,5.667-4,9-4s6.333,1.333,9,4s4,5.833,4,9.5s-1.333,6.833-4,9.5s-5.667,4-9,4
		s-6.333-1.333-9-4c-2.667-2.668-4-5.835-4-9.5C233,158.833,234.333,155.666,237,153z"/>
	<path d="M32,275v27v33c0,8.667,2.667,13,8,13h52c6.667,0,10-4.333,10-13v-38h289v38c0,8.667,3,13,9,13h52c6,0,9-4.333,9-13v-33v-27
		v-50H32V275z M237,252.5c2.667-2.333,5.667-3.5,9-3.5s6.333,1.167,9,3.5s4,5.333,4,9s-1.333,6.833-4,9.5s-5.667,4-9,4
		s-6.333-1.333-9-4s-4-5.833-4-9.5S234.333,254.833,237,252.5z"/>
</g>
</svg>
