<?xml version="1.0" encoding="utf-8"?>
<!-- Generator: Adobe Illustrator 16.0.4, SVG Export Plug-In . SVG Version: 6.00 Build 0)  -->
<!DOCTYPE svg PUBLIC "-//W3C//DTD SVG 1.1//EN" "http://www.w3.org/Graphics/SVG/1.1/DTD/svg11.dtd">
<svg version="1.1" id="Capa_1" xmlns="http://www.w3.org/2000/svg" xmlns:xlink="http://www.w3.org/1999/xlink" x="0px" y="0px"
	 width="430.189px" height="492px" viewBox="0 0 430.189 492" enable-background="new 0 0 430.189 492" xml:space="preserve">
<path d="M429,286l-1-3c-5.334-14-11.668-23-19-27c-4.668-3.333-12.668-6-24-8c-5.334-0.668-9.334-1.335-12-2
	c-0.668-0.668-1.668-1.335-3-2c-9.334-7.333-30.834-16.167-64.5-26.5C271.832,207.166,248,195.332,234,182C176,130,124,69.333,78,0
	L13,52l-3.5,2.5c-2.333,1.667-4,3-5,4s-2,2.667-3,5S0,68.667,0,72c0,6,4.667,7.667,14,5l37-12l103,143v78v18c0,4,1.167,8.5,3.5,13.5
	s6.167,9.167,11.5,12.5l-39,162h26l24-77l25-38v39v76h30V364c0-2,0.332-4.5,1-7.5c0.666-3,3.166-6.833,7.5-11.5
	c4.332-4.667,10.332-7,18-7c7.666,0,13.5,2.167,17.5,6.5s6.332,8.5,7,12.5l1,7v91v37h20V389l57,103h26
	c-4-11.333-10.334-23.333-19-36c-8.668-12.667-13-26-13-40v-26c0-9.333,5.166-22.5,15.5-39.5c10.332-17,15.5-29.833,15.5-38.5v-26
	c0-6-0.668-11.667-2-17c5.332,1.335,9.332,2.668,12,4c3.34,2,6.672,8,10,18l1,3c2.666,6,7.166,7.833,13.5,5.5
	C429.84,297.167,431.674,292.667,429,286z"/>
</svg>
