<?xml version="1.0" encoding="utf-8"?>
<!-- Generator: Adobe Illustrator 16.0.4, SVG Export Plug-In . SVG Version: 6.00 Build 0)  -->
<!DOCTYPE svg PUBLIC "-//W3C//DTD SVG 1.1//EN" "http://www.w3.org/Graphics/SVG/1.1/DTD/svg11.dtd">
<svg version="1.1" id="Capa_1" xmlns="http://www.w3.org/2000/svg" xmlns:xlink="http://www.w3.org/1999/xlink" x="0px" y="0px"
	 width="148.508px" height="129.918px" viewBox="0 0 148.508 129.918" enable-background="new 0 0 148.508 129.918"
	 xml:space="preserve">
<path d="M129.795,91.159c3.822,0,7.143-1.459,9.961-4.377c2.816-2.918,4.225-6.39,4.225-10.412c0-4.025-1.408-7.445-4.225-10.264
	c-2.818-2.818-6.139-4.226-9.961-4.226c-3.824,0-7.145,1.407-9.961,4.226c-2.818,2.816-4.227,6.237-4.227,10.264
	c0,4.023,1.408,7.496,4.227,10.412C122.65,89.7,125.971,91.159,129.795,91.159z"/>
<path d="M140.66,123.758c0.604,0.201,1.107,0.303,1.51,0.303c1.811,0,3.32-0.654,4.527-1.964c1.207-1.308,1.811-2.866,1.811-4.678
	c0-3.019-1.309-5.132-3.924-6.339l-19.619-7.85l-14.188-26.26c-0.805-1.812-2.615-3.221-5.434-4.227L58.86,53.125L31.089,4.527
	C29.278,1.508,26.663,0,23.241,0c-2.615,0-4.829,0.956-6.641,2.868c-1.811,1.912-2.717,4.175-2.717,6.792
	c0,1.61,0.403,3.119,1.208,4.528l34.411,60.369L27.467,65.5l-5.434,3.924l87.234,35.619l3.623,5.734
	c0.805,2.012,2.615,3.521,5.434,4.526l10.865,4.228c-2.012,2.213-4.527,3.621-7.547,4.226c-3.018,0.604-5.131,0.806-6.338,0.604
	s-2.213-0.402-3.02-0.604L6.036,79.385L0,83.008l111.985,45.578c4.428,1.609,8.402,1.762,11.924,0.453s6.439-2.768,8.752-4.377
	c2.314-1.609,3.473-2.516,3.473-2.717L140.66,123.758L140.66,123.758z"/>
</svg>
