<?xml version="1.0" encoding="utf-8"?>
<!-- Generator: Adobe Illustrator 16.0.4, SVG Export Plug-In . SVG Version: 6.00 Build 0)  -->
<!DOCTYPE svg PUBLIC "-//W3C//DTD SVG 1.1//EN" "http://www.w3.org/Graphics/SVG/1.1/DTD/svg11.dtd">
<svg version="1.1" id="Capa_1" xmlns="http://www.w3.org/2000/svg" xmlns:xlink="http://www.w3.org/1999/xlink" x="0px" y="0px"
	 width="266.516px" height="491.667px" viewBox="0 0 266.516 491.667" enable-background="new 0 0 266.516 491.667"
	 xml:space="preserve">
<path d="M81.333,83c-10,0-18.667,3.5-26,10.5s-11,15.5-11,25.5s3.667,18.5,11,25.5s16,10.5,26,10.5s18.5-3.5,25.5-10.5
	s10.5-15.5,10.5-25.5s-3.5-18.5-10.5-25.5S91.333,83,81.333,83z"/>
<path d="M266.334,154c-0.673-3.333-3.339-7.333-8-12l-214-142l-20,29c-4.667,6.667-3.667,12.334,3,17c6.667,4.667,12.333,3.667,17-3
	l12-17l174,115l-143,26c-4.667,0.667-8.667,3.167-12,7.5s-4.333,8.833-3,13.5l31,121l-100,150c-3.333,5.334-4.167,11-2.5,17
	s5.167,10.334,10.5,13s10.833,3.334,16.5,2s10.167-4.666,13.5-10c69.333-105.332,104.333-158.332,105-159l5,22l-16,119
	c-0.665,5.334,0.669,10.5,4,15.5c3.333,5,8,8,14,9s11.5-0.334,16.5-4s7.833-8.166,8.5-13.5l16-122c0.667-4,0.667-8.332,0-13l-36-143
	l93-16c4.667-1.333,8.5-4,11.5-8S267.001,159.333,266.334,154z"/>
</svg>
