<?xml version="1.0" encoding="utf-8"?>
<!-- Generator: Adobe Illustrator 16.0.4, SVG Export Plug-In . SVG Version: 6.00 Build 0)  -->
<!DOCTYPE svg PUBLIC "-//W3C//DTD SVG 1.1//EN" "http://www.w3.org/Graphics/SVG/1.1/DTD/svg11.dtd">
<svg version="1.1" id="Capa_1" xmlns="http://www.w3.org/2000/svg" xmlns:xlink="http://www.w3.org/1999/xlink" x="0px" y="0px"
	 width="490px" height="454.5px" viewBox="0 0 490 454.5" enable-background="new 0 0 490 454.5" xml:space="preserve">
<g>
	<path d="M246,251.25c-55.333,0-99.667,14-133,42v47h266v-47C345.667,265.25,301.333,251.25,246,251.25z"/>
	<path d="M490,227.25l-245-113l-245,113l41,19v29c-6.667,1.333-10,6-10,14c0,4,1.333,7.333,4,10l-14,30h50l-14-30
		c2.667-2.667,4-6,4-10c0-2.667-1.667-5.667-5-9l-5-5v-24l52,23v-2c33.333-29.333,81-44,143-44s109.667,14.667,143,44v2L490,227.25z
		"/>
</g>
</svg>
