<svg width="450" xmlns="http://www.w3.org/2000/svg" height="492" viewBox="0 0 450 492" xmlns:xlink="http://www.w3.org/1999/xlink" enable-background="new 0 0 450 492">
<path d="M348,0c-2.667,0-5,1-7,3s-3,4.333-3,7v144c0,2.667-1,5-3,7s-4.667,3-8,3H123c-3.333,0-6-1-8-3s-3-4.333-3-7V10  c0-2.667-1-5-3-7s-4.333-3-7-3H10C7.333,0,5,1,3,3s-3,4.333-3,7v472c0,2.667,1,5,3,7s4.333,3,7,3h92c2.667,0,5-1,7-3s3-4.333,3-7  V318c0-3.333,1-6,3-8s4.667-3,8-3h204c3.333,0,6,1,8,3s3,4.667,3,8v164c0,2.667,1,5,3,7s4.333,3,7,3h92c2.667,0,5-1,7-3s3-4.333,3-7  V10c0-2.667-1-5-3-7s-4.333-3-7-3H348z"/>
</svg>
