<?xml version="1.0" encoding="utf-8"?>
<!-- Generator: Adobe Illustrator 16.0.4, SVG Export Plug-In . SVG Version: 6.00 Build 0)  -->
<!DOCTYPE svg PUBLIC "-//W3C//DTD SVG 1.1//EN" "http://www.w3.org/Graphics/SVG/1.1/DTD/svg11.dtd">
<svg version="1.1" id="Capa_1" xmlns="http://www.w3.org/2000/svg" xmlns:xlink="http://www.w3.org/1999/xlink" x="0px" y="0px"
	 width="450px" height="492px" viewBox="0 0 450 492" enable-background="new 0 0 450 492" xml:space="preserve">
<g>
	<path d="M440,103H92c-2.667,0-5,1-7,3s-3,4.333-3,7v297c0,2.667,1,5,3,7s4.333,3,7,3h348c2.667,0,5-1,7-3s3-4.333,3-7V113
		c0-2.667-1-5-3-7S442.667,103,440,103z M390.5,254c-0.333,1.333-1.833,2-4.5,2h-7c-3.333,0-6,1-8,3s-3,4.333-3,7v113
		c0,2.667-1,5-3,7s-4.333,3-7,3h-51c-2.667,0-5-1-7-3s-3-4.333-3-7v-82c0-2.667-1-5-3-7s-4.667-3-8-3h-41c-2.667,0-5,1-7,3
		s-3,4.333-3,7v82c0,2.667-1,5-3,7s-4.333,3-7,3h-51c-2.667,0-5-1-7-3s-3-4.333-3-7V266c0-2.667-1-5-3-7s-4.667-3-8-3h-8
		c-2.667,0-4.333-0.667-5-2s0-2.667,2-4l117-100c5.333-4.667,10.333-4.667,15,0l114,100C390,251.334,390.833,252.667,390.5,254z"/>
	<path d="M447,54c-2-2-4.333-3-7-3H71c-2.667,0-5-1-7-3s-3-4.333-3-7V10c0-2.667-1-5-3-7s-4.333-3-7-3H10C7.333,0,5,1,3,3
		s-3,4.333-3,7v472c0,2.667,1,5,3,7s4.333,3,7,3h41c2.667,0,5-1,7-3s3-4.333,3-7V92c0-2.667,1-5,3-7s4.333-3,7-3h369
		c2.667,0,5-1,7-3s3-4.333,3-7V62C450,58.667,449,56,447,54z"/>
</g>
</svg>
