<?xml version="1.0" encoding="utf-8"?>
<!-- Generator: Adobe Illustrator 16.0.4, SVG Export Plug-In . SVG Version: 6.00 Build 0)  -->
<!DOCTYPE svg PUBLIC "-//W3C//DTD SVG 1.1//EN" "http://www.w3.org/Graphics/SVG/1.1/DTD/svg11.dtd">
<svg version="1.1" id="Capa_1" xmlns="http://www.w3.org/2000/svg" xmlns:xlink="http://www.w3.org/1999/xlink" x="0px" y="0px"
	 width="346px" height="472px" viewBox="0 0 346 472" enable-background="new 0 0 346 472" xml:space="preserve">
<g>
	<path d="M340,6.5c-4-4.333-9-6.5-15-6.5H21C15,0,10,2.167,6,6.5S0,16,0,22v428c0,6,2,11.167,6,15.5s9,6.5,15,6.5h304
		c6,0,11-2.167,15-6.5s6-9.5,6-15.5V22C346,16,344,10.833,340,6.5z M274,334c-26,26-57.5,39-94.5,39s-68.667-13-95-39
		S45,276.5,45,239.5s13.167-68.667,39.5-95s58-39.5,95-39.5s68.5,13.167,94.5,39.5s39,58,39,95S300,308,274,334z"/>
	<path d="M179.5,211c-7.667,0-14.333,2.833-20,8.5s-8.5,12.333-8.5,20s2.833,14.167,8.5,19.5c5.668,5.333,12.334,8,20,8
		c7.667,0,14.167-2.667,19.5-8s8-11.833,8-19.5s-2.667-14.334-8-20C193.667,213.833,187.167,211,179.5,211z"/>
</g>
</svg>
