<?xml version="1.0" encoding="utf-8"?>
<!-- Generator: Adobe Illustrator 16.0.4, SVG Export Plug-In . SVG Version: 6.00 Build 0)  -->
<!DOCTYPE svg PUBLIC "-//W3C//DTD SVG 1.1//EN" "http://www.w3.org/Graphics/SVG/1.1/DTD/svg11.dtd">
<svg version="1.1" id="Capa_1" xmlns="http://www.w3.org/2000/svg" xmlns:xlink="http://www.w3.org/1999/xlink" x="0px" y="0px"
	 width="492px" height="465.09px" viewBox="0 0 492 465.09" enable-background="new 0 0 492 465.09" xml:space="preserve">
<g>
	<path d="M376.5,224c-37,6-66.5,12.833-88.5,20.5s-42.667,16.667-62,27S194.333,289,189,293l-12,9c0,0.665,0.333,1.332,1,2
		c0.667,0.665,1,1.332,1,2c0,2,0.667,3.667,2,5l83,39c3.333,2,5,4.333,5,7c0,6-2.667,9-8,9l-92-1c-2.667,0-4,1-4,3
		c0,0.667-0.167,1.167-0.5,1.5s-0.5,0.833-0.5,1.5c82,64.667,191.333,96,328,94V216C452,215.333,413.5,218,376.5,224z M317.5,319
		c-3.667,4-8.167,6-13.5,6s-10-2-14-6s-6-8.667-6-14s2-9.833,6-13.5s8.667-5.5,14-5.5s9.833,1.833,13.5,5.5s5.5,8.167,5.5,13.5
		S321.167,315,317.5,319z"/>
	<rect width="92" height="72"/>
	<rect x="185" width="307" height="72"/>
	<path d="M144,108V0h-11v108c-8.667,2-13,8-13,18s4.333,16.333,13,19v120c0,8-3,14.667-9,20s-13,8-21,8s-14.833-2.667-20.5-8
		S74,273,74,265c0-4.667,0.333-8,1-10h1l10,9l-6-54l-16,37c-2,3.333-3.167,6.5-3.5,9.5S60,261.667,60,263v2
		c0,11.333,4.167,21,12.5,29s18.167,12,29.5,12s21.167-4,29.5-12s12.5-17.667,12.5-29V145c8.667-2.667,13-9,13-19
		S152.667,110,144,108z"/>
</g>
</svg>
