<?xml version="1.0" encoding="utf-8"?>
<!-- Generator: Adobe Illustrator 16.0.4, SVG Export Plug-In . SVG Version: 6.00 Build 0)  -->
<!DOCTYPE svg PUBLIC "-//W3C//DTD SVG 1.1//EN" "http://www.w3.org/Graphics/SVG/1.1/DTD/svg11.dtd">
<svg version="1.1" id="Capa_1" xmlns="http://www.w3.org/2000/svg" xmlns:xlink="http://www.w3.org/1999/xlink" x="0px" y="0px"
	 width="491.667px" height="307.924px" viewBox="0 0 491.667 307.924" enable-background="new 0 0 491.667 307.924"
	 xml:space="preserve">
<polygon points="175,148.923 81,95.923 114,38.923 208,91.923 "/>
<polygon points="363,197.924 204,108.923 188,136.923 347,226.924 "/>
<polygon points="383,208.924 366,237.924 448,283.924 465,255.924 "/>
<path d="M361,237.924c-2,2.667-4.666,3-8,1c-3.332-2-4.332-4.333-3-7l19-34c2-2.667,4.668-3,8-1c3.334,2,4.332,4.333,3,7
	L361,237.924z"/>
<path d="M482,255.924c-3.332-1.333-7-2-11-2l-21,37c2,3.333,4.668,5.666,8,7c4.668,2.667,9.5,3.333,14.5,2c5-1.334,8.834-4,11.5-8
	l5-10c2.668-4.667,3.334-9.5,2-14.5C489.667,262.424,486.667,258.591,482,255.924z"/>
<path d="M217.5,80.923c-3,5.333-7.167,6.333-12.5,3l-83-46c-5.333-3.336-6.5-7.669-3.5-13c3-5.333,7.167-6.333,12.5-3l83,46
	C219.333,71.256,220.5,75.59,217.5,80.923z"/>
<path d="M228.5,60.923c-3,5.333-7.167,6.333-12.5,3l-82-46c-5.333-3.336-6.5-7.669-3.5-13c3-5.333,7.167-6.333,12.5-3l82,46
	C230.333,51.256,231.5,55.59,228.5,60.923z"/>
<path d="M159.5,182.924c-3,5.333-7.5,6.333-13.5,3l-82-46.001c-5.333-3.333-6.5-7.667-3.5-13s7.167-6.333,12.5-3l83,46.001
	C161.333,173.258,162.5,177.591,159.5,182.924z"/>
<path d="M170.5,162.924c-3,5.333-7.167,6.333-12.5,3l-83-46.001c-4.667-3.335-5.5-7.669-2.5-13c3-5.333,7.167-6.333,12.5-3l82,46
	C172.333,153.257,173.5,157.592,170.5,162.924z"/>
<rect x="32" y="244.924" width="146" height="17"/>
<path d="M209,279.924c-0.667-6.667-4.333-10-11-10H12c-6.667,0-10.667,3.333-12,10v28h210v-28H209z"/>
</svg>
