<?xml version="1.0" encoding="utf-8"?>
<!-- Generator: Adobe Illustrator 16.0.4, SVG Export Plug-In . SVG Version: 6.00 Build 0)  -->
<!DOCTYPE svg PUBLIC "-//W3C//DTD SVG 1.1//EN" "http://www.w3.org/Graphics/SVG/1.1/DTD/svg11.dtd">
<svg version="1.1" id="Capa_1" xmlns="http://www.w3.org/2000/svg" xmlns:xlink="http://www.w3.org/1999/xlink" x="0px" y="0px"
	 width="451.232px" height="492px" viewBox="0 0 451.232 492" enable-background="new 0 0 451.232 492" xml:space="preserve">
<path d="M327,78c10.668,0,19.668-3.833,27-11.5c7.334-7.667,11-16.833,11-27.5s-3.666-19.833-11-27.5C346.668,3.833,337.668,0,327,0
	s-19.834,3.833-27.5,11.5C291.834,19.168,288,28.335,288,39c0,10.667,3.834,19.834,11.5,27.5C307.168,74.167,316.334,78,327,78z"/>
<path d="M164,235l138-90c8.668-6,14.168-14.167,16.5-24.5c2.332-10.335,0.666-20.168-5-29.5c-5.666-9.334-13.667-15.167-24-17.5
	C279.168,71.167,269.668,73,261,79l-102,66c-6,4-10.333,9-13,15L40,371c-3.333,6.667-4,13.167-2,19.5s6.167,11.167,12.5,14.5
	s12.667,3.833,19,1.5S80.667,400,84,394L164,235z"/>
<path d="M433,220c8.668-5.333,14.334-13.333,17-24c2.668-10.667,1-20.667-5-30l-13,8c3.334,6,4.334,12.167,3,18.5
	c-1.332,6.333-5,11.167-11,14.5L0,478l9,14L433,220z"/>
</svg>
