<?xml version="1.0" encoding="utf-8"?>
<!-- Generator: Adobe Illustrator 16.0.4, SVG Export Plug-In . SVG Version: 6.00 Build 0)  -->
<!DOCTYPE svg PUBLIC "-//W3C//DTD SVG 1.1//EN" "http://www.w3.org/Graphics/SVG/1.1/DTD/svg11.dtd">
<svg version="1.1" id="Capa_1" xmlns="http://www.w3.org/2000/svg" xmlns:xlink="http://www.w3.org/1999/xlink" x="0px" y="0px"
	 width="492.684px" height="417.958px" viewBox="0 0 492.684 417.958" enable-background="new 0 0 492.684 417.958"
	 xml:space="preserve">
<g>
	<path d="M151.684,116.229c12-9.333,18.667-14,20-14l33-2l6.5,6c4.333,4,9.5,7.5,15.5,10.5s10.667,3.167,14,0.5
		c4.669-2.667,7.667-6.333,9-11c-1.332-3.336-6.667-7.669-16-13c-2.667-2-6-5-10-9s-8-6.667-12-8
		c-4.667-0.667-11.167-1.167-19.5-1.5s-13.5-0.5-15.5-0.5c-1.334-0.667-7.667,0.833-19,4.5s-21,7.5-29,11.5
		c-4.667,2.656-4.667,2.323,0-1c18-13.333,28.667-22.333,32-27c10-2.667,17-5,21-7s8-3.667,12-5c12.667-2,19.667-3.333,21-4
		c4.667-1.333,8-4.333,10-9s1-8.667-3-12c-2.667-1.333-5.333-1.833-8-1.5s-7,1-13,2s-10.667,1.5-14,1.5
		c-8.667,0.667-22.333,6.334-41,17c-6.667,3.333-14.167,8.333-22.5,15c-8.333,6.669-13.167,10.336-14.5,11c-8.667,6.667,0-6,26-38
		c1.333-1.339,2.833-3.173,4.5-5.5c1.667-2.34,3.167-4.173,4.5-5.5c2-3.336,2.833-6.67,2.5-10c-0.333-3.334-1.5-6.167-3.5-8.5
		c-2-2.346-3.667-3.18-5-2.5c-1.334,0.667-3.668,3.167-7,7.5c-3.333,4.333-6,7.167-8,8.5c-0.667,0-1.833,1.167-3.5,3.5
		s-3.834,5.167-6.5,8.5c-2.667,3.333-5,6-7,8c-0.667,1.333-2.667,3.5-6,6.5s-6,5.833-8,8.5c-2.667,4-5.667,9.167-9,15.5
		s-6,10.833-8,13.5c-1.333,1.333-3.333,3.5-6,6.5s-4.667,5.833-6,8.5c-6.667,13.333-12.667,29-18,47s-11.667,32-19,42
		c-2.667,4.667-10.667,10.333-24,17c-5.333,44.666,2,80.666,22,108c14.667-8.668,26.5-14.334,35.5-17c9-2.668,19.833-4,32.5-4
		c3.334,0.666,7.667,1.666,13,3c5.334,1.332,9.667,2,13,2c0.667-0.668,8.667-3,24-7c4.667-2,10.834-4.334,18.5-7
		c7.667-2.668,13.834-5,18.5-7c2.667-0.668,6.834-1.668,12.5-3c5.667-1.334,10.5-2.668,14.5-4c1.333-0.668,3-1,5-1
		c1.333-0.668,2.333-1.5,3-2.5s1.667-2.168,3-3.5c2.667-3.334,5-8.334,7-15c2-6.668,3.667-11.668,5-15
		c4.667-9.334,7.167-15.668,7.5-19c0.333-3.333-0.833-5.333-3.5-6c2.667-8.667,3.667-17.667,3-27c0-2.667,0.167-5.167,0.5-7.5
		c0.333-2.337,0-4.671-1-7c-1-2.337-2.833-4.171-5.5-5.5c-26-20.667-40.333-31-43-31c-26.667,0.667-44,3.667-52,9
		c-1.592,0.796-2.576,1.349-2.98,1.669c-0.012,0.127-0.02,0.24-0.02,0.331c-0.269,0-0.253-0.114,0.02-0.331
		c0.078-0.811,0.404-2.365,0.98-4.669C133.351,130.562,139.684,125.562,151.684,116.229z M132.184,180.229
		c0.333-0.667,0.833-1.5,1.5-2.5s1.5-1.833,2.5-2.5s2.167-1.333,3.5-2c3.333-2.663,8.166-4.829,14.5-6.5
		c6.333-1.667,14.5-5.167,24.5-10.5l1,1c0.667,0.667,1.833,1.667,3.5,3s3.667,2.833,6,4.5s5,3.167,8,4.5c3,1.329,6.167,2.663,9.5,4
		l1.5,5.5c1,3.667,2.667,8,5,13s4.833,8.833,7.5,11.5c-6.666,4.667-11.832,9.667-15.5,15c-3.667,5.332-6,9.332-7,12
		c-1,2.666-1.833,4-2.5,4c-17.333-2.668-32.333-1.668-45,3c-3.333-6.668-7.667-12.334-13-17c-5.333-4.668-9-8.334-11-11
		c-2-2.667-2.333-6.333-1-11c0.667-1.333,1.333-3.333,2-6s1.167-4.333,1.5-5s0.833-1.833,1.5-3.5S131.851,180.896,132.184,180.229z"
		/>
	<path d="M491.684,175.23c-0.666-6-1.5-11.667-2.5-17c-1-5.334-2.166-10.167-3.5-14.5c-1.332-4.333-2.832-8.5-4.5-12.5
		c-1.666-4-3.166-7.333-4.5-10c-1.332-2.667-2.666-4.833-4-6.5c-1.332-1.667-2.332-3-3-4l-1-1.5c-14,8-25.5,13.5-34.5,16.5
		s-20.166,4.167-33.5,3.5c-2.666,0-6.666-0.667-12-2c-5.332-1.333-10-2-14-2c-2,0-10,2.667-24,8c-4.666,1.333-10.83,3.333-18.498,6
		s-13.836,5-18.5,7c-2.668,0.667-6.836,1.5-12.5,2.5c-5.666,1-10.166,2.167-13.5,3.5c-1.332,0.671-2.832,1.338-4.5,2
		c-1.666,0.667-3,1.5-4,2.5s-1.832,2.167-2.5,3.5c-2.666,3.333-5,8.167-7,14.5s-4,11.5-6,15.5c-4.666,9.334-7,15.667-7,18.999
		c0,3.334,1.334,5.334,4,6c-3.332,8.668-4.666,17.668-4,27c0.668,2.668,0.834,5.168,0.5,7.5c-0.332,2.334,0,4.5,1,6.5s2.834,4,5.5,6
		c26.668,20,41,30.334,43,31c27.334-1.332,44.666-4.666,51.998-10l3-1c0.668-0.666,0.334,1-1,5c-0.666,0.668-7,5.5-18.998,14.5
		c-12,9-19,13.5-21,13.5l-32,3l-7-6.5c-4.668-4.332-9.834-7.832-15.5-10.5c-5.666-2.666-10.5-2.666-14.5,0c-4,2.668-7,6.334-9,11
		c1.333,2.668,7,7.334,17,14c2.668,1.334,6,4,10,8s8,6.668,12,8c4.668,0.668,11.168,1,19.5,1c8.336,0,13.17,0.334,14.5,1
		c2,0,8.668-1.832,20-5.5c11.332-3.666,20.998-7.5,28.998-11.5c4.668-2.666,4.668-2,0,2c-18,13.334-28.664,22-31.998,26
		c-10,3.334-17,6-21,8s-8,3.334-12,4c-12.666,2.668-19.666,4.334-21,5c-4.666,1.334-8,4.168-10,8.5c-2,4.334-1.332,8.168,2,11.5
		c3.338,1.334,6.172,1.834,8.5,1.5c2.334-0.332,6.5-1,12.5-2s11-1.5,15-1.5c7.334,0,21-5.332,40.998-16
		c4.668-2.666,9.168-5.666,13.5-9c4.336-3.332,8.67-6.832,13-10.5c4.334-3.666,7.5-6.166,9.5-7.5c9.332-6,0.666,7-26,39
		c-0.678,1.334-1.844,3-3.5,5c-1.666,2-3.5,4-5.5,6c-2,3.334-2.666,6.668-2,10c0.668,3.334,1.834,6.168,3.5,8.498
		c1.668,2.338,3.5,2.838,5.5,1.5c1.334-0.662,3.5-3,6.5-6.998c3-4,5.5-6.666,7.5-8c0.668-0.666,1.834-2,3.5-4
		c1.668-2,3.834-4.666,6.5-8c2.668-3.332,5-6,7-8l7.5-7.5c3-3,5.168-5.5,6.5-7.5c3.341-4,6.675-9.166,10-15.5
		c3.334-6.332,6-11.166,8-14.5c0.668-0.666,2.334-2.5,5-5.5c2.668-3,5-5.832,7-8.5c6.668-13.332,12.5-29.167,17.5-47.5
		c5-18.332,11.168-32.5,18.5-42.5c3.334-4,11.334-9.332,24-16c1.334-7.332,2-14.667,2-21.999
		C492.684,187.897,492.352,181.23,491.684,175.23z M367.684,219.229c-3.332,10-5.5,16-6.5,18s-3.5,4.668-7.5,8
		c-4,2.666-9.166,4.832-15.498,6.5s-14.164,5.168-23.5,10.5l-3-3c-2-2-5.5-4.5-10.5-7.5s-9.832-5.166-14.5-6.5v-1
		c0-0.666-0.166-1.332-0.5-2c-0.328-0.666-0.662-1.666-1-3c-0.332-1.332-0.832-2.664-1.5-4c-0.666-1.332-1.166-2.664-1.5-4
		c-0.332-1.332-0.832-2.832-1.5-4.5c-0.666-1.666-1.5-3.166-2.5-4.5l-3-4c-1-1.332-1.832-2.332-2.5-3c6-4.667,11-9.667,15-14.999
		c4-5.333,6.5-9.333,7.5-12s1.834-4,2.5-4c18,2,32.668,0.667,44-4c3.998,7.333,8.498,13.333,13.498,18
		c5,4.666,8.668,8.332,11,10.999C368.518,211.897,369.018,215.229,367.684,219.229z"/>
</g>
</svg>
