<?xml version="1.0" encoding="utf-8"?>
<!-- Generator: Adobe Illustrator 16.0.4, SVG Export Plug-In . SVG Version: 6.00 Build 0)  -->
<!DOCTYPE svg PUBLIC "-//W3C//DTD SVG 1.1//EN" "http://www.w3.org/Graphics/SVG/1.1/DTD/svg11.dtd">
<svg version="1.1" id="Capa_1" xmlns="http://www.w3.org/2000/svg" xmlns:xlink="http://www.w3.org/1999/xlink" x="0px" y="0px"
	 width="472px" height="496px" viewBox="0 0 472 496" enable-background="new 0 0 472 496" xml:space="preserve">
<path d="M0,461h328V31H0V461z M41,72h246v338H41V72z"/>
<rect x="72" y="113" width="184" height="41"/>
<rect x="72" y="185" width="184" height="41"/>
<rect x="72" y="256" width="184" height="41"/>
<rect x="72" y="328" width="184" height="41"/>
<rect x="390" y="113" width="82" height="287"/>
<path d="M459.5,12c-8.333-8-18-12-29-12S410,4,402,12s-12,17.667-12,29v41h82V41C472,29.667,467.833,20,459.5,12z"/>
<polygon points="430,496 472,430 389,430 "/>
</svg>
