<svg width="328" xmlns="http://www.w3.org/2000/svg" height="492" viewBox="0 0 328 492" xmlns:xlink="http://www.w3.org/1999/xlink" enable-background="new 0 0 328 492">
<path d="M25.5,0c-7,0-13,2.5-18,7.5S0,18.667,0,26v26v26v155v233c0,6.667,2.667,12.667,8,18s11.167,8,17.5,8s12.167-2.667,17.5-8  s8-11.333,8-18V201c9.333-4.667,17.667-7,25-7c16.667,0,45.834,10.833,87.5,32.5c41.667,21.667,71.167,32.5,88.5,32.5  c28,0,53.333-8.667,76-26V52c-11.333,8.667-20,15.167-26,19.5s-13.833,8.667-23.5,13S260,91,252,91c-16.667,0-46-10.833-88-32.5  S92.667,26,76,26c-6,0-14.333,1-25,3v-3c0-7.333-2.5-13.5-7.5-18.5S32.5,0,25.5,0z"/>
</svg>
