<?xml version="1.0" encoding="utf-8"?>
<!-- Generator: Adobe Illustrator 16.0.4, SVG Export Plug-In . SVG Version: 6.00 Build 0)  -->
<!DOCTYPE svg PUBLIC "-//W3C//DTD SVG 1.1//EN" "http://www.w3.org/Graphics/SVG/1.1/DTD/svg11.dtd">
<svg version="1.1" id="Capa_1" xmlns="http://www.w3.org/2000/svg" xmlns:xlink="http://www.w3.org/1999/xlink" x="0px" y="0px"
	 width="492px" height="328px" viewBox="0 0 492 328" enable-background="new 0 0 492 328" xml:space="preserve">
<g>
	<path d="M487,72H354h-1c-3.333,0-5-1.333-5-4V4c0-2.667-1.333-4-4-4H148c-2.667,0-4,1.333-4,4v64c0,2.667-2,4-6,4H5
		c-3.333,0-5,1.667-5,5v70c0,4.667,1.667,7,5,7h215c1.333,0,2.667-0.833,4-2.5s2-3.167,2-4.5v-15c0-6,1-9,3-9h34c2,0,3,3,3,9v15
		c0,1.333,0.667,2.833,2,4.5c1.334,1.667,2.667,2.5,4,2.5h215c3.333,0,5-2.333,5-7V77C492,73.667,490.333,72,487,72z M318,68
		c0,2.667-0.333,4-1,4H175c-0.667,0-1-1.333-1-4V32l1-1h142c0.667,0,1,0.333,1,1V68z"/>
	<path d="M487,164H272c-1.333,0-2.667,1.167-4,3.5c-1.333,2.335-2,4.168-2,5.5v51l1-2c0,2-1.333,3-4,3h-34c-2,0-3-0.333-3-1v-51
		c0-1.333-0.667-3.167-2-5.5c-1.334-2.333-2.667-3.5-4-3.5H5c-3.333,0-5,3-5,9v150c0,3.333,1.667,5,5,5h482c3.333,0,5-1.667,5-5V173
		C492,167,490.333,164,487,164z"/>
</g>
</svg>
