<?xml version="1.0" encoding="utf-8"?>
<!-- Generator: Adobe Illustrator 16.0.4, SVG Export Plug-In . SVG Version: 6.00 Build 0)  -->
<!DOCTYPE svg PUBLIC "-//W3C//DTD SVG 1.1//EN" "http://www.w3.org/Graphics/SVG/1.1/DTD/svg11.dtd">
<svg version="1.1" id="Capa_1" xmlns="http://www.w3.org/2000/svg" xmlns:xlink="http://www.w3.org/1999/xlink" x="0px" y="0px"
	 width="215.287px" height="497px" viewBox="0 0 215.287 497" enable-background="new 0 0 215.287 497" xml:space="preserve">
<path d="M121,72.5C113,80.833,103.166,85,91.5,85c-11.667,0-21.667-4.167-30-12.5S49,54.167,49,42.5s4.167-21.667,12.5-30
	C69.832,4.167,79.832,0,91.5,0C103.167,0,113,4.167,121,12.5s12,18.333,12,30S129,64.167,121,72.5z"/>
<path d="M14.5,110C4.833,118.667,0,130,0,144v127c0,6.667,2.667,11.333,8,14s10.5,2.667,15.5,0s7.5-7.334,7.5-14V149h10v327
	c0,14,6.833,21,20.5,21S82,490,82,476V282V97H52C36.667,97,24.167,101.333,14.5,110z"/>
<path d="M215,251l-41-106c-2-12-8.332-23-19-33c-10.666-10-22.666-15-36-15H93v244c6.666,0,10,0.667,10,2v133
	c0,5.333,2,10.167,6,14.5s8.668,6.5,14,6.5c5.336,0,10.17-2.167,14.5-6.5c4.334-4.333,6.5-9.167,6.5-14.5V343h39
	c2,0,4.334-1.167,7-3.5c2.668-2.333,4-4.5,4-6.5v-1v-9l-60-167c-0.666,0-1-0.333-1-1c0-3.333,1.668-5,5-5c2,0,3.334,1.333,4,4
	l41,107c3.336,6.667,10.668,10,22,10c4,0,6.834-2.833,8.5-8.5C215.168,256.833,215.668,253,215,251z"/>
</svg>
