<?xml version="1.0" encoding="utf-8"?>
<!-- Generator: Adobe Illustrator 16.0.4, SVG Export Plug-In . SVG Version: 6.00 Build 0)  -->
<!DOCTYPE svg PUBLIC "-//W3C//DTD SVG 1.1//EN" "http://www.w3.org/Graphics/SVG/1.1/DTD/svg11.dtd">
<svg version="1.1" id="Capa_1" xmlns="http://www.w3.org/2000/svg" xmlns:xlink="http://www.w3.org/1999/xlink" x="0px" y="0px"
	 width="489px" height="470.5px" viewBox="0 0 489 470.5" enable-background="new 0 0 489 470.5" xml:space="preserve">
<path d="M461,173.25c-18.668-16.667-41.334-25-68-25H96c-26.667,0-49.333,8.333-68,25s-28,37.333-28,62s9.333,45.333,28,62
	s41.333,25,68,25h297c26.667,0,49.333-8.333,68-25s28-37.334,28-62C489,210.583,479.667,189.917,461,173.25z M443,282.75
	c-14,13-30.667,19.5-50,19.5H246v-133h147c19.333,0,36,6.5,50,19.5s21,28.667,21,47S457,269.75,443,282.75z"/>
</svg>
