<?xml version="1.0" encoding="utf-8"?>
<!-- Generator: Adobe Illustrator 16.0.4, SVG Export Plug-In . SVG Version: 6.00 Build 0)  -->
<!DOCTYPE svg PUBLIC "-//W3C//DTD SVG 1.1//EN" "http://www.w3.org/Graphics/SVG/1.1/DTD/svg11.dtd">
<svg version="1.1" id="Capa_1" xmlns="http://www.w3.org/2000/svg" xmlns:xlink="http://www.w3.org/1999/xlink" x="0px" y="0px"
	 width="492px" height="482px" viewBox="0 0 492 482" enable-background="new 0 0 492 482" xml:space="preserve">
<path d="M473.5,140.5C461.167,128.833,446.667,123,430,123h-51V70c0-19.333-6.667-35.833-20-49.5S329.667,0,311,0H181
	c-18.667,0-34.667,6.833-48,20.5c-13.334,13.667-20,30.167-20,49.5v53H62c-16.667,0-31.167,5.833-43.5,17.5S0,166.667,0,184v236
	c0,16.667,6.167,31.167,18.5,43.5S45.333,482,62,482h368c16.667,0,31.167-6.167,43.5-18.5S492,436.333,492,419V184
	C492,166.667,485.833,152.167,473.5,140.5z M154,70c0-7.333,2.833-14,8.5-20s11.834-9,18.5-9h130c6.667,0,12.833,3,18.5,9
	s8.5,12.667,8.5,20v53H154V70z M359,348h-72v72h-82v-72h-72v-82h72v-71h82v71h72V348z"/>
</svg>
