<?xml version="1.0" encoding="utf-8"?>
<!-- Generator: Adobe Illustrator 16.0.4, SVG Export Plug-In . SVG Version: 6.00 Build 0)  -->
<!DOCTYPE svg PUBLIC "-//W3C//DTD SVG 1.1//EN" "http://www.w3.org/Graphics/SVG/1.1/DTD/svg11.dtd">
<svg version="1.1" id="Capa_1" xmlns="http://www.w3.org/2000/svg" xmlns:xlink="http://www.w3.org/1999/xlink" x="0px" y="0px"
	 width="512.532px" height="511.961px" viewBox="0 0 512.532 511.961" enable-background="new 0 0 512.532 511.961"
	 xml:space="preserve">
<path d="M492.526,272.961c-7.334,33.332-22.5,62.832-45.5,88.499s-50.5,43.834-82.5,54.501c-20,6.666-40.667,9.999-62,9.999
	c-41.334,0-78.833-12.166-112.5-36.499s-57.167-56.168-70.5-95.5c-17.333-50.668-14-99.834,10-147.501s61.333-80.167,112-97.5
	c48-15.333,95-13,141,7l9-18c-32-19.333-67-31.333-105-36s-75-1-111,11C108.86,35.627,59.694,78.46,28.027,141.46
	s-36.5,128.168-14.5,195.501c17.333,52,48.333,94.166,93,126.499c44.667,32.334,94.667,48.501,150,48.501c28,0,55-4.334,81-13.001
	c49.333-16.666,89.833-45.166,121.501-85.499c31.666-40.333,49.504-86.168,53.504-137.5L492.526,272.961L492.526,272.961z"/>
<polygon points="366.526,149.96 314.526,52.96 288.526,160.96 181.526,181.96 279.526,236.96 262.526,347.96 345.526,271.961 
	448.526,321.961 396.526,218.96 479.526,138.96 "/>
</svg>
