<?xml version="1.0" encoding="utf-8"?>
<!-- Generator: Adobe Illustrator 16.0.4, SVG Export Plug-In . SVG Version: 6.00 Build 0)  -->
<!DOCTYPE svg PUBLIC "-//W3C//DTD SVG 1.1//EN" "http://www.w3.org/Graphics/SVG/1.1/DTD/svg11.dtd">
<svg version="1.1" id="Capa_1" xmlns="http://www.w3.org/2000/svg" xmlns:xlink="http://www.w3.org/1999/xlink" x="0px" y="0px"
	 width="492px" height="410px" viewBox="0 0 492 410" enable-background="new 0 0 492 410" xml:space="preserve">
<path d="M202,76c10,0,18.667-3.667,26-11s11-16.333,11-27s-3.667-19.667-11-27S212,0,202,0s-18.667,3.667-26,11s-11,16.333-11,27
	s3.667,19.667,11,27S192,76,202,76z"/>
<path d="M245,379h175c7.333,1.333,18.333-4,33-16l39-29v34l-39,30c-8,6.667-18.333,10.667-31,12H230L245,379z"/>
<polygon points="2,410 176,410 191,379 190,379 15,379 0,410 "/>
<path d="M220,123c0-10.667-3.833-19.833-11.5-27.5S192,84,182,84s-18.833,3.833-26.5,11.5c-7.667,7.668-11.5,16.835-11.5,27.5v96
	c0,6,1.833,12,5.5,18s7.5,9,11.5,9H79l-45,88c-0.667,2-1,4.833-1,8.5s2.167,7.334,6.5,11c4.333,3.667,8.167,5.5,11.5,5.5h297
	c9.333,0.667,20.333-4.667,33-16l79-62l-30-56c-4-8.667-14.333-14.334-31-17l-60-11l-32-57h-1c-4-5.333-10.333-6-19-2v1
	c0,0.667-0.667,2.667-2,6s-1.667,6.333-1,9l23,42l-31,54l-61-25v-20h52c0.667,0,3-1,7-3c4.667-2,8-5.333,10-10s2-9.667,0-15
	c-2.667-8-8-12-16-12h-48V123z"/>
</svg>
