<?xml version="1.0" encoding="utf-8"?>
<!-- Generator: Adobe Illustrator 16.0.4, SVG Export Plug-In . SVG Version: 6.00 Build 0)  -->
<!DOCTYPE svg PUBLIC "-//W3C//DTD SVG 1.1//EN" "http://www.w3.org/Graphics/SVG/1.1/DTD/svg11.dtd">
<svg version="1.1" id="Capa_1" xmlns="http://www.w3.org/2000/svg" xmlns:xlink="http://www.w3.org/1999/xlink" x="0px" y="0px"
	 width="473px" height="425px" viewBox="0 0 473 425" enable-background="new 0 0 473 425" xml:space="preserve">
<g>
	<path d="M194,136.5c-20.667-19-47.667-28.5-81-28.5s-60.5,9.5-81.5,28.5S0,181.333,0,214c0,32.666,10.667,57.833,32,75.5
		S80.333,316,113,316s59.5-8.833,80.5-26.5S225,246.667,225,214S214.667,155.5,194,136.5z M113,264c-22.667,0-34-16.333-34-49
		c0-36,11.333-54,34-54s34,18,34,54C147,247.667,135.667,264,113,264z"/>
	<path d="M394,237c-4,18.667-14,28-30,28c-11.333,0-19.833-4.667-25.5-14s-8.5-21.666-8.5-37c0-36,11.333-54,34-54
		c8.664,0,15.33,2.333,20,7c5.333,5.331,8,11.665,8,19h80c-2.667-24.667-14.5-44-35.5-58s-45.167-21-72.5-21
		c-33.333,0-60.5,9.667-81.5,29S251,181.666,251,215c0,32,10.5,57.167,31.5,75.5S330.667,318,364,318c66.667,0,103-27,109-81H394z"
		/>
</g>
</svg>
