<?xml version="1.0" encoding="utf-8"?>
<!-- Generator: Adobe Illustrator 16.0.4, SVG Export Plug-In . SVG Version: 6.00 Build 0)  -->
<!DOCTYPE svg PUBLIC "-//W3C//DTD SVG 1.1//EN" "http://www.w3.org/Graphics/SVG/1.1/DTD/svg11.dtd">
<svg version="1.1" id="Capa_1" xmlns="http://www.w3.org/2000/svg" xmlns:xlink="http://www.w3.org/1999/xlink" x="0px" y="0px"
	 width="504px" height="462px" viewBox="0 0 504 462" enable-background="new 0 0 504 462" xml:space="preserve">
<g>
	<path d="M279,74c8,7.333,13.333,13.333,16,18l3,4l4-2c7.333-4,16-11.667,26-23c7.333-8,13-13.333,17-16l5-3l-3-4
		c-11.333-18.667-26.333-34-45-46l-4-2l-2,3c-12,14-24.667,26.667-38,38l-3,3l2,3C260.334,55,267.668,64,279,74z"/>
	<path d="M251,123.5c30,19,61.333,28.5,94,28.5c39.334,0,68.667-15,88-45l3-3l-3-3c-2.667-2-6-5.667-10-11
		c-12.667-14-23.334-23.667-32-29l-5-2l-2,5c-12.667,26.667-36,40-70,40c-20,0-40.5-5-61.5-15S215.333,67,204,53l-16-23l7,27
		C202.333,82.333,221,104.5,251,123.5z"/>
	<path d="M246.5,278.5c-7.667-9-18.5-20.833-32.5-35.5l-2-3c16.667-32,17-64.667,1-98c-15.333-34-39.667-54.333-73-61
		c-6-0.667-12.333-1-19-1c-11.333,0-22.667,2.333-34,7s-20.167,9.5-26.5,14.5S45.667,113.667,35,123c-11.333,10-20,17-26,21l-6,5
		l7,4c0.667,0.667,4.333,5.667,11,15c15.333,22,27,33,35,33c2,0,9-6.333,21-19c9.333-10.667,14.333-16.333,15-17
		c23.333-18.667,42.667-28,58-28c2.667,0,5.667,0.333,9,1c10,2,16.333,6.667,19,14c2,8,1.167,17.167-2.5,27.5S167,198,161,204
		c-3.333,3.334-9,7.668-17,13c-11.333,8.667-19.333,16.667-24,24l-3,3l4,3l13,13c15.333,15.333,27,26.333,35,33l4,4l3-4
		c10-12,18-22,24-30c1.333,2,3.667,5,7,9c4.667,6.667,8.167,12,10.5,16s5.333,9.333,9,16s6,12.667,7,18s1.5,11.667,1.5,19
		s-1.333,14.667-4,22c-4.667,13.333-14.333,24-29,32s-31.333,11.333-50,10c-42.667-2.667-81.667-40-117-112c-2-3.333-4-8.333-6-15
		c-6-16-12.333-26.333-19-31l-10-7l2,12c5.333,32.667,15.333,64,30,94s32.333,55.333,53,76c12.667,12,28.5,21.667,47.5,29
		s37.833,11,56.5,11c25.333,0,47-7.167,65-21.5s27.333-36.167,28-65.5c0-19.333-4-38-12-56S254.167,287.5,246.5,278.5z"/>
	<path d="M492,184c-6-10.667-17.833-19.5-35.5-26.5s-32.167-9.167-43.5-6.5c-22.667,4.667-49,19.334-79,44
		c-9.333,7.333-16.667,12.833-22,16.5s-12,7.167-20,10.5s-15.667,5-23,5c-8,0-16-1.333-24-4l-13-4l7,12c16,26.667,35.333,40,58,40
		c15.333,0,34.333-7,57-21l4,13c5.335,15.333,17.168,30.833,35.5,46.5c18.334,15.667,36.167,23.5,53.5,23.5h3
		c16.667-0.667,30-9.667,40-27c9.333-16.667,14-37.833,14-63.5S500,197.333,492,184z M462,243c-5.333,9.334-13.333,17.167-24,23.5
		s-21.667,9.5-33,9.5c-15.333,0-28-6-38-18l-9-10c4.667-3.333,12-8.333,22-15c38-25.333,65-36.667,81-34
		C469.667,213.667,470,228.333,462,243z"/>
</g>
</svg>
