<?xml version="1.0" encoding="utf-8"?>
<!-- Generator: Adobe Illustrator 16.0.4, SVG Export Plug-In . SVG Version: 6.00 Build 0)  -->
<!DOCTYPE svg PUBLIC "-//W3C//DTD SVG 1.1//EN" "http://www.w3.org/Graphics/SVG/1.1/DTD/svg11.dtd">
<svg version="1.1" id="Capa_1" xmlns="http://www.w3.org/2000/svg" xmlns:xlink="http://www.w3.org/1999/xlink" x="0px" y="0px"
	 width="491.722px" height="492.2px" viewBox="0 0 491.722 492.2" enable-background="new 0 0 491.722 492.2" xml:space="preserve">
<path d="M488.722,74.2c-1.332-5.339-3.166-8.673-5.5-10c-2.332-1.333-9.5-2-21.5-2h-26l-5-14c-2.666-10-9-19.333-19-28
	s-20.666-14.333-32-17c-10.666-2.667-67.332-3.667-170-3c-70,0.674-113.833,1.34-131.5,2c-17.667,0.667-29.833,2.667-36.5,6
	c-16,7.333-27.667,18.667-35,34s-8.667,31-4,47c6.667,22,19.667,37.333,39,46c6.667,2.667,18.833,4.5,36.5,5.5s61.5,1.833,131.5,2.5
	c102,0.662,158.667-0.672,170-4c11.334-2.667,21.834-8.333,31.5-17c9.668-8.667,16.5-18,20.5-28c2-8,4-12.5,6-13.5s7-1.5,15-1.5
	l17,2l1,52l1,53l-49,11c-32.666,8-57.334,14-74,18c-17.332,4.667-43,11-77,19l-50,12v26v9v7v5c0,2-0.333,3.5-1,4.5
	s-1.167,2.168-1.5,3.5c-0.34,1.334-1.174,2.5-2.5,3.5c-1.335,1-2.668,2.168-4,3.5c-1.333,1.334-3,2.668-5,4l-13,13v84v83h35h36v-83
	v-83.998l-14-13c-8-6.668-12.5-11.5-13.5-14.5s-1.167-9.5-0.5-19.5l1-21l18-4c8.668-2.668,32-8.334,70-17
	c48.668-12,84.668-20.667,108-26l57-14v-55C491.722,104.533,490.722,82.2,488.722,74.2z M241.722,438.7c1.333,1,2,3.834,2,8.5
	c0,4.668-0.667,7.668-2,9c-1.333,1.334-4.333,2-9,2c-11.334,1.334-15.668-3.666-13-15c0.667-4,4.667-6,12-6
	C237.055,437.2,240.389,437.7,241.722,438.7z"/>
</svg>
