<?xml version="1.0" encoding="utf-8"?>
<!-- Generator: Adobe Illustrator 16.0.4, SVG Export Plug-In . SVG Version: 6.00 Build 0)  -->
<!DOCTYPE svg PUBLIC "-//W3C//DTD SVG 1.1//EN" "http://www.w3.org/Graphics/SVG/1.1/DTD/svg11.dtd">
<svg version="1.1" id="Capa_1" xmlns="http://www.w3.org/2000/svg" xmlns:xlink="http://www.w3.org/1999/xlink" x="0px" y="0px"
	 width="492px" height="410px" viewBox="0 0 492 410" enable-background="new 0 0 492 410" xml:space="preserve">
<path d="M474,369H307v41h67h57h44c4,0,7.5-1,10.5-3s4.833-4,5.5-6l1-3v-10c0-1.333-0.167-3.167-0.5-5.5s-2-5.167-5-8.5
	S479.333,369,474,369z"/>
<path d="M451,361c11.333,0,21-4,29-12s12-17.833,12-29.5s-4-21.5-12-29.5s-17.667-12-29-12s-21,4-29,12s-12,17.833-12,29.5
	s4,21.5,12,29.5S439.667,361,451,361z"/>
<path d="M364,359c10.667,0,19.833-3.5,27.5-10.5S403,332.667,403,322s-3.667-18.833-11-24.5s-16.667-8.5-28-8.5l-57,7v63H364z"/>
<path d="M180,92c12.667,0,23.333-4.5,32-13.5s13-19.833,13-32.5s-4.333-23.5-13-32.5S192.667,0,180,0s-23.5,4.5-32.5,13.5
	S134,33.333,134,46s4.5,23.5,13.5,32.5S167.333,92,180,92z"/>
<path d="M133,240v-1l-21-48v96h62l13-14l-36-14C142.333,255.667,136.333,249.333,133,240z"/>
<path d="M146,235c2,5.335,5.667,8.668,11,10l70,26c4.667,2,9.334,2.167,14,0.5c4.667-1.668,7.833-4.835,9.5-9.5
	c1.667-4.667,1.667-9.334,0-14c-1.667-4.667-4.833-8-9.5-10l-65-24l-20-48l13-5l17,41l50,18v-50l26,16l13,65
	c1.333,4.667,4.333,8.167,9,10.5c4.667,2.335,9.333,2.668,14,1c4.667-1.667,8-4.667,10-9s2.333-8.833,1-13.5l-15-64
	c-0.667-3.333-2.667-6.333-6-9c-1.333-2-6-7.333-14-16s-15.5-16.833-22.5-24.5S240.667,114.667,240,114
	c-7.333-7.333-17.333-11-30-11h-61c-16,0-26.833,6.167-32.5,18.5S110,145.333,114,156L146,235z"/>
<path d="M297,297H20c-5.333,0-10,1.667-14,5s-6,7.667-6,13v9v86h24h273V297z"/>
</svg>
