<?xml version="1.0" encoding="utf-8"?>
<!-- Generator: Adobe Illustrator 16.0.4, SVG Export Plug-In . SVG Version: 6.00 Build 0)  -->
<!DOCTYPE svg PUBLIC "-//W3C//DTD SVG 1.1//EN" "http://www.w3.org/Graphics/SVG/1.1/DTD/svg11.dtd">
<svg version="1.1" id="Capa_1" xmlns="http://www.w3.org/2000/svg" xmlns:xlink="http://www.w3.org/1999/xlink" x="0px" y="0px"
	 width="185px" height="497px" viewBox="0 0 185 497" enable-background="new 0 0 185 497" xml:space="preserve">
<path d="M41,476c0,14,6.833,21,20.5,21S82,490,82,476V282h21v194c0,14,6.833,21,20.5,21s20.5-7,20.5-21V149h10v121
	c0,7.334,2.5,12.667,7.5,16s10.167,3.333,15.5,0s8-8.667,8-16V145c0-14-4.667-25.5-14-34.5S149,97,133,97H52
	c-15.333,0-27.833,4.333-37.5,13S0,130,0,144v127c0,6.667,2.667,11.333,8,14s10.5,2.667,15.5,0s7.5-7.334,7.5-14V149h10V476z"/>
<path d="M49,42.5c0,11.667,4.167,21.667,12.5,30S79.833,85,91.5,85S113,80.833,121,72.5s12-18.333,12-30s-4-21.667-12-30
	S103.167,0,91.5,0s-21.667,4.167-30,12.5S49,30.833,49,42.5z"/>
</svg>
