<?xml version="1.0" encoding="utf-8"?>
<!-- Generator: Adobe Illustrator 16.0.4, SVG Export Plug-In . SVG Version: 6.00 Build 0)  -->
<!DOCTYPE svg PUBLIC "-//W3C//DTD SVG 1.1//EN" "http://www.w3.org/Graphics/SVG/1.1/DTD/svg11.dtd">
<svg version="1.1" id="Capa_1" xmlns="http://www.w3.org/2000/svg" xmlns:xlink="http://www.w3.org/1999/xlink" x="0px" y="0px"
	 width="512px" height="537.5px" viewBox="0 0 512 537.5" enable-background="new 0 0 512 537.5" xml:space="preserve">
<g>
	<path d="M471,455.5v82h41v-123H41v-168c0-5.336-2-10.169-6-14.5c-4-4.333-8.833-6.5-14.5-6.5S10,227.667,6,232s-6,9.167-6,14.5v291
		h41v-82H471z"/>
	<path d="M105.5,330.5c10.333,0,19.333-3.667,27-11c7.667-7.334,11.5-16.168,11.5-26.5c0-10.335-3.833-19.168-11.5-26.5
		c-7.667-7.333-16.667-11-27-11s-19.167,3.667-26.5,11S68,282.667,68,293s3.667,19.167,11,26.5S95.167,330.5,105.5,330.5z"/>
	<path d="M512,383.5v-50c0-8-2.833-14.5-8.5-19.5c-5.67-5-12.837-8.167-21.5-9.5l-297-29h-2c-5.333,0-9.833,1.833-13.5,5.5
		s-5.5,8.167-5.5,13.5v58H88c-12.667,0-19,5.167-19,15.5s6.333,15.5,19,15.5H512z"/>
</g>
</svg>
