<?xml version="1.0" encoding="utf-8"?>
<!-- Generator: Adobe Illustrator 16.0.4, SVG Export Plug-In . SVG Version: 6.00 Build 0)  -->
<!DOCTYPE svg PUBLIC "-//W3C//DTD SVG 1.1//EN" "http://www.w3.org/Graphics/SVG/1.1/DTD/svg11.dtd">
<svg version="1.1" id="Capa_1" xmlns="http://www.w3.org/2000/svg" xmlns:xlink="http://www.w3.org/1999/xlink" x="0px" y="0px"
	 width="472px" height="450.333px" viewBox="0 0 472 450.333" enable-background="new 0 0 472 450.333" xml:space="preserve">
<path d="M432.5,160c11,0,20.333-3.833,28-11.5s11.5-17,11.5-28s-3.833-20.333-11.5-28s-17-11.5-28-11.5s-20.333,3.833-28,11.5
	s-11.5,17-11.5,28s3.833,20.333,11.5,28S421.5,160,432.5,160z"/>
<path d="M421,431L9,186l-9,14l413,245c9.333,5.334,19.333,6.666,30,4s19-8.666,25-18l-14-9c-3.333,6-8.167,9.834-14.5,11.5
	S427,434.333,421,431z"/>
<path d="M461,247l-70-41l-8-106c-1.333-13.334-7.333-23.667-18-31L264,9c-12-8-25.167-10.667-39.5-8S199,11,191,23
	c-9.333,14-11.333,28.333-6,43l27,91l-83,27c-11.333,4.667-18,13.333-20,26c-0.667,8,1.667,14.833,7,20.5
	c5.333,5.666,12.667,9.166,22,10.5c2,0,5.333-0.668,10-2l113-37c4.667-2,8.833-4.833,12.5-8.5s5.5-7.167,5.5-10.5
	c1.333-8,2-12.333,2-13l-18-62l68,41l9,59c0.667,10.667,5,18.333,13,23l89,52c4.667,2.666,9.667,3.166,15,1.5
	c5.333-1.668,9.333-5,12-10s3.167-10.168,1.5-15.5C468.826,253.667,465.659,249.667,461,247z"/>
</svg>
