<svg width="492" xmlns="http://www.w3.org/2000/svg" height="492" viewBox="0 0 492 492" xmlns:xlink="http://www.w3.org/1999/xlink" enable-background="new 0 0 492 492">
<path d="M492,164c0-2.667-1-5-3-7s-4.333-3-7-3H348c-2.667,0-5-1-7-3s-3-4.333-3-7V10c0-2.667-1-5-3-7s-4.333-3-7-3H164  c-2.667,0-5,1-7,3s-3,4.333-3,7v134c0,2.667-1,5-3,7s-4.333,3-7,3H10c-2.667,0-5,1-7,3s-3,4.333-3,7v164c0,2.667,1,5,3,7  s4.333,3,7,3h134c2.667,0,5,1,7,3s3,4.333,3,7v134c0,2.667,1,5,3,7s4.333,3,7,3h164c2.667,0,5-1,7-3s3-4.333,3-7V348  c0-2.667,1-5,3-7s4.333-3,7-3h134c2.667,0,5-1,7-3s3-4.333,3-7V164z"/>
</svg>
