<?xml version="1.0" encoding="utf-8"?>
<!-- Generator: Adobe Illustrator 16.0.4, SVG Export Plug-In . SVG Version: 6.00 Build 0)  -->
<!DOCTYPE svg PUBLIC "-//W3C//DTD SVG 1.1//EN" "http://www.w3.org/Graphics/SVG/1.1/DTD/svg11.dtd">
<svg version="1.1" id="Capa_1" xmlns="http://www.w3.org/2000/svg" xmlns:xlink="http://www.w3.org/1999/xlink" x="0px" y="0px"
	 width="492px" height="472px" viewBox="0 0 492 472" enable-background="new 0 0 492 472" xml:space="preserve">
<path d="M191,115h-75V41h21V0H0v41h21v114c0,15.333,5.333,28.167,16,38.5S60.333,209,75,209h116v20h41V95h-41V115z"/>
<path d="M471,283V169c0-15.334-5.333-28.167-16-38.5S431.667,115,417,115H301V95h-41v134h41v-20h75v74h-21v40h137v-40H471z"/>
<path d="M461,435c0-6-3.167-15.5-9.5-28.5s-12.667-24.5-19-34.5l-9.5-15c-24.667,38-37,64-37,78c0,10,3.667,18.667,11,26
	c7.335,7.333,16.168,11,26.5,11c10.333,0,19.167-3.667,26.5-11S461,445,461,435z"/>
</svg>
