<?xml version="1.0" encoding="utf-8"?>
<!-- Generator: Adobe Illustrator 16.0.4, SVG Export Plug-In . SVG Version: 6.00 Build 0)  -->
<!DOCTYPE svg PUBLIC "-//W3C//DTD SVG 1.1//EN" "http://www.w3.org/Graphics/SVG/1.1/DTD/svg11.dtd">
<svg version="1.1" id="Capa_1" xmlns="http://www.w3.org/2000/svg" xmlns:xlink="http://www.w3.org/1999/xlink" x="0px" y="0px"
	 width="492px" height="492px" viewBox="0 0 492 492" enable-background="new 0 0 492 492" xml:space="preserve">
<g>
	<path d="M152,177v43l48-27c17.333,4,33.667,6,49,6c30.667,0,61.167-5.833,91.5-17.5s53.333-23.5,69-35.5s23.5-20.333,23.5-25
		c0-3.333-6-9.833-18-19.5S385.167,81.333,361.5,70S313.333,51,288,47L195,0v51c-40,11.333-76.667,29.333-110,54L9,51
		c-2.667-2-4.833-2.5-6.5-1.5S0,52.333,0,55c2,3.333,4.333,7.5,7,12.5S13,81,17,93s6,21.833,6,29.5s-1.833,17-5.5,28
		S10,170.333,6,177l-6,11c0,2.667,1,4.5,3,5.5s4,0.5,6-1.5l76-54C87.667,140,110,153,152,177z M335.5,97.5
		c4.333-4.333,9.5-6.5,15.5-6.5s11.167,2.167,15.5,6.5S373,107,373,113s-2.167,11.167-6.5,15.5S357,135,351,135
		s-11.167-2.167-15.5-6.5S329,119,329,113S331.167,101.833,335.5,97.5z"/>
	<path d="M474.5,365.5c3.667-11,7.5-20.167,11.5-27.5l6-11c0-3.333-0.833-5.5-2.5-6.5c-1.674-1-3.841-0.5-6.5,1.5l-76,54
		c-33.333-24.667-69.667-42.333-109-53v-51l-93,47c-25.333,4-50,11.5-74,22.5s-42,21.333-54,31S59,389,59,393
		c0,4.667,7.833,12.833,23.5,24.5s38.667,23.333,69,35S212.667,470,244,470c15.333,0,31.333-2,48-6l49,28v-44
		c41.333-23.333,63.333-36.333,66-39l76,55c2,1.333,4,1.5,6,0.5s3-2.833,3-5.5c-15.333-26-23-47.667-23-65
		C469,386,470.833,376.5,474.5,365.5z M171.5,385.5c-4.333,4.333-9.5,6.5-15.5,6.5s-11.167-2.167-15.5-6.5S134,376,134,370
		s2.167-11.167,6.5-15.5S150,348,156,348s11.167,2.167,15.5,6.5S178,364,178,370S175.833,381.167,171.5,385.5z"/>
</g>
</svg>
