<?xml version="1.0" encoding="utf-8"?>
<!-- Generator: Adobe Illustrator 16.0.4, SVG Export Plug-In . SVG Version: 6.00 Build 0)  -->
<!DOCTYPE svg PUBLIC "-//W3C//DTD SVG 1.1//EN" "http://www.w3.org/Graphics/SVG/1.1/DTD/svg11.dtd">
<svg version="1.1" id="Capa_1" xmlns="http://www.w3.org/2000/svg" xmlns:xlink="http://www.w3.org/1999/xlink" x="0px" y="0px"
	 width="369px" height="492px" viewBox="0 0 369 492" enable-background="new 0 0 369 492" xml:space="preserve">
<path d="M366,138c-2-3.333-4.333-5-7-5h-51V20c0-5.333-2-10-6-14s-8.833-6-14.5-6S277,2,273,6s-6,8.667-6,14v113H103V20
	c0-5.333-2-10-6-14s-8.833-6-14.5-6S72,2,68,6s-6,8.667-6,14v113H11c-2.667,0-5.167,1.667-7.5,5S0,144.667,0,148v49
	c0,12.667,5.333,28,16,46s22.5,35,35.5,51s24.833,35.5,35.5,58.5s16,45.167,16,66.5v32h41v41h82v-41h41v-32
	c0-21.333,5.333-43.5,16-66.5s22.333-42.5,35-58.5s24.333-33,35-51s16-33.333,16-46v-49C369,144.662,368,141.328,366,138z M241,270
	c-54.667,70.667-82.667,106.667-84,108c-0.667,1.333-1.167,1.667-1.5,1s-0.5-1.667-0.5-3l19-75c0.667-2.667-0.333-4-3-4h-40
	c-2.667,0-3.333-1-2-3c54.667-69.333,82.667-104.667,84-106c0.667-0.667,1.167-1,1.5-1s0.5,0.667,0.5,2l-18,74c-1.333,2-0.667,3,2,3
	h40C242.333,266,243,267.333,241,270z"/>
</svg>
