<?xml version="1.0" encoding="utf-8"?>
<!-- Generator: Adobe Illustrator 16.0.4, SVG Export Plug-In . SVG Version: 6.00 Build 0)  -->
<!DOCTYPE svg PUBLIC "-//W3C//DTD SVG 1.1//EN" "http://www.w3.org/Graphics/SVG/1.1/DTD/svg11.dtd">
<svg version="1.1" id="Capa_1" xmlns="http://www.w3.org/2000/svg" xmlns:xlink="http://www.w3.org/1999/xlink" x="0px" y="0px"
	 width="428px" height="488px" viewBox="0 0 428 488" enable-background="new 0 0 428 488" xml:space="preserve">
<path d="M214,488c-59.333,0-109.833-21-151.5-63S0,332.333,0,273c0-37.333,9.167-72.333,27.5-105S71,109.333,103,90
	c7.333-4,14.833-5,22.5-3s13.667,6.333,18,13s5.5,14,3.5,22s-6.333,14-13,18c-24,14.667-42.5,33.667-55.5,57
	c-13,23.334-19.5,48.667-19.5,76c0,43.333,15.167,80.167,45.5,110.5S171.333,429,214,429s79.333-15.167,110-45.5s46-67.167,46-110.5
	c0-27.333-7.167-53.167-21.5-77.5S315,152,291,138c-7.333-4-12-9.833-14-17.5s-1-15,3-22s9.833-11.667,17.5-14S312.667,83,320,87
	c33.334,19.333,59.667,45.667,79,79s29,69,29,107c0,59.333-20.833,110-62.5,152S273.333,488,214,488z"/>
<path d="M212,271c-8.667,0-16.833-3-24.5-9S176,249,176,241V30c0-8,3.833-15,11.5-21s15.834-9,24.5-9c8.667,0,16.833,3,24.5,9
	S248,22,248,30v211c0,8-3.833,15-11.5,21C228.832,268,220.666,271,212,271z"/>
</svg>
