<?xml version="1.0" encoding="utf-8"?>
<!-- Generator: Adobe Illustrator 16.0.4, SVG Export Plug-In . SVG Version: 6.00 Build 0)  -->
<!DOCTYPE svg PUBLIC "-//W3C//DTD SVG 1.1//EN" "http://www.w3.org/Graphics/SVG/1.1/DTD/svg11.dtd">
<svg version="1.1" id="Capa_1" xmlns="http://www.w3.org/2000/svg" xmlns:xlink="http://www.w3.org/1999/xlink" x="0px" y="0px"
	 width="492px" height="491.5px" viewBox="0 0 492 491.5" enable-background="new 0 0 492 491.5" xml:space="preserve">
<g>
	<path d="M276.5,407.5c-11.667,0-21.5,4-29.5,12s-12,18-12,30s4,22,12,30s17.833,12,29.5,12s21.5-4,29.5-12s12-18,12-30s-4-22-12-30
		S288.167,407.5,276.5,407.5z M292.5,465c-4.333,4.333-9.667,6.5-16,6.5s-11.667-2.167-16-6.5s-6.5-9.5-6.5-15.5
		s2.167-11.167,6.5-15.5c4.335-4.333,9.669-6.5,16-6.5c6.334,0,11.667,2.167,16,6.5s6.5,9.5,6.5,15.5S296.833,460.667,292.5,465z"/>
	<path d="M480.5,242.5c-7.667-10-18.167-17.333-31.5-22c-8-2.667-31.333-5.833-70-9.5s-73-5.5-103-5.5
		c-28.667,0-63.5,1.833-104.5,5.5s-65.5,6.5-73.5,8.5l-6,2c-2,0.667-5.667,2.667-11,6s-10,7-14,11s-7.667,9.833-11,17.5
		s-5,16.167-5,25.5v129c0,13.333,3,20,9,20H0v20h225c0-14.667,5-27,15-37s22.333-15,37-15s27,5,37,15s15,22.333,15,37h125
		c10,0,18.833-4,26.5-12s11.5-17.333,11.5-28v-136C492,263.167,488.167,252.5,480.5,242.5z M195,321.5c0,4.667-2.333,7-7,7h-67
		c-5.333,0-8-2-8-6v-48c0-2,0.833-3.833,2.5-5.5s3.5-2.5,5.5-2.5h67c4.667,0,7,2.667,7,8V321.5z M441,322.5c0,4-2.667,6-8,6H284
		c-4.667,0-7-2-7-6v-48c0-5.333,2.333-8,7-8h149c5.333,0,8,2.667,8,8V322.5z"/>
</g>
</svg>
