<?xml version="1.0" encoding="utf-8"?>
<!-- Generator: Adobe Illustrator 16.0.4, SVG Export Plug-In . SVG Version: 6.00 Build 0)  -->
<!DOCTYPE svg PUBLIC "-//W3C//DTD SVG 1.1//EN" "http://www.w3.org/Graphics/SVG/1.1/DTD/svg11.dtd">
<svg version="1.1" id="Capa_1" xmlns="http://www.w3.org/2000/svg" xmlns:xlink="http://www.w3.org/1999/xlink" x="0px" y="0px"
	 width="340px" height="491.77px" viewBox="0 0 340 491.77" enable-background="new 0 0 340 491.77" xml:space="preserve">
<g>
	<path d="M332,10c-5.333-6-12-9.333-20-10h-86c-4,0-6.833,1.667-8.5,5s-1.667,6.667,0,10s4.5,5,8.5,5h71v9h-71
		c-4,0-6.833,1.667-8.5,5s-1.667,6.5,0,9.5S222,48,226,48h71v10h-71c-4,0-6.833,1.667-8.5,5s-1.667,6.5,0,9.5S222,77,226,77h71v10
		h-71c-4,0-6.833,1.667-8.5,5s-1.667,6.5,0,9.5s4.5,4.5,8.5,4.5h71v10h-71c-4,0-6.833,1.667-8.5,5s-1.667,6.5,0,9.5s4.5,4.5,8.5,4.5
		h71v10h-71c-6,0-9,3.167-9,9.5s3,9.5,9,9.5h71v10h-71c-4,0-6.833,1.5-8.5,4.5s-1.667,6.167,0,9.5s4.5,5,8.5,5h71v9h-71
		c-4,0-6.833,1.667-8.5,5s-1.667,6.667,0,10s4.5,5,8.5,5h71v9h-71c-4,0-6.833,1.667-8.5,5s-1.667,6.5,0,9.5s4.5,4.5,8.5,4.5h71v10
		h-71v19h71v186c0,8.667,3.667,14.833,11,18.5s14.5,3.667,21.5,0S340,473.667,340,465V30C340,22.667,337.333,16,332,10z"/>
	<path d="M198,343.5c-15.334-11.667-32.667-12.167-52-1.5V216L119,7c0-4.667-2.667-7-8-7c-6.667,0.667-10.333,3-11,7L74,216v126
		c-19.333-10.667-36.5-10.167-51.5,1.5S0,370,0,388c0,14.667,5,27,15,37s22.667,15,38,15c14.667,0,27-5.333,37-16s15-22.667,15-36
		V256h10v132c0,14,4.667,26,14,36s20.667,15.333,34,16c-0.667,22.667,4.333,38.667,15,48c5.333,4.667,10.667,5,16,1s6.333-9,3-15
		c-4-7.333-6.333-12.333-7-15s-0.333-10.667,1-24c20-9.333,30-25,30-47C221,370,213.333,355.167,198,343.5z M71.5,406.5
		c-5,5-11,7.5-18,7.5s-13-2.5-18-7.5S28,395.333,28,388s2.5-13.5,7.5-18.5s11-7.5,18-7.5s13,2.5,18,7.5S79,380.667,79,388
		S76.5,401.5,71.5,406.5z M185.5,406.5c-5,5-11,7.5-18,7.5s-13-2.5-18-7.5S142,395.333,142,388s2.5-13.5,7.5-18.5s11-7.5,18-7.5
		s13,2.5,18,7.5s7.5,11.167,7.5,18.5S190.5,401.5,185.5,406.5z"/>
</g>
</svg>
