<?xml version="1.0" encoding="utf-8"?>
<!-- Generator: Adobe Illustrator 16.0.4, SVG Export Plug-In . SVG Version: 6.00 Build 0)  -->
<!DOCTYPE svg PUBLIC "-//W3C//DTD SVG 1.1//EN" "http://www.w3.org/Graphics/SVG/1.1/DTD/svg11.dtd">
<svg version="1.1" id="Capa_1" xmlns="http://www.w3.org/2000/svg" xmlns:xlink="http://www.w3.org/1999/xlink" x="0px" y="0px"
	 width="472px" height="472px" viewBox="0 0 472 472" enable-background="new 0 0 472 472" xml:space="preserve">
<polygon points="0,141 0,0 147,0 201,41 111,41 205,141 147,195 52,105 52,195 "/>
<polygon points="326,0 472,0 472,142 431,196 431,106 328,200 273,144 362,52 272,52 "/>
<polygon points="472,326 472,472 325,472 271,431 361,431 267,328 325,273 420,362 420,272 "/>
<polygon points="146,472 0,472 0,325 41,271 41,361 144,267 199,325 110,420 200,420 "/>
</svg>
