<?xml version="1.0" encoding="utf-8"?>
<!-- Generator: Adobe Illustrator 16.0.4, SVG Export Plug-In . SVG Version: 6.00 Build 0)  -->
<!DOCTYPE svg PUBLIC "-//W3C//DTD SVG 1.1//EN" "http://www.w3.org/Graphics/SVG/1.1/DTD/svg11.dtd">
<svg version="1.1" id="Capa_1" xmlns="http://www.w3.org/2000/svg" xmlns:xlink="http://www.w3.org/1999/xlink" x="0px" y="0px"
	 width="372px" height="491.797px" viewBox="0 0 372 491.797" enable-background="new 0 0 372 491.797" xml:space="preserve">
<g>
	<path d="M196,81.18c12,1,22.333-2.167,31-9.5c8.667-7.335,13.5-16.668,14.5-28c1-11.335-2.333-21.168-10-29.5
		c-7.668-8.333-17.334-13-29-14c-11.667-1-22,2.167-31,9.5s-14,16.667-15,28s2.333,21.167,10,29.5S184,80.18,196,81.18z"/>
	<path d="M372,409.68l-14-123h-23c0-7.332-0.333-13.332-1-18c-0.667-6.666-2.667-10.666-6-12c3.333-3.332,5-7,5-11
		c0.667-6.667-1.667-12-7-16l-59-38l-43-82c-8.667-12-20-18.667-34-20c-10.667-0.667-20.667,2-30,8l-86,67c-2.667,2-4.667,4.667-6,8
		l-20,81l-0.5,1l-0.5,1h-1c-3.333,0-5.667,2.668-7,8c-2,6-3,10.668-3,14v9H14l-14,123h57l-25,40c-2,4.667-3.333,8.667-4,12
		c-0.667,7.333,1.667,14,7,20s12,9.333,20,10c11.333,0.667,20.333-4,27-14l42-68h6l-1-8l12-19l6-11l14-63l62,64l19,97
		c3.333,13.333,12,20.667,26,22c8,0.667,15-1.5,21-6.5s9.333-11.5,10-19.5v-2.5v-2.5l-10-51h18H372z M86,286.68H65H46v-1.5v-4.5v-4
		c0.667-5.332,2.667-8,6-8h1c3.333,4,8,6.334,14,7c6,0.668,11-1.332,15-6c1.333,0.668,2,1.668,2,3c1.333,3.334,2,6.334,2,9V286.68z
		 M105,286.68H93c0-7.332-0.333-13.332-1-18c-0.667-5.332-2-9-4-11l15-66l30-23L105,286.68z M283,263.68c-0.667,1.334-1,6-1,14v9
		h-26l-4,36l-53-59l19-82l17,31c1.338,2,2.671,3.667,4,5l58,38h-8C286.333,255.68,284.333,258.348,283,263.68z M288,286.68v-2v-4.5
		v-3.5c0.667-5.332,2.667-8,6-8h12c6-0.666,11-1,15-1c2.667,0,4.5,1.5,5.5,4.5s1.5,6.168,1.5,9.5v5h-21H288z"/>
</g>
</svg>
