<?xml version="1.0" encoding="utf-8"?>
<!-- Generator: Adobe Illustrator 16.0.4, SVG Export Plug-In . SVG Version: 6.00 Build 0)  -->
<!DOCTYPE svg PUBLIC "-//W3C//DTD SVG 1.1//EN" "http://www.w3.org/Graphics/SVG/1.1/DTD/svg11.dtd">
<svg version="1.1" id="Capa_1" xmlns="http://www.w3.org/2000/svg" xmlns:xlink="http://www.w3.org/1999/xlink" x="0px" y="0px"
	 width="492.125px" height="472px" viewBox="0 0 492.125 472" enable-background="new 0 0 492.125 472" xml:space="preserve">
<g>
	<path d="M191.5,67c9.667,0,17.834-3.333,24.5-10c6.667-6.667,10-14.5,10-23.5s-3.333-16.833-10-23.5S201.167,0,191.5,0
		S173.667,3.333,167,10s-10,14.5-10,23.5s3.333,16.833,10,23.5S181.834,67,191.5,67z"/>
	<path d="M491,137c-2-6-5.667-10.667-11-14l-69-44l4-35L276,185h-50v-32l43,10c4,0.667,8-0.167,12-2.5s6.5-5.667,7.5-10
		s0.333-8.333-2-12c-2.333-3.662-5.833-5.828-10.5-6.5l-50-13v-11c0-9.333-3.667-17.167-11-23.5S199.167,75,189.5,75
		s-18,3.167-25,9.5c-7,6.332-10.5,14.165-10.5,23.5v77H51c-14.667,0-26.833,4.167-36.5,12.5S0,216.667,0,230v78h31v-77l20-28v96
		l-20,29v122c0,5.333,2.667,10.333,8,15s11.167,7,17.5,7s12.167-2.167,17.5-6.5s8-9.5,8-15.5V344l21-34v36l50,114
		c3.333,5.333,8,8.833,14,10.5s11.833,1,17.5-2s9.333-7.333,11-13s0.833-11.167-2.5-16.5l-43-98l21-33h116v142
		c0,6,1.833,11.167,5.5,15.5s8.667,6.5,15,6.5s11.333-2.167,15-6.5S328,456,328,450V309l53-102c6,1.333,12,2,18,2
		c14,0,26.5-4.167,37.5-12.5s18.167-19.167,21.5-32.5l6,1c11.333,2,19.667-1.667,25-11C492.333,148.667,493,143,491,137z M429,187
		c-8.667,6.667-18.667,10-30,10c-4,0-7.667-0.333-11-1l22-41l36,7C443.333,172,437.667,180.333,429,187z"/>
</g>
</svg>
