<?xml version="1.0" encoding="utf-8"?>
<!-- Generator: Adobe Illustrator 16.0.4, SVG Export Plug-In . SVG Version: 6.00 Build 0)  -->
<!DOCTYPE svg PUBLIC "-//W3C//DTD SVG 1.1//EN" "http://www.w3.org/Graphics/SVG/1.1/DTD/svg11.dtd">
<svg version="1.1" id="Capa_1" xmlns="http://www.w3.org/2000/svg" xmlns:xlink="http://www.w3.org/1999/xlink" x="0px" y="0px"
	 width="246px" height="470.641px" viewBox="0 0 246 470.641" enable-background="new 0 0 246 470.641" xml:space="preserve">
<path d="M111.5,76.021c10.333-0.333,19-4.333,26-12s10.333-16.667,10-27c-0.333-10.335-4.167-19.168-11.5-26.5
	c-7.333-7.333-16.167-10.833-26.5-10.5s-19,4.333-26,12S73,28.688,73,39.021s3.833,19.167,11.5,26.5S101.167,76.354,111.5,76.021z"
	/>
<path d="M238,202.521l-55-30l-45-72c-8.667-10.667-19.333-16-32-16c-8.667,0-17,3.667-25,11l-68,69c-2,2.667-3.333,5.667-4,9l-9,77
	v2c0,4.666,1.667,8.666,5,12c3.333,3.332,7.333,5,12,5s8.5-1.668,11.5-5c3-3.334,4.833-7,5.5-11l7-66l24-24l-22,184l-39,87
	c-1.333,4-2,7.659-2,11.002c0,7.323,2.5,13.5,7.5,18.5s11.167,7.164,18.5,6.5c10,0,17.333-4.677,22-14l42-94.001
	c0-0.67,0.333-1.835,1-3.5c0.668-1.67,1.335-3.17,2-4.5c0.667-1.335,1-2.67,1-4l5-45.001l43,148.002c4.667,12,13,17.666,25,17
	c6.667,0,12.5-2.5,17.5-7.5s7.5-11.177,7.5-18.5c0-0.677-0.167-1.5-0.5-2.5s-0.5-1.836-0.5-2.502l-60-205l7-67l17,27
	c1.333,2,3,3.667,5,5l59,33c4,1.333,6.667,2,8,2c4.667,0,8.667-1.833,12-5.5c3.333-3.668,5-7.834,5-12.5
	C246,210.521,243.333,205.854,238,202.521z"/>
</svg>
