<?xml version="1.0" encoding="utf-8"?>
<!-- Generator: Adobe Illustrator 16.0.4, SVG Export Plug-In . SVG Version: 6.00 Build 0)  -->
<!DOCTYPE svg PUBLIC "-//W3C//DTD SVG 1.1//EN" "http://www.w3.org/Graphics/SVG/1.1/DTD/svg11.dtd">
<svg version="1.1" id="Capa_1" xmlns="http://www.w3.org/2000/svg" xmlns:xlink="http://www.w3.org/1999/xlink" x="0px" y="0px"
	 width="308px" height="492px" viewBox="0 0 308 492" enable-background="new 0 0 308 492" xml:space="preserve">
<path d="M123,10v113h-20V10c0-2.667-1-5-3-7s-4.5-3-7.5-3S87,1,85,3s-3,4.333-3,7v113H62V10c0-4-1.667-6.833-5-8.5
	s-6.833-1.667-10.5,0S41,6,41,10v113H21V11c0-4.667-1.667-7.833-5-9.5s-6.833-1.667-10.5,0S0,6,0,10v148
	c0,10.668,4.167,19.334,12.5,26c8.333,6.667,17.833,10,28.5,10v267c0,12.667,5.167,21.667,15.5,27s20.667,5.333,31,0
	s15.5-14.333,15.5-27V194c10,0,19.333-3.5,28-10.5s13-14.5,13-22.5V10c0-4-1.667-6.833-5-8.5s-6.833-1.667-10.5,0S123,6,123,10z"/>
<path d="M215,41v256h21v164c0,12.667,6,21.667,18,27s24,5.333,36,0s18-14.333,18-27V41c0-16-7.667-27.333-23-34
	s-30.833-6.667-46.5,0S215,25,215,41z"/>
</svg>
