<?xml version="1.0" encoding="utf-8"?>
<!-- Generator: Adobe Illustrator 16.0.4, SVG Export Plug-In . SVG Version: 6.00 Build 0)  -->
<!DOCTYPE svg PUBLIC "-//W3C//DTD SVG 1.1//EN" "http://www.w3.org/Graphics/SVG/1.1/DTD/svg11.dtd">
<svg version="1.1" id="Capa_1" xmlns="http://www.w3.org/2000/svg" xmlns:xlink="http://www.w3.org/1999/xlink" x="0px" y="0px"
	 width="410.356px" height="492px" viewBox="0 0 410.356 492" enable-background="new 0 0 410.356 492" xml:space="preserve">
<path d="M385.272,371c9.334-3.333,16.334-9.333,21-18c4.668-8.667,5.334-17.667,2-27l-14,4c2,5.334,1.668,10.667-1,16
	c-2.666,5.333-6.666,9-12,11l-359,121l5,14L385.272,371z"/>
<path d="M55.273,161c10-2.667,17.333-8.5,22-17.5s5.667-18.333,3-28s-8.5-17-17.5-22s-18.5-6.167-28.5-3.5s-17.5,8.5-22.5,17.5
	s-6,18.5-3,28.5s9,17.333,18,22S45.273,163.667,55.273,161z"/>
<path d="M40.273,212c-5.333-9.334-6.167-17.668-2.5-25c3.667-7.336,9-13.169,16-17.5c7-4.343,14.833-5.676,23.5-4
	c8.667,1.668,15.334,6.834,20,15.5l41,76l77-21c6-2,12.5-0.167,19.5,5.5s10.5,12.5,10.5,20.5v109c0,8.667-3.332,14.667-10,18
	s-13.334,3.167-20-0.5s-10-9.5-10-17.5l-1-80l-80,24c-17.333,5.333-30.333,0-39-16L40.273,212z"/>
<polygon points="164.273,230 164.273,0 144.273,0 144.273,234 "/>
<path d="M3.273,262c-4-6.667-4.333-12.667-1-18s8.167-7.833,14.5-7.5c6.333,0.334,11.167,4.168,14.5,11.5l35,67
	c8.667,16,21.667,24,39,24c2.667,0,7.667-1,15-3l44-12c7.333-2.662,13.333-1.829,18,2.5c4.667,4.333,6.167,9.5,4.5,15.5
	s-6.167,10-13.5,12l-46,13c-6.667,2-14,3-22,3c-14.667,0-28-3.667-40-11s-21.333-17.333-28-30L3.273,262z"/>
</svg>
