<?xml version="1.0" encoding="utf-8"?>
<!-- Generator: Adobe Illustrator 16.0.4, SVG Export Plug-In . SVG Version: 6.00 Build 0)  -->
<!DOCTYPE svg PUBLIC "-//W3C//DTD SVG 1.1//EN" "http://www.w3.org/Graphics/SVG/1.1/DTD/svg11.dtd">
<svg version="1.1" id="Capa_1" xmlns="http://www.w3.org/2000/svg" xmlns:xlink="http://www.w3.org/1999/xlink" x="0px" y="0px"
	 width="472px" height="492px" viewBox="0 0 472 492" enable-background="new 0 0 472 492" xml:space="preserve">
<path d="M426.5,90c12.333,0,23-4.333,32-13S472,57.833,472,45.5s-4.5-23-13.5-32S438.833,0,426.5,0S403.667,4.5,395,13.5
	s-13,19.667-13,32s4.333,22.833,13,31.5S414.167,90,426.5,90z"/>
<path d="M297,482h123c7.333-1.333,11-5,11-11v-10h10c-0.667,0.667-0.667,3.167,0,7.5s-0.667,9-4,14s-8.333,8.167-15,9.5H297V482z"/>
<path d="M11,389l82,82c4,2,8.333,0.667,13-4l6-6l11,10c0,0.667-0.5,1.667-1.5,3s-2.833,3.333-5.5,6s-5.5,4.667-8.5,6s-6.333,2-10,2
	s-7.5-1.333-11.5-4L0,397L11,389z"/>
<path d="M327,356v82c0,7.333,2.5,13.667,7.5,19s11.167,8,18.5,8c6.667,0,12.667-3,18-9s8-12,8-18V324c0-8.667-2.333-15.334-7-20
	l-65-66l88-89c4.667-6,7.667-12.833,9-20.5c1.346-7.667,1.68-13.833,1-18.5l-2-6c-2.67-8.667-7.337-15.333-14-20
	c-6.667-4.667-12.667-7.333-18-8l-8-1H137c-6,0-11,2.167-15,6.5s-6,9.5-6,15.5s2,11.167,6,15.5s9,6.5,15,6.5h156l-65,66
	c-10,10-15,21.667-15,35c0,14,5,25.667,15,35L327,356z"/>
<path d="M214,267l-6-6L78,392c-11.333,9.333-13.667,20.667-7,34c3.333,6.667,8.5,11.167,15.5,13.5s13.833,1.833,20.5-1.5
	c2-0.667,3.667-1.667,5-3l134-135L214,267z"/>
</svg>
