<?xml version="1.0" encoding="utf-8"?>
<!-- Generator: Adobe Illustrator 16.0.4, SVG Export Plug-In . SVG Version: 6.00 Build 0)  -->
<!DOCTYPE svg PUBLIC "-//W3C//DTD SVG 1.1//EN" "http://www.w3.org/Graphics/SVG/1.1/DTD/svg11.dtd">
<svg version="1.1" id="Capa_1" xmlns="http://www.w3.org/2000/svg" xmlns:xlink="http://www.w3.org/1999/xlink" x="0px" y="0px"
	 width="461.183px" height="492px" viewBox="0 0 461.183 492" enable-background="new 0 0 461.183 492" xml:space="preserve">
<path d="M340.683,0c-11.666,0-21.666,4.167-30,12.5c-8.332,8.333-12.5,18.333-12.5,30s4.168,21.667,12.5,30
	c8.333,8.333,18.333,12.5,30,12.5c11.668,0,21.5-4.167,29.5-12.5s12-18.333,12-30s-4-21.667-12-30S352.351,0,340.683,0z"/>
<path d="M23.682,292.5c-4.333-7-10-8.333-17-4c-7,4.334-8.5,10.167-4.5,17.5c4.667,6.667,10.667,8,18,4
	C26.849,305.333,28.015,299.5,23.682,292.5z"/>
<path d="M31.682,327.5c-4.333-7-10-8.333-17-4s-8.333,10-4,17s10,8.333,17,4S36.015,334.5,31.682,327.5z"/>
<path d="M41.182,362c-4.667-7.333-10.667-8.667-18-4c-6.667,4-7.833,9.667-3.5,17s10,8.667,17,4S45.182,368.667,41.182,362z"/>
<path d="M49.682,396.5c-4.333-7-10.167-8.5-17.5-4.5c-6.667,4.667-7.833,10.5-3.5,17.5s9.833,8.5,16.5,4.5
	C52.515,409.333,54.015,403.5,49.682,396.5z"/>
<path d="M251.182,467c-8,2.667-10.832,7.833-8.5,15.5c2.334,7.667,7.5,10.333,15.5,8s10.668-7.5,8-15.5
	C263.516,467,258.516,464.333,251.182,467z"/>
<path d="M285.682,467c-7.666,2.667-10.166,8-7.5,16c2.668,8,7.834,10.667,15.5,8c7.668-2.667,10.168-8,7.5-16
	S293.348,464.333,285.682,467z"/>
<path d="M321.183,467c-8,2.667-10.667,8-8,16c2.668,8,8,10.667,16,8s10.668-8,8-16C334.517,467,329.183,464.333,321.183,467z"/>
<path d="M356.683,467.5c-7.674,2.333-10.342,7.5-8,15.5c2.334,8,7.5,10.667,15.5,8s10.668-7.833,8-15.5
	C369.513,467.833,364.347,465.167,356.683,467.5z"/>
<path d="M441.183,164h-73l-37-59c-6.668-14.667-18.334-22.333-35-23c-2-0.667-4.666-0.333-8,1l-184,43c-6,1.333-10.5,4.5-13.5,9.5
	s-3.833,10.333-2.5,16s4.333,10,9,13s10,3.833,16,2.5l123-22l-94,162h-68h-32l22,81c0.667,1.333,1.167,1.833,1.5,1.5l0.5-0.5
	c3.333,5.333,8.333,6,15,2c2.667-1.333,4.333-4,5-8l13-41l1-2h61c14,0,23.667-4.667,29-14l29-48l63,65l-27,108h92
	c3.334,0,6-1.333,8-4s3-5.333,3-8c0-4.667-2-8.333-6-11l-40-23l19-76c3.334-11.333,0-21.667-10-31l-52-53c18.668-30,33.668-55,45-75
	l24,35h16h86c6,0,11-2,15-6s6-8.833,6-14.5s-2-10.5-6-14.5S446.517,164,441.183,164z"/>
</svg>
