<?xml version="1.0" encoding="utf-8"?>
<!-- Generator: Adobe Illustrator 16.0.4, SVG Export Plug-In . SVG Version: 6.00 Build 0)  -->
<!DOCTYPE svg PUBLIC "-//W3C//DTD SVG 1.1//EN" "http://www.w3.org/Graphics/SVG/1.1/DTD/svg11.dtd">
<svg version="1.1" id="Capa_1" xmlns="http://www.w3.org/2000/svg" xmlns:xlink="http://www.w3.org/1999/xlink" x="0px" y="0px"
	 width="492px" height="461px" viewBox="0 0 492 461" enable-background="new 0 0 492 461" xml:space="preserve">
<path d="M327,37.5c0,10.333,3.667,19.167,11,26.5s16.333,11,27,11s19.667-3.667,27-11c7.333-7.335,11-16.168,11-26.5
	c0-10.335-3.667-19.168-11-26.5c-7.333-7.333-16.333-11-27-11s-19.667,3.667-27,11S327,27.167,327,37.5z"/>
<path d="M126,401L0,275v22l117,118c4.667,4.667,9.834,6.5,15.5,5.5c5.667-1,10.667-2.5,15-4.5s6.5-3.333,6.5-4l-11-12
	c-1.333,0.667-2.5,1.333-3.5,2s-3.167,1.333-6.5,2C129.666,404.667,127.332,403.667,126,401z"/>
<rect y="164" width="133" height="10"/>
<polygon points="477,128 492,135 346,430 330,430 "/>
<path d="M235,103l-59,68c-3.333,4.667-8,7-14,7c-5.333,0-9.833-1.833-13.5-5.5s-5.5-8.167-5.5-13.5s2-10,6-14l63-73
	c4-4.667,9-7,15-7h92c6.667,0,12.333,2.333,17,7l58,59l49-49c3.333-2.667,7.333-4,12-4c5.333,0,10,1.833,14,5.5s6,8.167,6,13.5
	c0,4.667-1.667,9-5,13l-58,59c-5.333,5.333-10.667,8.167-16,8.5s-9.333-0.5-12-2.5l-4-4l-36-36l-56,65l52,52
	c0.667,0.667,1.5,1.667,2.5,3c1,1.335,2.167,4.668,3.5,10c1.328,5.333,0.661,11-2,17l-28,128c-1.333,6-4.333,10.833-9,14.5
	s-9.667,5.5-15,5.5c-6.667,0-12.5-2.5-17.5-7.5S267,411.667,267,405c0-2,0.333-4,1-6l24-105l-59-57l-50,56
	c-0.667,0.667-1.667,1.5-3,2.5s-4.5,2.5-9.5,4.5s-10.5,2.667-16.5,2H52c-6,0.667-11.167-0.833-15.5-4.5S29.333,289,28,283
	c-2-6.667-1.167-12.833,2.5-18.5s8.833-9.167,15.5-10.5h6h88l129-150L235,103z"/>
<path d="M459,432c0,4.667-1.833,8.833-5.5,12.5c-3.67,3.667-7.837,5.5-12.5,5.5H144v11h297c8.667,0,15.833-2.833,21.5-8.5
	s8.5-12.833,8.5-21.5L459,432z"/>
</svg>
