<?xml version="1.0" encoding="utf-8"?>
<!-- Generator: Adobe Illustrator 16.0.4, SVG Export Plug-In . SVG Version: 6.00 Build 0)  -->
<!DOCTYPE svg PUBLIC "-//W3C//DTD SVG 1.1//EN" "http://www.w3.org/Graphics/SVG/1.1/DTD/svg11.dtd">
<svg version="1.1" id="Capa_1" xmlns="http://www.w3.org/2000/svg" xmlns:xlink="http://www.w3.org/1999/xlink" x="0px" y="0px"
	 width="492px" height="431px" viewBox="0 0 492 431" enable-background="new 0 0 492 431" xml:space="preserve">
<polygon points="491,115 450,431 314,431 274,114 440,114 473,0 492,6 460,115 "/>
<path d="M255,298v-4.5c0-1.667-1-4.834-3-9.5c-2-4.667-5-8.834-9-12.5c-4-3.667-10.667-7-20-10c-9.334-3-20.667-4.5-34-4.5H77
	c-13.333,0-24.667,1.333-34,4s-15.833,6-19.5,10s-6.667,8-9,12s-3.5,7.667-3.5,11l1,4H255z"/>
<path d="M12,390c-0.667,1.333-0.833,2.833-0.5,4.5s1.333,4.833,3,9.5s4.5,8.833,8.5,12.5s10.667,7,20,10s20.667,4.5,34,4.5h112
	c13.333,0,24.667-1.333,34-4s16-6,20-10s7-8,9-12s3-7.667,3-11v-4H12z"/>
<path d="M244,370c6,0,11-2.5,15-7.5s6-11.167,6-18.5s-2-13.5-6-18.5s-9-7.5-15-7.5H21c-6,0-11,2.5-15,7.5S0,336.667,0,344
	s2,13.5,6,18.5s9,7.5,15,7.5H244z"/>
</svg>
