<?xml version="1.0" encoding="utf-8"?>
<!-- Generator: Adobe Illustrator 16.0.4, SVG Export Plug-In . SVG Version: 6.00 Build 0)  -->
<!DOCTYPE svg PUBLIC "-//W3C//DTD SVG 1.1//EN" "http://www.w3.org/Graphics/SVG/1.1/DTD/svg11.dtd">
<svg version="1.1" id="Capa_1" xmlns="http://www.w3.org/2000/svg" xmlns:xlink="http://www.w3.org/1999/xlink" x="0px" y="0px"
	 width="471.199px" height="471.146px" viewBox="0 0 471.199 471.146" enable-background="new 0 0 471.199 471.146"
	 xml:space="preserve">
<g>
	<path d="M373.7,95.182c11,0,20.332-3.833,28-11.5c7.666-7.667,11.5-16.833,11.5-27.5s-3.834-19.667-11.5-27
		c-7.668-7.333-17-11-28-11s-20.334,3.667-28,11c-7.668,7.333-11.5,16.333-11.5,27c0,10.668,3.832,19.835,11.5,27.5
		C353.366,91.349,362.7,95.182,373.7,95.182z"/>
	<path d="M438.2,229.183c4,3.333,8.666,5,14,5c5.332,0,9.832-1.833,13.5-5.5c3.666-3.668,5.5-7.834,5.5-12.5
		c0-5.334-2.334-10.001-7-14.001l-111-100c-3.334-4-7.334-7-12-9l-87-30l-39-56c-3.334-4-7.668-6.333-13-7
		c-5.333-0.667-10,0.5-14,3.5s-6.333,7.167-7,12.5c-0.667,4,0.333,8,3,12l40,57c2,2,4.333,3.667,7,5l46,18l-76,39
		c-11.333,6-18.333,15.333-21,28l1,69l-71,31c-8.667,4.668-13.333,11.668-14,21c0,5.334,1.667,10.333,5,14.999l-38-13.999
		c-8-3.332-13-8.666-15-16c-2.667-6.666-7-11.5-13-14.5s-12.167-3.332-18.5-1c-6.333,2.334-11,6.5-14,12.5s-3.5,12.334-1.5,19
		c7.333,21.999,22,36.999,44,44.999l330,124c22.666,8,44,6.333,64-5c6-3.333,10-8.333,12-15c2-6.665,1.166-12.831-2.5-18.499
		c-3.668-5.666-8.668-9.334-15-11c-6.334-1.666-12.5-0.832-18.5,2.5c-7.334,4-14.668,4.334-22,1l-82-30c9.334-3.332,14.667-10,16-20
		l13-102v-2c0.666-7.332-1.668-13.332-7-18l-56-49l84-40L438.2,229.183z M290.199,274.183l-11,89.999v1v1
		c-0.667,4.668,0.333,9.001,3,13.001l-156-59.001c2,0,3.667-0.332,5-1l87-38.999c6.667-3.332,10.667-8.666,12-16v-43
		L290.199,274.183z"/>
</g>
</svg>
