<?xml version="1.0" encoding="utf-8"?>
<!-- Generator: Adobe Illustrator 16.0.4, SVG Export Plug-In . SVG Version: 6.00 Build 0)  -->
<!DOCTYPE svg PUBLIC "-//W3C//DTD SVG 1.1//EN" "http://www.w3.org/Graphics/SVG/1.1/DTD/svg11.dtd">
<svg version="1.1" id="Capa_1" xmlns="http://www.w3.org/2000/svg" xmlns:xlink="http://www.w3.org/1999/xlink" x="0px" y="0px"
	 width="492px" height="430.32px" viewBox="0 0 492 430.32" enable-background="new 0 0 492 430.32" xml:space="preserve">
<path d="M158.5,81.32c11-1.333,19.833-6.5,26.5-15.5s9.5-19,8.5-30s-5.833-20-14.5-27s-18.5-9.833-29.5-8.5s-19.833,6.5-26.5,15.5
	s-9.334,19-8,30c1.333,11,6.167,20,14.5,27S147.5,82.653,158.5,81.32z"/>
<path d="M486,272.32c-109.333-56-164-84.333-164-85l-42-54l-2-1c-5.333-4.667-12.667-4.333-22,1c0,10,0.333,15.333,1,16l31,40l1,1
	l-25,59l-67-17l-3-25l55-7c2.667,0,5.333-0.667,8-2c4-2.667,6.833-6.5,8.5-11.5s1.167-9.833-1.5-14.5c-4-7.334-10-10.668-18-10
	l-56,7l-6-42c-1.334-11.333-6.167-20.5-14.5-27.5s-18-9.833-29-8.5s-20,6.5-27,15.5s-9.833,18.833-8.5,29.5l12,99
	c1.333,12.666,7.667,22.666,19,30l-89,10l-27,70l1-0.5c0.667-0.334,1.333-0.5,2-0.5c11.333-5.334,23.333-8,36-8s25,2.666,37,8
	c6.667,3.332,14,5,22,5s15.667-1.668,23-5c11.333-5.334,23.333-8,36-8s24.667,2.666,36,8c7.333,3.332,15,5,23,5s15.667-1.668,23-5
	c11.333-5.334,23.333-8,36-8s24.667,2.666,36,8l9,3c81.333-22,130.333-40.668,147-56c3.333-2.668,5-6,5-10S490,274.32,486,272.32z"
	/>
<path d="M0,430.32c10,0,19.667-2,29-6c10-4.668,20.167-7,30.5-7s20.167,2.332,29.5,7c9.333,4,19,6,29,6s19.667-2,29-6
	c10-4.668,20.167-7,30.5-7s20.167,2.332,29.5,7c9.333,4,19,6,29,6s19.667-2,29-6c9.333-4.668,19.333-7,30-7s20.667,2.332,30,7
	c9.333,4,19,6,29,6s19.667-2,29-6c10-4.668,20-7,30-7s20,2.332,30,7c9.335,4,18.668,6,28,6v-44c-10,0-19.333-2.334-28-7
	c-9.333-4-19.333-6-30-6s-20.667,2-30,6c-9.333,4.666-19,7-29,7s-19.667-2.334-29-7c-9.333-4-19.333-6-30-6s-20.667,2-30,6
	c-9.333,4.666-19,7-29,7s-19.667-2.334-29-7c-9.333-4-19.333-6-30-6s-20.667,2-30,6c-9.333,4.666-19,7-29,7s-19.667-2.334-29-7
	c-9.333-4-19.333-6-30-6s-20.667,2-30,6c-9.333,4.666-19,7-29,7V430.32z"/>
</svg>
