<?xml version="1.0" encoding="utf-8"?>
<!-- Generator: Adobe Illustrator 16.0.4, SVG Export Plug-In . SVG Version: 6.00 Build 0)  -->
<!DOCTYPE svg PUBLIC "-//W3C//DTD SVG 1.1//EN" "http://www.w3.org/Graphics/SVG/1.1/DTD/svg11.dtd">
<svg version="1.1" id="Capa_1" xmlns="http://www.w3.org/2000/svg" xmlns:xlink="http://www.w3.org/1999/xlink" x="0px" y="0px"
	 width="430px" height="492px" viewBox="0 0 430 492" enable-background="new 0 0 430 492" xml:space="preserve">
<path d="M430,124H288L215,0l-73,124H0l71,122L0,368h142l73,124l73-124h142l-71-122L430,124z M215,88l21,35h-42L215,88z M76,328
	l21-35l20,35H76z M97,199l-21-35h41L97,199z M215,404l-21-35h42L215,404z M262,328h-94l-46-82l46-82h94l46,82L262,328z M313,328
	l20-35l21,35H313z M333,199l-20-35h41L333,199z"/>
</svg>
