<?xml version="1.0" encoding="utf-8"?>
<!-- Generator: Adobe Illustrator 16.0.4, SVG Export Plug-In . SVG Version: 6.00 Build 0)  -->
<!DOCTYPE svg PUBLIC "-//W3C//DTD SVG 1.1//EN" "http://www.w3.org/Graphics/SVG/1.1/DTD/svg11.dtd">
<svg version="1.1" id="Capa_1" xmlns="http://www.w3.org/2000/svg" xmlns:xlink="http://www.w3.org/1999/xlink" x="0px" y="0px"
	 width="472px" height="440px" viewBox="0 0 472 440" enable-background="new 0 0 472 440" xml:space="preserve">
<path d="M465.5,108c-4.333-4-9.167-6-14.5-6H328V62c0-16-4.5-30.333-13.5-43S294,0,280,0h-98c-14,0-25.5,6.333-34.5,19
	S134,46,134,62v40H21c-5.333,0-10.167,2-14.5,6S0,117,0,123v297c0,5.333,2.167,10,6.5,14s9.167,6,14.5,6h430c5.337,0,10.17-2,14.5-6
	c4.333-4,6.5-8.667,6.5-14V123C472,117,469.833,112,465.5,108z M287,410H175v-11l1.5-0.5c1-0.333,2.333-0.5,4-0.5h3.5l8-2
	c4.667-2,7.667-4,9-6c2.667-4.667,4-8.333,4-11V274c0-2-1.333-5.667-4-11c-2-2.667-4.667-5-8-7c-3.333-2.67-6-4.336-8-5
	c-1.333,0-2.833-0.167-4.5-0.5s-3-0.667-4-1L175,249v-13l83-5l-2,3v143c0,1.333,2,4.667,6,10c1.333,2.667,4,5,8,7
	c2.667,1.333,5.333,2.333,8,3c0.667,0,1.833,0.167,3.5,0.5s3,0.5,4,0.5s1.5,0.333,1.5,1V410z M191,166.5c0-9,3.5-16.833,10.5-23.5
	s15.333-10,25-10s18,3.333,25,10s10.5,14.5,10.5,23.5s-3.5,16.667-10.5,23s-15.333,9.5-25,9.5s-18-3.167-25-9.5S191,175.5,191,166.5
	z M297,102H164V62c0-6,2.5-12.667,7.5-20s9.833-11,14.5-11h83c5.333,0,11.333,3.667,18,11s10,14,10,20V102z"/>
</svg>
