<?xml version="1.0" encoding="utf-8"?>
<!-- Generator: Adobe Illustrator 16.0.4, SVG Export Plug-In . SVG Version: 6.00 Build 0)  -->
<!DOCTYPE svg PUBLIC "-//W3C//DTD SVG 1.1//EN" "http://www.w3.org/Graphics/SVG/1.1/DTD/svg11.dtd">
<svg version="1.1" id="Capa_1" xmlns="http://www.w3.org/2000/svg" xmlns:xlink="http://www.w3.org/1999/xlink" x="0px" y="0px"
	 width="450px" height="471.281px" viewBox="0 0 450 471.281" enable-background="new 0 0 450 471.281" xml:space="preserve">
<path d="M450,471.281c-9.333,0-18.333-2.333-27-7c-9.333-4-19-6-29-6s-19.667,2-29,6c-8.668,4.666-17.835,7-27.5,7
	c-9.668,0-18.835-2.333-27.5-7c-9.333-4-19-6-29-6s-19.333,2-28,6c-9.333,4.666-18.667,7-28,7c-9.334,0-18.667-2.333-28-7
	c-8.667-4-18-6-28-6s-19.667,2-29,6c-8.667,4.666-17.833,7-27.5,7s-18.833-2.333-27.5-7c-9.333-4-19-6-29-6s-19.333,2-28,6
	c-9.333,4.666-18.667,7-28,7v-42c9.333,0,18.667-2,28-6c8.667-4,18-6,28-6s19.667,2,29,6c8.667,4,17.833,6,27.5,6s18.834-2,27.5-6
	c9.333-4,18.833-6,28.5-6s19.167,2,28.5,6s18.667,6,28,6c9.334,0,18.668-2,28-6c9.333-4,18.833-6,28.5-6s19.167,2,28.5,6
	c8.667,4,17.833,6,27.5,6s18.833-2,27.5-6c9.333-4,19-6,29-6s19.667,2,29,6c8.667,4,17.667,6,27,6V471.281z"/>
<path d="M127.5,267.281c10.333,0,19.167-3.667,26.5-11s11-16.167,11-26.5s-3.667-19.333-11-27c-7.334-7.667-16.167-11.5-26.5-11.5
	s-19.333,3.833-27,11.5c-7.667,7.667-11.5,16.667-11.5,27c0,10.334,3.833,19.167,11.5,26.5S117.167,267.281,127.5,267.281z"/>
<path d="M133,398.281c-3.333,5.333-7.833,8.667-13.5,10s-11,0.5-16-2.5s-8.333-7.333-10-13c-1.665-5.667-0.831-10.833,2.5-15.5
	l88-152c3.333-5.333,7.667-9.667,13-13l114-69l77-130c3.333-6.667,8.5-10.833,15.5-12.5s13.667-0.667,20,3s10.5,9,12.5,16
	s1.333,13.5-2,19.5l-93,157c-2.667,5.333-7,9.667-13,13l-134,83L133,398.281z"/>
</svg>
