<?xml version="1.0" encoding="utf-8"?>
<!-- Generator: Adobe Illustrator 16.0.4, SVG Export Plug-In . SVG Version: 6.00 Build 0)  -->
<!DOCTYPE svg PUBLIC "-//W3C//DTD SVG 1.1//EN" "http://www.w3.org/Graphics/SVG/1.1/DTD/svg11.dtd">
<svg version="1.1" id="Capa_1" xmlns="http://www.w3.org/2000/svg" xmlns:xlink="http://www.w3.org/1999/xlink" x="0px" y="0px"
	 width="472px" height="471.777px" viewBox="0 0 472 471.777" enable-background="new 0 0 472 471.777" xml:space="preserve">
<path d="M54,299c14.667,0,27.167-5.333,37.5-16s15.5-23.667,15.5-39s-5.167-28.333-15.5-39S68.667,189,54,189s-27.333,5.333-38,16
	S0,228.667,0,244s5.333,28.333,16,39S39.333,299,54,299z"/>
<path d="M353,393c2.667-2,5.333-1.667,8,1l10,15c2,2.666,1.333,5-2,7l-72,54c-2.671,2.666-5.338,2.333-8-1l-10-14
	c-2-2.667-1.333-5.334,2-8L353,393z"/>
<polygon points="271,323 242,272 227,283 256,335 "/>
<polygon points="204,202 92,0 71,1 189,214 "/>
<path d="M309,309c10.667-8,20.333-12,29-12h103c9.333,0,16.833,4.167,22.5,12.5s8.5,17.833,8.5,28.5c0,20.667-10.333,31-31,31h-92
	l-111,87c-13.333,10-24.667,14.166-34,12.5c-9.333-1.667-16.5-4.334-21.5-8c-5-3.667-7.5-6.167-7.5-7.5l-87-89
	c-7.333-9.333-10.333-21-9-35s6.333-24.667,15-32l120-88c6-5.337,13-7.671,21-7c8,0.669,14.5,4.002,19.5,10c5,6,7.167,13,6.5,21
	s-4,14.667-10,20l-77,58l55,56L309,309z"/>
</svg>
