<?xml version="1.0" encoding="utf-8"?>
<!-- Generator: Adobe Illustrator 16.0.4, SVG Export Plug-In . SVG Version: 6.00 Build 0)  -->
<!DOCTYPE svg PUBLIC "-//W3C//DTD SVG 1.1//EN" "http://www.w3.org/Graphics/SVG/1.1/DTD/svg11.dtd">
<svg version="1.1" id="Capa_1" xmlns="http://www.w3.org/2000/svg" xmlns:xlink="http://www.w3.org/1999/xlink" x="0px" y="0px"
	 width="472px" height="450px" viewBox="0 0 472 450" enable-background="new 0 0 472 450" xml:space="preserve">
<g>
	<path d="M464,341L356,192l-4-7c-3.333-4.665-8.833-9.331-16.5-14c-7.667-4.667-16.5-7-26.5-7H163c-10,0-19,2.5-27,7.5
		s-13.167,9.167-15.5,12.5s-3.833,6-4.5,8L8,341c-5.333,7.333-8,15.333-8,24c0,11.333,4.167,21.167,12.5,29.5S30.667,407,42,407
		c5.333,0,10.667-1,16-3l65-19v65h226v-65l65,19c5.333,2,10.667,3,16,3c11.333,0,21.167-4.167,29.5-12.5S472,376.333,472,365
		C472,356.333,469.333,348.333,464,341z M349,302l-8-3c-11.333-2.667-21.5-2.667-30.5,0s-15.5,7.667-19.5,15s-6.167,15-6.5,23
		s2.5,15.833,8.5,23.5s14.667,13.167,26,16.5h1l-84,28l-84-28h2c10.667-3.333,19-8.833,25-16.5s8.833-15.5,8.5-23.5
		s-2.5-15.667-6.5-23s-10.5-12.333-19.5-15s-19.167-2.667-30.5,0l-8,3v-87l113,37l113-37V302z"/>
	<path d="M237.5,147c20.334,0,37.667-7.167,52-21.5c14.333-14.334,21.5-31.667,21.5-52c0-20.334-7.167-37.667-21.5-52
		S257.833,0,237.5,0c-20.334,0-37.667,7.167-52,21.5S164,53.167,164,73.5s7.167,37.667,21.5,52S217.167,147,237.5,147z"/>
</g>
</svg>
