<?xml version="1.0" encoding="utf-8"?>
<!-- Generator: Adobe Illustrator 16.0.4, SVG Export Plug-In . SVG Version: 6.00 Build 0)  -->
<!DOCTYPE svg PUBLIC "-//W3C//DTD SVG 1.1//EN" "http://www.w3.org/Graphics/SVG/1.1/DTD/svg11.dtd">
<svg version="1.1" id="Capa_1" xmlns="http://www.w3.org/2000/svg" xmlns:xlink="http://www.w3.org/1999/xlink" x="0px" y="0px"
	 width="492px" height="492px" viewBox="0 0 492 492" enable-background="new 0 0 492 492" xml:space="preserve">
<g>
	<path d="M49.5,238c-5,0-9.333,1.833-13,5.5s-5.5,8-5.5,13s1.833,9.333,5.5,13s8,5.5,13,5.5s9.333-1.833,13-5.5s5.5-8,5.5-13
		s-1.833-9.333-5.5-13S54.5,238,49.5,238z"/>
	<path d="M310.5,82c11,0,20.5-4,28.5-12s12-17.667,12-29s-4-21-12-29S321.5,0,310.5,0S290,4,282,12s-12,17.667-12,29s4,21,12,29
		S299.5,82,310.5,82z"/>
	<path d="M486,444l-66-78c-14-80-21-120.333-21-121l-3-13l-2.5-10c-1.667-6.667-3.667-16-6-28s-4.5-22-6.5-30
		c12.667,7.333,19.333,11,20,11l35,67c2.667,5.335,7,8.668,13,10c5.333,2,10.5,1.667,15.5-1s8.167-6.667,9.5-12
		c2-5.333,1.667-10.667-1-16l-38-72c-0.667-2-1.667-3.667-3-5l-9-6l-74-42c-10-4.667-20-6-30-4c-4,0.678-8.333,2.345-13,5
		c-0.667,0-2.167,0.833-4.5,2.5s-5.833,5-10.5,10c-4.669,5-8.336,10.833-11,17.5l-38,76c-38.667,7.333-58.667,11-60,11
		c-0.667,0-1,0.333-1,1l-54-38c-6.667-4.667-11.333-16.333-14-35c-1.333-18.667-10.333-33.667-27-45
		C70.667,88.333,54.667,84.333,38,87c-12.667,2-22.667,8-30,18c-5.333,7.333-8,15.667-8,25l1,9c2.667,16.668,11.667,30.335,27,41
		c15.333,10.667,31.333,14.667,48,12l4-1l6-1.5c4-1,9-1.5,15-1.5s11,1,15,3l10,7.5c6.667,5,14.5,10.667,23.5,17
		c9,6.334,14.833,10.168,17.5,11.5c-2,3.334-3,6.668-3,10v4c1.333,5.334,4.333,9.668,9,13c4.667,3.333,9.667,4.333,15,3l72-14l9-3
		l6-8l18-38c8.667,40.667,13.333,61.667,14,63l-59,62l-2,1c-6.667,6-10,12.333-10,19v128c0,6.667,2.5,12.5,7.5,17.5s11,7.5,18,7.5
		s13-2.5,18-7.5s7.5-10.833,7.5-17.5V360c3.333-2,9-7.167,17-15.5s16.833-18,26.5-29S346,298,348,296c0.667,2,2,9,4,21
		s4,23.5,6,34.5l3,16.5c1.333,6,4,11,8,15c0,0.667,26.333,31.667,79,93c4.667,5.333,10.333,8.333,17,9s12.667-1.333,18-6
		c6-4.667,9-11,9-19C492,454,490,448.667,486,444z M93,165c-4.667,6-11.333,9.667-20,11c-12,2-24-1-36-9c-11.333-8.667-18-19-20-31
		l-1-6c0-6,1.667-11.333,5-16c5.333-7.333,13.5-11.333,24.5-12s21.333,2.5,31,9.5s16.167,15.667,19.5,26S98.333,157,93,165z"/>
</g>
</svg>
