<?xml version="1.0" encoding="utf-8"?>
<!-- Generator: Adobe Illustrator 16.0.4, SVG Export Plug-In . SVG Version: 6.00 Build 0)  -->
<!DOCTYPE svg PUBLIC "-//W3C//DTD SVG 1.1//EN" "http://www.w3.org/Graphics/SVG/1.1/DTD/svg11.dtd">
<svg version="1.1" id="Capa_1" xmlns="http://www.w3.org/2000/svg" xmlns:xlink="http://www.w3.org/1999/xlink" x="0px" y="0px"
	 width="472px" height="497px" viewBox="0 0 472 497" enable-background="new 0 0 472 497" xml:space="preserve">
<path d="M41,476c0,14,6.833,21,20.5,21S82,490,82,476V287h21v189c0,14,6.834,21,20.5,21c13.667,0,20.5-7,20.5-21V154h10v116
	c0,7.334,2.5,12.667,7.5,16s10.167,3.333,15.5,0s8-8.667,8-16V145c0-13.334-4.5-23.667-13.5-31S150,103,134,103H52
	c-15.333,0-27.833,3.333-37.5,10S0,130,0,144v133c0,6,2.667,10.333,8,13s10.5,2.667,15.5,0s7.5-7,7.5-13V154h10V476z"/>
<path d="M450,323l-60-166c-0.667-0.667-1-1.333-1-2c0-3.333,1.667-5,5-5c2,0,3.333,1.333,4,4l41,107c3.337,7.333,10.67,11,22,11
	c4,0,6.833-3,8.5-9s2.5-10,2.5-12l-42-103c-1.333-12.667-7.333-23.333-18-32s-23-13-37-13h-53c-14,0-26.5,4.5-37.5,13.5
	S267,136,265,148l-39,104c-1.333,2-1,5.833,1,11.5s5,8.5,9,8.5c12.667,0,20-3.333,22-10l40-108c0.667-2,2-3,4-3c2.667,0,4,1.333,4,4
	v1l-59,167v13c0,1.334,1.667,3.668,5,7c3.338,3.333,5.671,5,7,5h38v129c0,5.333,2.167,10,6.5,14c4.336,4,9.169,6,14.5,6
	c5.333,0,10-2,14-6s6-8.667,6-14V343c0-0.667,1.833-1.167,5.5-1.5s7.167-0.333,10.5,0c3.333,0.337,5,0.837,5,1.5v133
	c0,5.333,2,10.167,6,14.5s8.833,6.5,14.5,6.5s10.5-2.167,14.5-6.5s6-9.167,6-14.5V348h39c2,0,4.333-1.667,7-5s4-5.667,4-7v-3v-4v-4
	V323z"/>
<path d="M49,42.5c0,11.667,4.167,21.667,12.5,30S79.833,85,91.5,85s21.667-4.167,30-12.5S134,54,134,42
	c0-11.335-4.167-21.168-12.5-29.5C113.167,4.167,103.167,0,91.5,0s-21.667,4.167-30,12.5S49,30.833,49,42.5z"/>
<path d="M305,42.5c0,11.667,4.167,21.667,12.5,30s18.333,12.5,30,12.5s21.667-4.167,30-12.5s12.5-18.333,12.5-30
	s-4.167-21.667-12.5-30S359.167,0,347.5,0s-21.667,4.167-30,12.5S305,30.833,305,42.5z"/>
</svg>
