<?xml version="1.0" encoding="utf-8"?>
<!-- Generator: Adobe Illustrator 16.0.4, SVG Export Plug-In . SVG Version: 6.00 Build 0)  -->
<!DOCTYPE svg PUBLIC "-//W3C//DTD SVG 1.1//EN" "http://www.w3.org/Graphics/SVG/1.1/DTD/svg11.dtd">
<svg version="1.1" id="Capa_1" xmlns="http://www.w3.org/2000/svg" xmlns:xlink="http://www.w3.org/1999/xlink" x="0px" y="0px"
	 width="365.852px" height="484.347px" viewBox="0 0 365.852 484.347" enable-background="new 0 0 365.852 484.347"
	 xml:space="preserve">
<path d="M362.571,67.348c-6.666-32.667-23-53.667-49-63c-18-6.667-41-5.667-69,3s-48.5,13-61.5,13s-33.5-4.333-61.5-13
	s-51-9.667-69-3c-26,9.333-42.667,30.333-50,63c-4,20-3.333,40,2,60s12.667,40.333,22,61s15,37.333,17,50
	c1.334,7.334,1.668,23.667,1,49c-0.667,25.331,0.333,50.331,3,74.999c11.333,81.332,29.333,122,54,122c5.333,0,10-1.5,14-4.5
	s7-7.834,9-14.5c2-6.668,3.5-13.168,4.5-19.5c1-6.334,1.333-14.834,1-25.5c-0.335-10.668-0.668-19.334-1-26
	c-0.333-6.668-0.833-15.666-1.5-27c-1.336-19.334-1.67-32.334-1-39c4-44.667,22.833-66.999,56.5-66.999s52.5,22.332,56.5,66.999
	c0.668,7.332,0.334,20.332-1,39c-0.67,11.332-1.338,20.332-2,27c-0.666,6.666-1,15.332-1,26c0,10.666,0.5,19.166,1.5,25.5
	c1,6.332,2.5,12.832,4.5,19.5c2,6.666,5,11.5,9,14.5s8.669,4.5,14,4.5c24.674,0,42.674-40.666,54-122
	c2.668-24,3.668-49.168,3-75.499c-0.648-26.334-0.314-42.5,1-48.5c2-12.667,7.668-29.334,17-50c9.334-20.667,16.668-41,22-61
	C366.924,107.348,367.257,87.348,362.571,67.348z"/>
</svg>
