<?xml version="1.0" encoding="utf-8"?>
<!-- Generator: Adobe Illustrator 16.0.4, SVG Export Plug-In . SVG Version: 6.00 Build 0)  -->
<!DOCTYPE svg PUBLIC "-//W3C//DTD SVG 1.1//EN" "http://www.w3.org/Graphics/SVG/1.1/DTD/svg11.dtd">
<svg version="1.1" id="Capa_1" xmlns="http://www.w3.org/2000/svg" xmlns:xlink="http://www.w3.org/1999/xlink" x="0px" y="0px"
	 width="512px" height="349px" viewBox="0 0 512 349" enable-background="new 0 0 512 349" xml:space="preserve">
<g>
	<path d="M202,31c-22.667-9.333-49.167-14-79.5-14S65.667,21.667,43,31c-18,7.333-28,17-30,29L0,147v120h18
		c0,16.667,2.833,28.167,8.5,34.5s11.5,6.333,17.5,0s9-17.833,9-34.5h137c0,16.667,3,28.167,9,34.5s11.833,6.333,17.5,0
		s8.5-17.833,8.5-34.5h21V147l-14-87C230,48,220,38.333,202,31z M55,39.5c1.333-5,3.333-7.5,6-7.5h113v31H61
		c-2.667,0-4.667-2.667-6-8S53.667,44.5,55,39.5z M23,144l10-61c0.667-1.333,1.167-2,1.5-2s1.333,0.333,3,1s3.167,1,4.5,1h160
		c1.333,0,3-0.333,5-1c2.67-1.333,4.337-1,5,1l9,66l1-1c0,4.667-3.333,7-10,7H32c-6,0-9-3-9-9V144z M52.5,227c-3.667,3.333-8,5-13,5
		s-9.333-1.667-13-5s-5.5-7.5-5.5-12.5s1.833-9.167,5.5-12.5s8-5,13-5s9.333,1.667,13,5s5.5,7.5,5.5,12.5S56.167,223.667,52.5,227z
		 M217.5,227c-3.667,3.333-8,5-13,5s-9.167-1.667-12.5-5s-5-7.5-5-12.5s1.667-9.167,5-12.5s7.5-5,12.5-5s9.333,1.667,13,5
		s5.5,7.5,5.5,12.5S221.167,223.667,217.5,227z"/>
	<path d="M458,268v-1v-1c8-3.333,15-7.333,21-12c5.333-4,9.333-10.667,12-20c0.667-2.668,1-5.335,1-8V40c0-5.333-1.333-10-4-14
		c-2.667-5.336-5.667-9.669-9-13c-3.333-2.667-8.333-5.667-15-9c-1.333-0.667-3-1.333-5-2s-3.833-1.167-5.5-1.5L451,0v1H319h-2V0
		c-3.333,0.667-7,2-11,4c-6,2.667-10.667,5.667-14,9c-5.333,4.667-9,8.667-11,12c-3.333,6-5,10.667-5,14v189c0,2.667,1,6,3,10
		c1.333,2.667,3.333,6,6,10l8,8c2.667,2.667,5.667,4.667,9,6c0.667,0.667,3,1.667,7,3c2.667,0.667,4,1.334,4,2l-54,82h31l40-61h110
		l40,61h32L458,268z M366,11h37c9.333,0,14,3.5,14,10.5S412.333,32,403,32h-37c-9.333,0-14-3.5-14-10.5S356.667,11,366,11z M297,105
		V82c0-8.667,2.833-15.833,8.5-21.5S318,52,326,52h106c8,0,14.833,2.833,20.5,8.5c5.667,5.668,8.5,12.835,8.5,21.5v23
		c0,8-2.833,14.833-8.5,20.5S440,134,432,134H326c-8,0-14.833-2.833-20.5-8.5S297,113,297,105z M339,234.5c-4,4.333-9,6.5-15,6.5
		s-11-2.167-15-6.5s-6-9.5-6-15.5c0-5.333,2-10,6-14s9-6,15-6s11,1.833,15,5.5s6,8.833,6,15.5C345,225.334,343,230.167,339,234.5z
		 M430,234.5c-4-4.333-6-9.5-6-15.5s2.167-10.833,6.5-14.5S440,199,446,199s11,2,15,6s6,8.667,6,14c0,6-2,11.167-6,15.5
		s-9.167,6.5-15.5,6.5S434,238.833,430,234.5z"/>
</g>
</svg>
