<?xml version="1.0" encoding="utf-8"?>
<!-- Generator: Adobe Illustrator 16.0.4, SVG Export Plug-In . SVG Version: 6.00 Build 0)  -->
<!DOCTYPE svg PUBLIC "-//W3C//DTD SVG 1.1//EN" "http://www.w3.org/Graphics/SVG/1.1/DTD/svg11.dtd">
<svg version="1.1" id="Capa_1" xmlns="http://www.w3.org/2000/svg" xmlns:xlink="http://www.w3.org/1999/xlink" x="0px" y="0px"
	 width="511px" height="512px" viewBox="0 0 511 512" enable-background="new 0 0 511 512" xml:space="preserve">
<g>
	<path d="M436,75C386,25,325.667,0,255,0S124.167,25,74.5,75S0,185,0,255l2,257h58V255c0-54.667,18.833-101.5,56.5-140.5
		S200.333,56,255,56s100.833,19.5,138.5,58.5S450,200.667,450,256v256h61V255C511,185,486,125,436,75z"/>
	<path d="M338,417l1-1c8.667-3.334,16.667-7.667,24-13c6.667-5.333,11.333-13.333,14-24c0.667-3.333,1-6,1-8V157
		c0-5.336-1.333-10.669-4-16c-3.333-5.333-7-10-11-14s-9-7.667-15-11c-4.667-2-10-3-16-3h-16H194h-15c-6,0-11.333,1-16,3
		c-6,3.333-11.167,6.833-15.5,10.5c-4.334,3.667-8.167,8.167-11.5,13.5c-2.667,5.333-4,10.667-4,16v217c0,4,0.667,7.667,2,11
		c2.667,4.667,5,8.333,7,11c2.667,4,5.667,7.333,9,10s6.333,5,9,7c2,0.667,4.667,1.667,8,3l4.5,1.5c1,0.333,1.167,0.5,0.5,0.5
		l-62,95h36l46-61h126l46,61h36l-61-93L338,417z M204,133c0-2.667,1-5,3-7s4.333-3,7-3h82c2.667,0,5,1,7,3s3,4.333,3,7v10
		c0,3.333-1,6-3,8s-4.333,3-7,3h-82c-2.667,0-5-1-7-3s-3-4.667-3-8V133z M163,192v-9c2-4,3.667-6.667,5-8c4-4.667,6.333-7,7-7
		c4.667-2.667,7.667-4,9-4h10h122h10l8,3c1.338,0.667,3.672,2.667,7,6c0.667,0.667,2.333,3,5,7c0.667,1.333,1,4,1,8v49
		c0,3.333-0.333,6-1,8c-2,2.667-4,5-6,7c-0.667,0-3,1-7,3c-1.333,0.667-4,1-8,1H185l-1,0.5c-0.667,0.333-1.167,0.5-1.5,0.5
		s-0.833-0.167-1.5-0.5l-1-0.5c-4.667-0.668-9-3.334-13-8c-2.667-3.333-4-8-4-14V192z M202,380.5c-4.667,5-10.5,7.5-17.5,7.5
		s-12.667-2.5-17-7.5S161,369.667,161,363s2.333-12.333,7-17s10.333-7,17-7s12.334,2.167,17,6.5c4.667,4.333,7,10.167,7,17.5
		C209,369.667,206.667,375.5,202,380.5z M307,380.5c-4.667-5-7-11-7-18s2.5-12.667,7.5-17s10.833-6.5,17.5-6.5s12.333,2.333,17,7
		s7,10.333,7,17s-2.333,12.5-7,17.5s-10.5,7.5-17.5,7.5S311.667,385.5,307,380.5z"/>
</g>
</svg>
