<?xml version="1.0" encoding="utf-8"?>
<!-- Generator: Adobe Illustrator 16.0.4, SVG Export Plug-In . SVG Version: 6.00 Build 0)  -->
<!DOCTYPE svg PUBLIC "-//W3C//DTD SVG 1.1//EN" "http://www.w3.org/Graphics/SVG/1.1/DTD/svg11.dtd">
<svg version="1.1" id="Capa_1" xmlns="http://www.w3.org/2000/svg" xmlns:xlink="http://www.w3.org/1999/xlink" x="0px" y="0px"
	 width="459.584px" height="348px" viewBox="0 0 459.584 348" enable-background="new 0 0 459.584 348" xml:space="preserve">
<path d="M459.334,59c0.667,2.667,0,5.667-2,9l-55,82c-2,3.333-5.333,5-10,5c-2,0-3.667-0.333-5-1l-44-10v194c0,6.667-3.667,10-11,10
	H117.333c-6.667,0-10-3.333-10-10V144l-40,10c-4.667,2-8.333,0.667-11-4l-55-82c-1.333-2.667-1.667-5.333-1-8
	C1,56.662,3,54.328,6.333,53l111-53h52c6.667,0,10,3.333,10,10c0,10,5.5,18.5,16.5,25.5s22.333,10.5,34,10.5s23.167-3.5,34.5-10.5
	s17-15.5,17-25.5c0-6.667,3.333-10,10-10h52l110,52C456.667,53.333,458.667,55.667,459.334,59z"/>
</svg>
