<?xml version="1.0" encoding="utf-8"?>
<!-- Generator: Adobe Illustrator 16.0.4, SVG Export Plug-In . SVG Version: 6.00 Build 0)  -->
<!DOCTYPE svg PUBLIC "-//W3C//DTD SVG 1.1//EN" "http://www.w3.org/Graphics/SVG/1.1/DTD/svg11.dtd">
<svg version="1.1" id="Capa_1" xmlns="http://www.w3.org/2000/svg" xmlns:xlink="http://www.w3.org/1999/xlink" x="0px" y="0px"
	 width="473.889px" height="318px" viewBox="0 0 473.889 318" enable-background="new 0 0 473.889 318" xml:space="preserve">
<path d="M473,25l-2-25H318c-7.333,54.667-4,109.334,10,164c8,13.333,25,21,51,23v100h-3l-38,31h113l-37-31h-4V186
	c24.667-3.333,41.667-10.667,51-22c6-21.333,9.833-45.667,11.5-73S474.333,41.667,473,25z M461,62H328V10h133V62z"/>
<path d="M266,31H0l113,169v87H57c-4.667,0-8.5,1.5-11.5,4.5s-4.5,6.667-4.5,11s1.5,8,4.5,11S52.333,318,57,318h153
	c4.667,0,8.5-1.5,11.5-4.5s4.5-6.667,4.5-11s-1.5-8-4.5-11s-6.833-4.5-11.5-4.5h-56v-87L266,31z"/>
</svg>
