<?xml version="1.0" encoding="utf-8"?>
<!-- Generator: Adobe Illustrator 16.0.4, SVG Export Plug-In . SVG Version: 6.00 Build 0)  -->
<!DOCTYPE svg PUBLIC "-//W3C//DTD SVG 1.1//EN" "http://www.w3.org/Graphics/SVG/1.1/DTD/svg11.dtd">
<svg version="1.1" id="Capa_1" xmlns="http://www.w3.org/2000/svg" xmlns:xlink="http://www.w3.org/1999/xlink" x="0px" y="0px"
	 width="492px" height="492px" viewBox="0 0 492 492" enable-background="new 0 0 492 492" xml:space="preserve">
<g>
	<path d="M433,132L246,0l-43,30l1,1L39,148L0,175v62l40-26v281h4h42h7h303h13h40h3V208l40,29v-62L433,132z M393,432H92V173L246,62
		l147,106V432z"/>
	<path d="M176.5,203c5.667,0,10.5-2,14.5-6s6-8.833,6-14.5s-2-10.5-6-14.5s-8.833-6-14.5-6s-10.333,2-14,6s-5.5,8.833-5.5,14.5
		s1.833,10.5,5.5,14.5S170.834,203,176.5,203z"/>
	<path d="M203,207h-53c-6.667,0-12.5,2.5-17.5,7.5S125,225.667,125,233v66c0,2,1,3.5,3,4.5s4.167,1,6.5,0s3.5-2.5,3.5-4.5v-67h11
		v167c0,3.333,1.167,6.333,3.5,9s4.833,4,7.5,4c7.333,0,11-3.667,11-11v-96h13v96c0,7.333,3.333,11,10,11c2.667,0,5.167-1.333,7.5-4
		s3.5-5.667,3.5-9l-1-167h12v67c0,3.333,2.333,5,7,5s7-1.667,7-5v-65c0-7.333-2.5-13.667-7.5-19S211,207,203,207z"/>
	<path d="M319,203c5.333,0,10-2,14-6s6-8.833,6-14.5s-2-10.5-6-14.5s-8.667-6-14-6s-10,2-14,6s-6,8.833-6,14.5s2,10.5,6,14.5
		S313.667,203,319,203z"/>
	<path d="M275.5,304c4.333,0,6.5-1.667,6.5-5v-67h10v167c0,3.333,1.167,6.333,3.5,9s4.833,4,7.5,4c8,0,12-3.667,12-11v-96h6v96
		c0,2.667,1.333,5.167,4,7.5s5.5,3.5,8.5,3.5s5.833-1.333,8.5-4s4-5.667,4-9V232h8v67c0,3.333,3.333,5,10,5s10-1.667,10-5v-65
		c0-7.333-2.667-13.667-8-19s-11.667-8-19-8h-53c-7.333,0-13.333,2.5-18,7.5s-7,11.167-7,18.5v66C269,302.333,271.167,304,275.5,304
		z"/>
</g>
</svg>
