<?xml version="1.0" encoding="utf-8"?>
<!-- Generator: Adobe Illustrator 16.0.4, SVG Export Plug-In . SVG Version: 6.00 Build 0)  -->
<!DOCTYPE svg PUBLIC "-//W3C//DTD SVG 1.1//EN" "http://www.w3.org/Graphics/SVG/1.1/DTD/svg11.dtd">
<svg version="1.1" id="Capa_1" xmlns="http://www.w3.org/2000/svg" xmlns:xlink="http://www.w3.org/1999/xlink" x="0px" y="0px"
	 width="410px" height="472px" viewBox="0 0 410 472" enable-background="new 0 0 410 472" xml:space="preserve">
<polygon points="0,31 174,31 174,52 154,52 154,66 0,80 "/>
<path d="M246.5,81c11,0,20.333-4,28-12S286,51.5,286,40.5S282.167,20,274.5,12s-17-12-28-12S226,4,218,12s-12,17.5-12,28.5
	S210,61,218,69S235.5,81,246.5,81z"/>
<path d="M277,79c5.333-6,12-9,20-9s15,3,21,9l86,86c4,4,6,8.333,6,13v261c0,9.333-3,17.167-9,23.5s-13.333,9.5-22,9.5
	s-16-3.167-22-9.5s-9-14.167-9-23.5V224l-82-81l-33,32c-4,5.333-9.333,8-16,8c-6,0-11-2.333-15-7l-55-56c-4-4-5.833-8.833-5.5-14.5
	s2.667-10.333,7-14s9.167-5.167,14.5-4.5s10,3,14,7l42,43L277,79z"/>
<path d="M108,91c-0.667-4.667-3.333-7-8-7c-3.333,0-5.333,2.333-6,7l-12,78v303h113v-41h-72l-1-260L108,91z"/>
</svg>
