<?xml version="1.0" encoding="utf-8"?>
<!-- Generator: Adobe Illustrator 16.0.4, SVG Export Plug-In . SVG Version: 6.00 Build 0)  -->
<!DOCTYPE svg PUBLIC "-//W3C//DTD SVG 1.1//EN" "http://www.w3.org/Graphics/SVG/1.1/DTD/svg11.dtd">
<svg version="1.1" id="Capa_1" xmlns="http://www.w3.org/2000/svg" xmlns:xlink="http://www.w3.org/1999/xlink" x="0px" y="0px"
	 width="366.287px" height="495.777px" viewBox="0 0 366.287 495.777" enable-background="new 0 0 366.287 495.777"
	 xml:space="preserve">
<path d="M130,39c0-10.667-3.833-19.833-11.5-27.5S101.667,0,91,0S71.167,3.833,63.5,11.5C55.833,19.168,52.333,28.335,53,39
	c-0.667,10.667,2.833,19.667,10.5,27S80.334,77.333,91,78c10.667-0.667,19.834-4.667,27.5-12C126.167,58.667,130,49.667,130,39z"/>
<path d="M241,250L117,100c-3.333-5.333-11.833-8.333-25.5-9S67.333,93,60,99L0,208l14,92c8,13.333,18,15.333,30,6
	c8.667-6.667,11-13,7-19l-10-65l26-53v123L5,456c-3.333,11.333-1.333,20.833,6,28.5c7.333,7.666,16,11,26,10s16.667-7.167,20-18.5
	l71-184v-92l-30-42c-2-2-1.833-3.833,0.5-5.5s4.5-1.5,6.5,0.5l102,121c5.334,7.333,12,10.333,20,9s13.334-5.167,16-11.5
	C245.668,265.167,245,258,241,250z"/>
<path d="M193,458l-60-151l-25,67l35,104c4.667,10.666,12.167,16.5,22.5,17.5c10.334,1,18.667-2.334,25-10
	C196.842,477.833,197.676,468.666,193,458z"/>
<path d="M354,492l1,1c2.668,3.333,5.668,3.666,9,1c2.668-2.667,3-5.667,1-9L251,286c-3.332-3.333-6.666-3.667-10-1
	c-2.666,2.667-3,5.667-1,9L354,492z"/>
</svg>
