<?xml version="1.0" encoding="utf-8"?>
<!-- Generator: Adobe Illustrator 16.0.4, SVG Export Plug-In . SVG Version: 6.00 Build 0)  -->
<!DOCTYPE svg PUBLIC "-//W3C//DTD SVG 1.1//EN" "http://www.w3.org/Graphics/SVG/1.1/DTD/svg11.dtd">
<svg version="1.1" id="Capa_1" xmlns="http://www.w3.org/2000/svg" xmlns:xlink="http://www.w3.org/1999/xlink" x="0px" y="0px"
	 width="472px" height="492px" viewBox="0 0 472 492" enable-background="new 0 0 472 492" xml:space="preserve">
<g>
	<path d="M443,443c-10-4.667-20.167-7-30.5-7c-10.332,0-20.165,2.333-29.5,7c-9.333,4-19,6-29,6s-19.667-2-29-6c-10-4.667-20-7-30-7
		s-20,2.333-30,7c-9.333,4-19,6-29,6s-19.667-2-29-6c-9.333-4.667-19.167-7-29.5-7s-20.5,2.333-30.5,7c-9.333,4-19,6-29,6
		s-19.667-2-29-6c-9.333-4.667-19.167-7-29.5-7s-20.167,2.333-29.5,7c-10,4-20,6-30,6v43c10,0,20-2,30-6
		c9.333-4.667,19.167-7,29.5-7s20.167,2.333,29.5,7c9.333,4,19,6,29,6s19.667-2,29-6c10-4.667,20.167-7,30.5-7s20.166,2.333,29.5,7
		c9.333,4,19,6,29,6s19.667-2,29-6c9.333-4.667,19.167-7,29.5-7s20.5,2.333,30.5,7c9.333,4,19,6,29,6s19.667-2,29-6
		c9.333-4.667,19.167-7,29.5-7s20.5,2.333,30.5,7c9.333,4,19,6,29,6v-43C462,449,452.333,447,443,443z"/>
	<path d="M51,244c8,0,14.833-2.667,20.5-8s8.5-12,8.5-20s-2.833-14.667-8.5-20S59,188,51,188s-14.667,2.667-20,8s-8,12-8,20
		s2.667,14.667,8,20S43,244,51,244z"/>
	<path d="M141,275l50-21c4-2.667,6-6.333,6-11c0-4-1.333-7.333-4-10s-6-4-10-4c-2,0-3.667,0.333-5,1l-45,20H66
		c-8,0-14.833,2.833-20.5,8.5S37,271,37,279v7l31,67c4.667,10.667,13.667,16,27,16h81l47,46c4,3.333,8.5,5.167,13.5,5.5
		S246,419,250,415c8-8.667,7.667-17-1-25l-54-49c-2-2-6.333-3-13-3h-55l-25-61h30L141,275z"/>
	<path d="M454,288c-2-38.667-13.833-75.333-35.5-110S370,114,338,90s-66.667-43.833-104-59.5C196.667,14.835,160,4.668,124,0
		l158,396L454,288z M241,222c-5.333,0-8-2.667-8-8c0-4,1.333-6.333,4-7c7.333-2.663,18.5-4.829,33.5-6.5
		c15-1.667,33.667-2.167,56-1.5s44.333,6.833,66,18.5S431,246,443,268c1.333,2.667,2,4.667,2,6c0,5.333-2.667,8-8,8
		c-3.333,0-5.333-0.667-6-2c-2-3.333-3.833-6.333-5.5-9s-5.333-7-11-13S403,246.833,397,242.5s-14.167-9-24.5-14
		s-21.333-8.5-33-10.5s-25.833-2.833-42.5-2.5s-34,2.5-52,6.5H241z"/>
</g>
</svg>
