<?xml version="1.0" encoding="utf-8"?>
<!-- Generator: Adobe Illustrator 16.0.4, SVG Export Plug-In . SVG Version: 6.00 Build 0)  -->
<!DOCTYPE svg PUBLIC "-//W3C//DTD SVG 1.1//EN" "http://www.w3.org/Graphics/SVG/1.1/DTD/svg11.dtd">
<svg version="1.1" id="Capa_1" xmlns="http://www.w3.org/2000/svg" xmlns:xlink="http://www.w3.org/1999/xlink" x="0px" y="0px"
	 width="348px" height="492px" viewBox="0 0 348 492" enable-background="new 0 0 348 492" xml:space="preserve">
<path d="M101,477.5c0,3.667,1.333,7,4,10c2.668,3,5.835,4.5,9.5,4.5c3.667,0,6.834-1.5,9.5-4.5c2.667-3,4-6.333,4-10s-1.333-7-4-10
	s-5.833-4.5-9.5-4.5s-6.833,1.5-9.5,4.5S101,473.833,101,477.5z"/>
<path d="M226.5,491c3.667,0,7-1.333,10-4s4.5-6,4.5-10s-1.5-7.333-4.5-10s-6.333-4-10-4c-3.671,0-6.838,1.333-9.5,4
	c-2.667,2.667-4,6-4,10s1.333,7.333,4,10S222.833,491,226.5,491z"/>
<path d="M203,76c10,0,18.667-3.667,26-11s11-16.333,11-27s-3.667-19.667-11-27S212.833,0,202.5,0s-19,3.667-26,11S166,27.333,166,38
	s3.667,19.667,11,27S193,76,203,76z"/>
<path d="M3,408c-2,3.333-3,7-3,11c0,6.667,2.333,12.333,7,17s10.333,7,17,7c9.333,0,16.333-4.333,21-13l80-143l-33-34L3,408z"/>
<path d="M177,401c-4,9.333-11,14-21,14c-6.667,0-12.333-2.333-17-7s-7-10.333-7-17c0-4,1-7.667,3-11l35-64l-68-70
	c-8-8-12.667-16.667-14-26c-1.332-9.334-0.665-16.668,2-22l4-8l37-67H33c-5.333,0-9.833-2-13.5-6s-5.5-8.833-5.5-14.5
	S15.833,92,19.5,88s8.167-6,13.5-6h296c5.333,0,9.833,2,13.5,6s5.5,8.833,5.5,14.5s-1.833,10.5-5.5,14.5s-8.167,6-13.5,6H216l-54,97
	l55,56c6,5.333,9.5,11.333,10.5,18s0.5,12-1.5,16l-2,6L177,401z"/>
<path d="M266,440.5c0,7-3.333,10.5-10,10.5H82c-6.667,0-10-3.5-10-10.5S75.333,430,82,430h174C262.667,430,266,433.5,266,440.5z"/>
</svg>
