<?xml version="1.0" encoding="utf-8"?>
<!-- Generator: Adobe Illustrator 16.0.4, SVG Export Plug-In . SVG Version: 6.00 Build 0)  -->
<!DOCTYPE svg PUBLIC "-//W3C//DTD SVG 1.1//EN" "http://www.w3.org/Graphics/SVG/1.1/DTD/svg11.dtd">
<svg version="1.1" id="Capa_1" xmlns="http://www.w3.org/2000/svg" xmlns:xlink="http://www.w3.org/1999/xlink" x="0px" y="0px"
	 width="472px" height="471px" viewBox="0 0 472 471" enable-background="new 0 0 472 471" xml:space="preserve">
<g>
	<path d="M345,281c18-29.333,27-61.333,27-96c0-51.333-18.167-95-54.5-131S237.333,0,186,0S90.833,18,54.5,54S0,133.667,0,185
		s18.167,95.167,54.5,131.5S134.667,371,186,371c34.667,0,66.667-9,96-27l127,127l63-63L345,281z M267.5,266.5
		C245.167,288.833,218,300,186,300c-31.333,0-58.333-11.167-81-33.5s-34-49.333-34-81s11.333-58.667,34-81s49.667-33.833,81-34.5
		c32,0.667,59.167,12.167,81.5,34.5s33.5,49.333,33.5,81S289.833,244.167,267.5,266.5z"/>
	<rect x="103" y="163" width="164" height="41"/>
</g>
</svg>
